<svg width="1014" height="283" viewBox="0 0 1014 283" fill="none" xmlns="http://www.w3.org/2000/svg">
<path d="M227.05 47.8616C227.05 47.8616 226.532 45.3766 225.665 38.1898L217.763 22.6988C217.763 22.6988 219.551 19.454 223.582 26.319C225.441 29.4476 231.627 28.1068 230.626 23.2262C229.625 18.3456 223.225 16.0752 219.309 20.9379C219.309 20.9379 216.78 21.1971 216.485 19.2216C216.19 17.2461 221.902 12.3656 226.764 13.7868C228.746 14.4108 230.574 15.4465 232.128 16.826C232.128 16.826 231.073 0.539493 232.396 0.396471C233.719 0.25345 235.551 1.29036 236.552 19.1054C236.552 19.1054 237.107 5.0089 237.384 3.2122C237.661 1.4155 240.065 0.199819 240.387 4.71392C240.387 5.2145 241.281 19.0697 241.281 19.0697C241.281 19.0697 242.863 9.90737 243.069 9.17439C243.516 7.24361 245.42 7.4492 245.607 10.0057C245.741 11.9454 246.367 20.2228 246.367 20.2228L247.565 45.7073H247.726" fill="#FFBE9D"/>
<path d="M252.329 39.4504L222.652 38.6816L219.702 110.496L186.128 95.7649L186.075 95.8811C184.054 94.9872 182.294 94.1827 181.355 93.6643C162.807 83.5545 150.632 82.3209 130.725 89.4273L92.5925 104.695C85.209 108.172 65.9995 111.381 59.4116 141.755L58.5177 145.384L89.0348 167.275L109.961 222.428L134.989 277.634L192.6 275.766L222.706 238.223L197.159 189.426L181.283 134.774C192.502 142.22 213.32 152.357 238.251 147.074C265.29 141.353 252.329 39.4504 252.329 39.4504Z" fill="#E6A371"/>
<g opacity="0.3">
<path d="M109.764 221.865C114.344 224.653 119.286 226.798 124.451 228.238C127.257 229.078 130.475 229.695 132.969 228.158C135.463 226.62 135.848 222.07 133.059 221.158L157.238 215.697C153.958 206.257 159.366 195.486 167.545 189.774C175.724 184.062 185.02 182.4 194.978 181.533L207.036 218.942L166.731 273.915L133.729 274.872L109.764 221.865Z" fill="black"/>
</g>
<path d="M97.1156 170.19C97.1156 170.19 82.0001 203.263 85.4952 219.746C87.426 228.971 117.612 236.846 136.849 239.197L131.083 271.484C131.083 271.484 59.5726 264.682 46.2091 236.372C38.6111 220.283 46.3074 180.952 60.7794 136.437L97.1156 170.19Z" fill="#E6A371"/>
<path d="M165.962 208.921C165.803 209.033 165.633 209.126 165.453 209.198L163.942 209.896C162.628 210.504 160.706 211.335 158.32 212.336C153.546 214.32 146.86 216.877 139.343 219.29C131.825 221.704 124.897 223.51 119.856 224.654C117.335 225.235 115.288 225.673 113.867 225.941L112.231 226.245C112.045 226.295 111.852 226.322 111.659 226.325C111.837 226.248 112.023 226.191 112.213 226.155L113.831 225.762C115.244 225.44 117.273 224.949 119.784 224.332C124.799 223.089 131.691 221.23 139.2 218.826C146.708 216.421 153.394 213.918 158.195 212.005C160.599 211.058 162.53 210.271 163.871 209.717L165.408 209.091C165.586 209.015 165.772 208.958 165.962 208.921Z" fill="white"/>
<path d="M185.869 94.7009C185.869 94.8171 157.739 105.034 122.949 117.513C88.1589 129.991 59.9033 140.012 59.8586 139.86C59.8139 139.708 87.989 129.526 122.788 117.048C157.587 104.569 185.824 94.5757 185.869 94.7009Z" fill="white"/>
<path d="M89.7677 186.941C89.783 186.873 89.807 186.807 89.8392 186.744L90.0717 186.19L90.9655 184.054C91.7522 182.194 92.8695 179.486 94.0047 176.062C95.3424 172.048 96.259 167.904 96.74 163.7C97.3325 158.566 96.9565 153.366 95.6316 148.37C94.3311 143.361 91.7638 138.772 88.1766 135.042C85.1937 132.056 81.5269 129.844 77.4947 128.597C74.7734 127.767 71.9185 127.463 69.0833 127.703L67.7514 127.873C67.3671 127.927 67.0542 128.007 66.786 128.052L66.1961 128.168H65.9905C65.9905 128.168 66.053 128.168 66.1782 128.106L66.7682 127.945C67.0274 127.882 67.3492 127.784 67.7336 127.712L69.0654 127.507C71.9273 127.192 74.8231 127.451 77.5841 128.267C81.6949 129.482 85.4392 131.7 88.4805 134.72C92.1378 138.49 94.7556 143.144 96.0785 148.227C97.4195 153.278 97.7896 158.538 97.1691 163.727C96.6568 167.949 95.698 172.105 94.3087 176.125C93.1287 179.549 91.9667 182.239 91.1264 184.081C90.6974 184.974 90.3577 185.707 90.1163 186.181L89.8392 186.726C89.8124 186.861 89.7767 186.941 89.7677 186.941Z" fill="black"/>
<path d="M161.591 87.2549C161.77 87.3082 161.941 87.3833 162.101 87.4784C162.581 87.7166 163.044 87.9884 163.486 88.2918C165.128 89.401 166.585 90.7614 167.804 92.3232C169.592 94.6531 171.02 97.2385 172.041 99.9927C173.256 103.353 174.291 106.775 175.142 110.246L180.121 129.017L181.569 134.729L181.945 136.284C182.001 136.464 182.034 136.65 182.043 136.839C181.961 136.67 181.898 136.493 181.855 136.311C181.739 135.909 181.587 135.417 181.4 134.774L179.8 129.106L174.696 110.335C173.712 106.67 172.809 103.184 171.638 100.109C170.649 97.3857 169.27 94.8204 167.544 92.493C166.366 90.9352 164.966 89.5589 163.388 88.408C162.262 87.6393 161.564 87.2906 161.591 87.2549Z" fill="black"/>
<path d="M211.023 106.491L210.63 106.679L209.441 107.197L204.9 109.11C200.931 110.791 195.166 113.169 188.033 116.083C173.73 121.902 153.976 129.759 131.977 138.054C109.979 146.349 89.9648 153.527 75.3677 158.613C68.0915 161.143 62.1919 163.154 58.1069 164.522L53.3961 166.086L52.1715 166.48L51.7424 166.605L52.1536 166.435L53.3693 165.997L58.0443 164.352L75.2605 158.301C89.786 153.17 109.809 145.947 131.816 137.652C153.824 129.357 173.614 121.562 187.907 115.805L204.829 108.976L209.432 107.117L210.639 106.643L211.023 106.491Z" fill="white"/>
<path d="M184.85 142.13L184.51 142.291L183.491 142.729L179.549 144.365C176.125 145.786 171.156 147.78 164.988 150.202C152.652 155.038 135.49 161.465 116.387 168.008C97.2851 174.551 79.7382 179.959 67.054 183.687C60.6985 185.546 55.5408 187.012 51.9653 187.987L47.8535 189.104L46.7808 189.381C46.6615 189.42 46.5388 189.446 46.4143 189.461C46.5271 189.411 46.6436 189.369 46.7629 189.336L47.8266 189.014L51.9206 187.835C55.4961 186.807 60.6181 185.287 66.9646 183.365C79.6488 179.566 97.1153 174.105 116.235 167.57C135.356 161.036 152.509 154.654 164.872 149.889C171.048 147.512 176.036 145.563 179.478 144.195L183.455 142.64L184.492 142.247L184.85 142.13Z" fill="white"/>
<path d="M254.734 111.184C254.574 111.348 254.401 111.497 254.215 111.631L252.651 112.847C251.971 113.374 251.131 114.009 250.139 114.715C249.147 115.421 248.029 116.252 246.751 117.102C244.222 118.845 241.138 120.82 237.643 122.894C234.147 124.968 230.214 127.104 226.022 129.151C221.83 131.198 217.7 132.977 213.928 134.514C210.156 136.052 206.687 137.196 203.755 138.135C202.298 138.617 200.958 139.028 199.787 139.341C198.616 139.654 197.606 139.967 196.774 140.173L194.852 140.664C194.633 140.727 194.409 140.772 194.182 140.798C194.389 140.702 194.605 140.624 194.826 140.566L196.721 140.003C197.543 139.761 198.508 139.466 199.715 139.109C200.922 138.751 202.2 138.349 203.648 137.84C206.562 136.874 209.995 135.623 213.767 134.13C217.539 132.637 221.615 130.832 225.816 128.767C230.018 126.702 233.933 124.574 237.437 122.51C240.941 120.445 244.025 118.514 246.572 116.807C247.86 115.975 248.986 115.171 249.996 114.483C251.006 113.794 251.855 113.186 252.552 112.695L254.161 111.551C254.34 111.411 254.532 111.288 254.734 111.184Z" fill="white"/>
<path d="M256.128 87.3352C256.173 87.4603 247.967 90.7588 237.804 94.7097C227.64 98.6607 219.354 101.762 219.309 101.637C219.265 101.512 227.462 98.2227 237.634 94.2717C247.806 90.3208 256.084 87.219 256.128 87.3352Z" fill="white"/>
<path d="M254.322 65.0955C254.322 65.2207 247.171 67.3749 238.232 69.9046C229.293 72.4343 222.044 74.374 222.008 74.2578C221.973 74.1416 229.159 71.9874 238.098 69.4577C247.037 66.928 254.286 64.9704 254.322 65.0955Z" fill="white"/>
<path d="M252.749 43.3385C252.749 43.4637 245.804 45.1263 237.178 46.9945C228.552 48.8627 221.544 50.3287 221.517 50.2035C221.49 50.0784 228.453 48.4158 237.079 46.5475C245.705 44.6793 252.713 43.2134 252.749 43.3385Z" fill="white"/>
<path d="M190.482 166.739C190.482 166.855 170.637 174.784 146.065 184.491C121.492 194.199 101.522 201.94 101.478 201.824C101.433 201.707 121.313 193.779 145.895 184.062C170.476 174.346 190.437 166.614 190.482 166.739Z" fill="white"/>
<path d="M85.3253 206.097C85.199 206.177 85.0641 206.243 84.923 206.293L83.7253 206.785C82.6794 207.196 81.1598 207.777 79.2558 208.474C75.4837 209.869 70.2366 211.701 64.3906 213.561C58.5446 215.42 53.1992 216.966 49.3197 218.03C47.38 218.548 45.7978 218.924 44.7073 219.228L43.4469 219.523C43.3025 219.569 43.1517 219.593 43 219.594C43.1319 219.521 43.2733 219.467 43.4201 219.433L44.6626 219.049L49.2304 217.708C53.083 216.582 58.4016 215.027 64.2476 213.132C70.0936 211.236 75.3406 209.484 79.1396 208.17L83.609 206.624L84.8337 206.213C84.9892 206.145 85.1558 206.106 85.3253 206.097Z" fill="white"/>
<path d="M95.9355 228.748C95.9892 228.864 86.3531 232.886 74.4198 237.731C62.4865 242.576 52.761 246.411 52.7163 246.295C52.6716 246.178 62.2988 242.147 74.241 237.302C86.1833 232.457 95.8908 228.622 95.9355 228.748Z" fill="white"/>
<path d="M113.483 235.005C113.581 235.094 108.173 241.494 101.415 249.307C94.6577 257.119 89.0888 263.385 88.9905 263.305C88.8921 263.225 94.3001 256.815 101.058 249.003C107.816 241.19 113.384 234.924 113.483 235.005Z" fill="white"/>
<path d="M131.423 239.564C131.548 239.608 129.376 246.42 126.578 254.76C123.78 263.1 121.411 269.875 121.295 269.831C121.179 269.786 123.342 262.983 126.14 254.635C128.938 246.286 131.298 239.519 131.423 239.564Z" fill="white"/>
<path d="M248.7 138.984C248.753 139.1 243.614 141.227 237.222 143.73C230.831 146.233 225.602 148.155 225.602 148.039C225.602 147.923 230.697 145.795 237.088 143.292C243.48 140.789 248.646 138.859 248.7 138.984Z" fill="white"/>
<g opacity="0.3">
<path d="M172.407 101.638C180.702 124.101 195.648 136.66 216.753 147.923C204.272 146.54 192.311 142.157 181.891 135.149" fill="black"/>
</g>
<path d="M164.89 280.798H324.117V212.774C324.118 209.743 323.522 206.742 322.364 203.942C321.205 201.142 319.505 198.598 317.363 196.454C315.22 194.311 312.677 192.611 309.877 191.451C307.077 190.291 304.077 189.694 301.046 189.694H187.97C181.849 189.694 175.978 192.126 171.65 196.454C167.322 200.782 164.89 206.653 164.89 212.774V280.798Z" fill="#455A64"/>
<path d="M185.53 189.694H210.827C213.307 189.694 215.685 190.679 217.438 192.432C219.192 194.186 220.177 196.564 220.177 199.044V279.609C220.177 279.925 220.052 280.227 219.829 280.45C219.606 280.673 219.303 280.798 218.988 280.798H166.088C165.773 280.798 165.47 280.673 165.247 280.45C165.024 280.227 164.899 279.925 164.899 279.609V210.334C164.899 204.861 167.072 199.613 170.941 195.742C174.81 191.872 180.058 189.696 185.53 189.694Z" fill="#455A64"/>
<path d="M176.635 280.798V212.676C176.635 206.582 179.055 200.738 183.363 196.428C187.671 192.119 193.515 189.696 199.608 189.694H183.232C183.232 189.694 164.005 192.25 164.005 216.314C164.005 240.377 164.622 280.798 164.622 280.798H176.635Z" fill="black"/>
<path d="M1014 275H0V282H1014V275Z" fill="black"/>
<path d="M329.319 274.327H220.176V281.907H329.319V274.327Z" fill="#455A64"/>
<path d="M220.176 278.117C220.165 278.028 220.165 277.938 220.176 277.849C220.176 277.643 220.176 277.375 220.176 277.044C220.176 276.311 220.176 275.256 220.176 273.978C220.176 271.296 220.176 267.444 220.176 262.706C220.221 253.151 220.292 240.019 220.373 225.503C220.373 221.874 220.489 218.352 220.266 214.919C220.111 211.647 219.534 208.408 218.549 205.283C217.104 200.848 214.304 196.979 210.544 194.219C206.783 191.459 202.252 189.949 197.588 189.9C196.992 189.88 196.395 189.895 195.8 189.944C195.369 189.96 194.939 190.002 194.513 190.069L193.726 190.177H193.449L193.717 190.114L194.504 189.962C194.929 189.876 195.359 189.819 195.791 189.792C196.384 189.722 196.982 189.692 197.579 189.703C201.378 189.685 205.119 190.635 208.449 192.465C213.481 195.134 217.256 199.683 218.952 205.122C219.963 208.283 220.564 211.561 220.739 214.875C220.963 218.307 220.891 221.865 220.856 225.494C220.722 240.002 220.605 253.142 220.516 262.688C220.453 267.426 220.4 271.27 220.364 273.969C220.364 275.274 220.31 276.302 220.301 277.035V277.831C220.27 277.93 220.228 278.026 220.176 278.117Z" fill="black"/>
<path d="M328.568 274.139C328.568 274.264 303.7 274.416 273.04 274.47C242.38 274.523 217.512 274.47 217.512 274.327C217.512 274.184 242.362 274.05 273.04 273.996C303.718 273.942 328.568 274.014 328.568 274.139Z" fill="black"/>
<path d="M328.569 282.211C328.569 282.336 303.88 282.372 273.443 282.291C243.006 282.211 218.308 282.041 218.317 281.907C218.326 281.773 242.989 281.746 273.443 281.827C303.898 281.907 328.569 282.077 328.569 282.211Z" fill="black"/>
<path d="M314.195 265.674C314.195 265.674 314.195 265.557 314.195 265.352C314.195 265.146 314.195 264.816 314.195 264.413C314.195 263.582 314.195 262.375 314.195 260.838C314.195 257.7 314.15 253.133 314.123 247.358L314.257 247.501L242.809 247.59C242.908 247.492 242.568 247.823 243.033 247.358V265.683L242.8 265.459L293.752 265.557L308.778 265.62H312.836H313.891H314.257C314.144 265.629 314.031 265.629 313.918 265.62H312.89H308.885L293.913 265.683L242.8 265.79H242.577V265.557C242.577 262.578 242.577 259.568 242.577 256.529V247.233C243.042 246.768 242.711 247.108 242.818 247L314.266 247.09H314.409V247.233C314.409 253.043 314.347 257.638 314.329 260.802C314.329 262.351 314.329 263.543 314.329 264.378C314.329 264.762 314.329 265.066 314.329 265.271C314.301 265.411 314.256 265.546 314.195 265.674Z" fill="black"/>
<path d="M273.845 252.06V260.239H273.014V253.714L269.814 259.202H269.403L266.202 253.749V260.239H265.38V252.087H266.086L269.662 258.13L273.166 252.087L273.845 252.06Z" fill="black"/>
<path d="M281.613 258.031H277.072L276.089 260.212H275.195L278.922 252.06H279.771L283.499 260.212H282.605L281.613 258.031ZM281.3 257.334L279.342 252.954L277.385 257.334H281.3Z" fill="black"/>
<path d="M284.849 252.06H285.743V260.239H284.849V252.06Z" fill="black"/>
<path d="M288.371 252.06H289.264V259.461H293.832V260.239H288.406L288.371 252.06Z" fill="black"/>
<path d="M305.015 171.047V157.639H279.986V211.397C277.96 212.595 276.389 214.431 275.52 216.619C274.651 218.806 274.533 221.22 275.185 223.482C275.837 225.744 277.222 227.724 279.123 229.113C281.023 230.502 283.331 231.22 285.684 231.155C288.037 231.089 290.301 230.244 292.121 228.752C293.942 227.26 295.214 225.205 295.74 222.911C296.265 220.616 296.014 218.212 295.025 216.077C294.035 213.941 292.365 212.194 290.275 211.111V171.047H305.015Z" fill="#E6A371"/>
<path d="M285.653 224.466C287.914 224.466 289.747 222.633 289.747 220.372C289.747 218.111 287.914 216.278 285.653 216.278C283.392 216.278 281.559 218.111 281.559 220.372C281.559 222.633 283.392 224.466 285.653 224.466Z" fill="black"/>
<path d="M131.861 89.7578C131.953 89.933 132.031 90.1154 132.093 90.3031C132.302 90.8373 132.478 91.3835 132.621 91.9389C133.147 93.9803 133.353 96.0914 133.228 98.1961C133.051 101.335 132.162 104.391 130.627 107.135C128.711 110.513 125.79 113.209 122.269 114.849C118.761 116.531 114.794 117.003 110.989 116.19C107.916 115.477 105.072 114.001 102.72 111.899C101.142 110.487 99.8103 108.823 98.7782 106.974C98.4972 106.477 98.2465 105.964 98.0274 105.437C97.9362 105.258 97.8672 105.069 97.8218 104.873C97.8754 104.873 98.1704 105.624 98.9391 106.885C100.012 108.673 101.361 110.281 102.935 111.649C105.266 113.677 108.064 115.093 111.078 115.77C114.792 116.539 118.655 116.064 122.073 114.42C125.508 112.821 128.367 110.202 130.261 106.92C131.782 104.23 132.683 101.234 132.898 98.1514C133.054 96.0723 132.9 93.9817 132.442 91.9478C132.12 90.5355 131.807 89.7757 131.861 89.7578Z" fill="black"/>
<path d="M207.948 228.131L220.149 227.97L219.676 269.419L208.35 269.866L207.948 228.131Z" fill="#EBEBEB"/>
<path d="M208.351 269.866C210.021 267.708 211.811 265.646 213.714 263.69C215.519 261.626 217.441 259.668 219.471 257.826C217.778 259.981 215.97 262.043 214.054 264.002C212.262 266.061 210.358 268.018 208.351 269.866Z" fill="black"/>
<path d="M220.149 241.932C217.954 239.827 215.866 237.614 213.892 235.3C211.798 233.092 209.82 230.777 207.966 228.363C210.163 230.466 212.252 232.68 214.223 234.996C216.314 237.207 218.292 239.522 220.149 241.932Z" fill="black"/>
<path d="M116.54 46.333C116.54 46.9625 116.724 47.5783 117.071 48.1039C117.417 48.6296 117.91 49.0421 118.488 49.2905C119.067 49.5388 119.705 49.612 120.325 49.501C120.945 49.39 121.518 49.0997 121.975 48.666C123.7 47.0302 123.11 44.1519 122.037 42.0245C120.964 39.8971 119.481 37.7428 119.793 35.3919C120.035 33.6041 121.286 32.1113 122.127 30.4934C122.871 29.0894 123.278 27.5316 123.317 25.9431C123.356 24.3546 123.025 22.7788 122.35 21.3401C121.639 19.9169 120.55 18.7174 119.202 17.8736C117.853 17.0298 116.298 16.5745 114.707 16.5578C111.48 16.6204 108.075 18.6406 105.205 17.1567C103.123 16.0751 102.256 13.5812 100.441 12.0437C97.6431 9.72855 93.415 10.4973 90.0987 12.0437C86.7824 13.5901 83.6091 15.7265 79.971 15.9053C76.9408 16.0483 74.0267 14.779 71.0322 14.3678C67.7509 13.9253 64.4132 14.5163 61.4833 16.0586C58.5534 17.6009 56.177 20.0179 54.6844 22.9735C53.1919 25.9291 52.6575 29.2763 53.1555 32.5497C53.6535 35.8231 55.1591 38.8599 57.4631 41.2379C59.0642 43.0104 61.2383 44.1623 63.6041 44.4916" fill="black"/>
<path d="M120.589 114.644C116.041 116.143 111.083 115.778 106.804 113.628C102.524 111.478 99.2718 107.719 97.7592 103.175C95.9715 97.7582 94.4429 93.1994 94.4429 93.1994C94.4429 93.1994 80.0514 95.3984 75.5463 81.7309C71.0411 68.0635 63.9258 37.6536 63.9258 37.6536L63.4878 35.8122C77.2178 23.9683 96.7402 21.9928 113.769 28.2053L114.663 31.0389L132.54 92.9938C133.668 97.4454 133.06 102.159 130.841 106.179C128.622 110.2 124.957 113.225 120.589 114.644Z" fill="#FFBE9D"/>
<path d="M75.9661 57.8104C76.3098 57.5579 76.5689 57.2073 76.7092 56.8046C76.8496 56.4019 76.8646 55.9662 76.7523 55.5548C76.64 55.1434 76.4057 54.7758 76.0802 54.5002C75.7548 54.2247 75.3535 54.0543 74.9292 54.0114C74.4221 53.9493 73.911 54.0907 73.5079 54.4047C73.158 54.6546 72.8928 55.0055 72.7479 55.4104C72.603 55.8153 72.5853 56.2547 72.6971 56.6699C72.8089 57.0852 73.045 57.4563 73.3736 57.7336C73.7023 58.0109 74.1078 58.1812 74.5359 58.2216C74.7896 58.2506 75.0466 58.2292 75.292 58.1586C75.5374 58.088 75.7665 57.9697 75.9661 57.8104Z" fill="black"/>
<path d="M70.2543 56.0941C70.5493 56.2639 71.5683 54.798 73.4544 54.1901C75.3405 53.5823 77.0299 54.1276 77.1461 53.8236C77.2176 53.6806 76.869 53.3231 76.1271 53.0549C75.1386 52.7263 74.071 52.7225 73.0802 53.0442C72.0895 53.3659 71.2277 53.9961 70.6208 54.8427C70.1828 55.5399 70.1202 56.0226 70.2543 56.0941Z" fill="black"/>
<path d="M93.3166 50.1765C93.046 50.4894 92.8743 50.8756 92.8232 51.2862C92.772 51.6967 92.8438 52.1132 93.0294 52.483C93.215 52.8527 93.5061 53.1591 93.8659 53.3634C94.2256 53.5677 94.6379 53.6608 95.0505 53.6308C95.4632 53.6008 95.8576 53.449 96.184 53.1948C96.5105 52.9406 96.7541 52.5953 96.8843 52.2026C97.0145 51.8099 97.0252 51.3874 96.9152 50.9885C96.8052 50.5897 96.5795 50.2324 96.2664 49.9619C95.8458 49.6015 95.2998 49.4219 94.7474 49.4621C94.1949 49.5023 93.6807 49.759 93.3166 50.1765Z" fill="black"/>
<path d="M90.8143 51.4909C91.1003 51.6608 92.1193 50.2037 94.0054 49.5959C95.8915 48.988 97.5809 49.5333 97.7061 49.2204C97.7776 49.0864 97.429 48.7199 96.6871 48.4607C95.6986 48.132 94.6309 48.1283 93.6402 48.45C92.6495 48.7716 91.7876 49.4018 91.1807 50.2484C90.7427 50.9278 90.6712 51.4194 90.8143 51.4909Z" fill="black"/>
<path d="M88.159 69.4755C88.159 69.3324 86.8807 69.4755 84.9053 69.8151C84.3958 69.9224 83.9578 69.9403 83.8237 69.6632C83.6412 69.1713 83.607 68.6368 83.7253 68.1257C83.8147 66.7313 83.9041 65.301 84.0024 63.8083C84.3332 57.6852 84.3689 52.7152 84.0829 52.6973C83.7968 52.6794 83.2784 57.6315 82.9387 63.7546C82.8672 65.2474 82.8046 66.6687 82.7421 68.0721C82.6241 68.8004 82.7564 69.5472 83.1175 70.1906C83.2437 70.3537 83.4066 70.4849 83.593 70.5734C83.7793 70.6619 83.9839 70.7053 84.1902 70.7001C84.4938 70.6918 84.7947 70.6406 85.084 70.5481C87.0059 70.0207 88.1858 69.6185 88.159 69.4755Z" fill="black"/>
<path d="M94.9526 69.6279C96.5526 67.8401 90.4832 74.2135 86.5411 75.2415C87.4947 76.0331 88.6888 76.4774 89.9278 76.5018C91.1669 76.5262 92.3775 76.1291 93.3615 75.3756C96.9906 72.5777 94.9526 69.6279 94.9526 69.6279Z" fill="white"/>
<path d="M94.3625 93.0117C100.732 91.1302 106.399 87.3963 110.64 82.2852C110.64 82.2852 109.532 93.4944 95.4442 96.5873L94.3625 93.0117Z" fill="#EB996E"/>
<path d="M116.647 40.4068C116.924 40.2102 126.632 36.4022 128.643 48.4964C130.654 60.5907 117.773 58.6062 117.693 58.2666C117.612 57.9269 116.647 40.4068 116.647 40.4068Z" fill="#FFBE9D"/>
<path d="M120.696 53.4126C120.696 53.3589 120.929 53.5198 121.313 53.6271C121.851 53.7546 122.417 53.6714 122.895 53.3947C124.093 52.7154 124.826 50.5075 124.531 48.3264C124.387 47.2837 124.015 46.2856 123.44 45.4034C123.263 45.0449 123.001 44.7349 122.677 44.4998C122.353 44.2647 121.977 44.1116 121.581 44.0536C121.328 44.0296 121.075 44.0953 120.866 44.2391C120.657 44.3829 120.505 44.5957 120.437 44.8403C120.33 45.1978 120.437 45.4302 120.437 45.457C120.437 45.4839 120.142 45.3051 120.151 44.7866C120.174 44.4747 120.299 44.1791 120.508 43.9464C120.799 43.6425 121.197 43.4631 121.617 43.4458C122.129 43.4629 122.629 43.6107 123.069 43.875C123.508 44.1394 123.873 44.5116 124.129 44.9565C124.79 45.9273 125.207 47.0435 125.344 48.2102C125.675 50.6505 124.808 53.1444 123.145 53.931C122.836 54.0819 122.497 54.1603 122.153 54.1603C121.809 54.1603 121.47 54.0819 121.161 53.931C120.768 53.6986 120.66 53.4394 120.696 53.4126Z" fill="#EB996E"/>
<path d="M62.3525 44.2864C62.3525 44.2864 71.8366 45.9937 81.1956 37.5197C87.3276 31.9598 95.158 27.8837 97.4016 28.8044C99.6453 29.7251 102.077 36.9745 109.755 37.1354C109.755 37.1354 113.197 51.3034 118.649 49.2385C124.102 47.1737 114.519 26.4177 114.519 26.4177L99.1358 20.7773L83.4124 22.145L67.4477 28.5899L59.6709 36.8851L62.3525 44.2864Z" fill="black"/>
<path d="M112.231 14.4219C111.208 14.8042 110.231 15.2988 109.317 15.8968C108.491 16.6142 107.75 17.424 107.109 18.3103C107.434 17.1993 108.108 16.222 109.029 15.5221C109.951 14.8221 111.074 14.4365 112.231 14.4219Z" fill="black"/>
<path d="M104.928 10.4976C105.215 10.8466 105.433 11.247 105.571 11.6775C105.999 12.6789 106.299 13.73 106.465 14.8061C106.631 15.8872 106.601 16.9894 106.376 18.0598C106.325 18.5141 106.166 18.9495 105.911 19.3291C106.12 17.8483 106.15 16.3477 106 14.8597C105.625 12.4283 104.785 10.5512 104.928 10.4976Z" fill="black"/>
<path d="M141.667 227.505L203.568 215.992L212.82 257.825L148.532 268.677L141.667 227.505Z" fill="#E0E0E0"/>
<path d="M203.568 215.992C203.568 215.992 203.568 216.054 203.461 216.162L203.112 216.653L201.736 218.495L196.587 225.225C192.171 230.928 186.111 238.768 179.362 247.474L179.246 247.626L179.076 247.537L177.869 246.902L152.224 233.27L144.482 229.087L142.382 227.934L141.846 227.621C141.781 227.587 141.721 227.545 141.667 227.496L141.863 227.576L142.427 227.845L144.563 228.953C146.449 229.927 149.104 231.313 152.384 233.002L178.083 246.491L179.281 247.126L178.986 247.188L196.319 225.029L201.584 218.378C202.2 217.628 202.683 217.029 203.032 216.591C203.193 216.412 203.318 216.26 203.416 216.135L203.568 215.992Z" fill="black"/>
<path d="M148.532 268.677C148.424 268.606 152.402 262.295 157.426 254.581C162.449 246.867 166.597 240.663 166.704 240.734C166.811 240.806 162.834 247.117 157.765 254.831C152.697 262.545 148.639 268.749 148.532 268.677Z" fill="black"/>
<path d="M212.82 257.825C212.739 257.924 206.947 253.49 199.885 247.921C192.823 242.352 187.165 237.758 187.246 237.659C187.326 237.561 193.109 241.986 200.18 247.555C207.251 253.123 212.945 257.718 212.82 257.825Z" fill="black"/>
<path d="M143.294 236.837C143.294 236.837 143.732 244.944 147.638 244.882C151.544 244.819 165.328 237.293 166.928 239.903C168.528 242.513 164.3 246.16 164.3 246.16C164.3 246.16 169.154 246.089 167.348 248.994C165.542 251.899 160.134 265.504 155.138 266.782C147.987 268.614 131.423 269.33 131.423 269.33L136.527 240.841L143.294 236.837Z" fill="#FFBE9D"/>
<path d="M165.802 244.399C165.652 244.613 165.478 244.808 165.283 244.98C164.926 245.329 164.389 245.821 163.71 246.393C160.134 249.39 156.106 251.804 151.777 253.544C150.945 253.875 150.266 254.116 149.792 254.268C149.55 254.367 149.294 254.431 149.032 254.456C149.88 253.998 150.755 253.592 151.652 253.24C155.868 251.327 159.846 248.927 163.504 246.089C164.234 245.479 165.002 244.914 165.802 244.399Z" fill="#EB996E"/>
<path d="M165.569 252.426C165.194 253.169 164.715 253.855 164.148 254.464C161.53 257.556 158.136 259.894 154.315 261.24C153.543 261.555 152.731 261.762 151.902 261.857C152.65 261.515 153.417 261.216 154.199 260.963C157.875 259.476 161.175 257.192 163.862 254.277C164.398 253.63 164.968 253.013 165.569 252.426Z" fill="#EB996E"/>
</svg>
