<svg width="15" height="15" viewBox="0 0 15 15" fill="none" xmlns="http://www.w3.org/2000/svg">
<path d="M10.8371 5.35183C10.8094 5.29491 10.7627 5.24635 10.7031 5.21226C10.6434 5.17817 10.5733 5.16009 10.5017 5.16028H3.24962C3.17803 5.16009 3.10798 5.17817 3.04829 5.21226C2.9886 5.24635 2.94195 5.29491 2.91421 5.35183C2.88809 5.40959 2.88146 5.47255 2.8951 5.53343C2.90873 5.59431 2.94207 5.65061 2.99126 5.69583L6.61732 8.8231C6.68662 8.8809 6.77926 8.91321 6.87567 8.91321C6.97208 8.91321 7.06472 8.8809 7.13403 8.8231L10.7601 5.69583C10.8093 5.65061 10.8426 5.59431 10.8562 5.53343C10.8699 5.47255 10.8633 5.40959 10.8371 5.35183V5.35183Z" fill="#E6A371"/>
</svg>
