<svg width="204" height="204" viewBox="0 0 204 204" fill="none" xmlns="http://www.w3.org/2000/svg">
<path d="M102 6.34167e-06C45.667 1.41687e-06 -1.41688e-06 45.667 -6.34167e-06 102C-1.12665e-05 158.333 45.6669 204 102 204C158.333 204 204 158.333 204 102C204 45.667 158.333 1.12665e-05 102 6.34167e-06Z" fill="url(#paint0_linear_269_2215)"/>
<path d="M101.864 9.51997C50.8641 9.51996 9.52012 50.8639 9.52012 101.864C9.52011 152.865 50.8641 194.209 101.864 194.209C152.865 194.209 194.209 152.865 194.209 101.864C194.209 50.8639 152.865 9.51997 101.864 9.51997Z" fill="url(#paint1_radial_269_2215)"/>
<path d="M129.643 138.421C126.451 135.328 125.102 133.137 125.102 131.863C125.102 130.989 125.727 129.815 127.467 128.363C128.919 127.204 129.883 125.902 129.883 124.74V120.808C126.343 125.163 122.187 127.465 117.891 127.465C113.545 127.465 109.779 125.875 106.588 122.691L106.595 122.675H110.491C114.031 122.675 117.441 121.864 120.72 120.239C122.589 119.312 124.36 118.141 126.031 116.724C128.095 114.974 130.245 112.71 132.137 110.75V122.957C132.137 126.131 132.377 126.858 129.765 129.223C128.608 130.27 127.467 131.113 127.467 131.875C127.582 132.69 127.647 133.578 128.785 134.513C129.383 132.032 132.027 130.596 133.91 130.078C137.01 129.226 139.078 128.7 139.479 125.346C139.507 125.108 139.532 123.996 139.544 123.728L141.797 123.352L141.794 124.827C141.794 126.397 141.221 127.909 140.233 129.372C138.764 131.076 136.912 131.389 135.017 132.1C132.381 133.091 129.643 135.369 129.643 138.421Z" fill="#372011"/>
<path d="M106.549 122.671C102.728 122.031 99.6033 120.322 97.171 117.541C94.734 114.753 93.5159 111.533 93.5159 107.878C93.5159 103.812 95.0546 100.331 98.1276 97.4283C101.205 94.5291 104.891 93.0776 109.187 93.0776H111.362C114.321 93.0776 116.947 94.5134 119.241 97.385C121.535 100.26 122.679 103.757 122.679 107.878C119.443 105.644 117.382 104.789 114.4 104.508C110.749 104.168 107.811 104.275 105.18 107.269C103.499 109.184 102.657 111.561 102.657 114.405C102.657 117.3 103.958 120.053 106.557 122.659L106.549 122.671ZM100.917 117.454C100.335 115.943 100.046 114.491 100.046 113.099C100.046 109.967 101.146 107.297 103.353 105.09C106.418 102.028 109.646 101.581 113.731 101.827C115.551 101.937 116.583 102.309 119.197 103.523C118.327 101.202 117.022 99.315 115.282 97.8634C113.538 96.4118 111.651 95.6881 109.622 95.6881C105.848 95.6881 102.657 96.9063 100.046 99.3468C97.4315 101.783 96.1262 104.773 96.1262 108.313C96.1262 112.55 97.7243 115.595 100.917 117.454Z" fill="#372011"/>
<path d="M69.0147 130.511C64.9527 127.029 62.9195 123.256 62.9195 119.194V110.488H56.8245V117.454C56.8245 120.876 57.9874 123.838 60.3092 126.333C62.631 128.829 65.5341 130.222 69.0147 130.511Z" fill="#372011"/>
<path d="M94.4836 110.488H65.5343V118.324C65.5343 121.401 66.4914 124.142 68.4057 126.551C70.3202 128.96 72.8437 130.57 75.9802 131.381L76.1265 131.333L76.1819 131.491C75.0428 131.998 73.524 132.255 71.6253 132.255H69.0149C64.8936 132.255 61.397 130.815 58.5256 127.944C55.65 125.072 54.2142 121.575 54.2142 117.454V110.488H50.7336C49.5667 110.488 48.9893 109.935 48.9893 109.183C48.9893 108.313 49.5706 107.878 50.7336 107.878C67.291 107.878 77.938 107.878 94.4836 107.878V110.488Z" fill="#372011"/>
<path d="M76.1703 131.317C77.9186 130.704 79.8487 129.364 81.6366 127.03C83.7922 124.217 85.7025 122.675 87.7315 122.675C88.8352 122.675 89.7647 122.995 90.5202 123.636C91.2717 124.273 91.6514 125.115 91.6514 126.16C91.6514 127.9 90.8088 129.352 89.124 130.51C87.4429 131.674 85.3821 132.255 82.9456 132.255C80.1018 132.255 77.9225 131.962 76.4155 131.381C76.3523 131.412 76.289 131.444 76.2218 131.475L76.1703 131.317Z" fill="#372011"/>
<path d="M131.232 84.1468C130.692 83.4165 130.288 82.6418 130.018 81.8227C126.781 71.9678 136.165 62.9444 145.752 65.236C149.623 66.1614 152.83 68.9768 153.657 73.6337C154.19 76.629 153.538 79.8429 151.019 81.9045C150.845 75.8546 136.161 76.1446 131.26 84.1459L131.232 84.1468Z" fill="#372011"/>
<path d="M130.646 88.9993C131.38 89.1545 132.66 88.9045 133.113 88.2569C133.794 87.283 132.991 86.1708 132.38 85.4207C132.089 85.0645 131.729 84.6541 131.298 84.1895L131.257 84.1874C130.913 84.5279 130.421 85.0492 130.028 85.6262C129.256 86.7597 129 88.6509 130.646 88.9993Z" fill="#372011"/>
<path fill-rule="evenodd" clip-rule="evenodd" d="M77.6995 107.878C79.8896 107.416 81.7323 105.903 82.1145 103.672L82.2 102.976C82.2158 102.76 82.2441 102.521 82.2572 102.299C82.3193 101.244 82.3201 100.487 82.1947 99.4651C82.1577 99.1632 81.9269 97.6896 81.8273 97.4938C81.7317 96.964 81.3363 95.9033 81.1504 95.4066L80.7703 94.5447C80.603 94.2369 80.2915 93.56 80.1096 93.2908L79.1976 91.8535C79.135 91.7589 79.0775 91.6938 79.0152 91.5996C78.9853 91.5543 78.9635 91.5173 78.9323 91.4739C78.8969 91.4249 78.8746 91.4094 78.8389 91.3553C78.808 91.3086 78.783 91.2636 78.7487 91.2207L78.2745 90.6045C78.2399 90.5628 78.219 90.5304 78.1818 90.4853L77.2733 89.4209C77.1971 89.3388 77.1295 89.2722 77.0575 89.1912C77.018 89.1468 76.9831 89.116 76.9398 89.0725C76.4244 88.5563 76.0259 88.1557 75.4167 87.6797L74.4189 86.9375C74.3401 86.8778 74.388 86.9219 74.384 86.8916C74.3236 86.8757 73.4086 86.2678 73.2457 86.1747C72.5257 85.7633 72.0987 85.5216 71.3294 85.1677C71.208 85.1119 71.0881 85.0584 70.9515 85.0016C70.4389 84.7879 69.0651 84.2454 68.5208 84.1352C68.4652 84.1013 67.7738 83.9164 67.6587 83.8936C67.4851 83.8593 67.3771 83.8199 67.2122 83.787C67.0573 83.7559 66.9025 83.7243 66.7476 83.693L65.8326 83.5072C65.7493 83.4913 65.7407 83.502 65.6685 83.4914C65.5518 83.4743 65.4359 83.4325 65.3189 83.4252L64.6317 83.3316C64.5144 83.3137 64.3965 83.2896 64.2789 83.2816C64.1931 83.2758 64.0528 83.2646 63.9537 83.2446C63.383 83.1715 62.3653 83.1279 61.8301 83.1085C60.6037 83.064 58.3102 83.2734 57.0879 83.6038C57.0075 83.6255 56.9387 83.6426 56.8639 83.6641C56.7568 83.6948 56.3157 83.882 56.2535 83.8748C56.2698 83.8028 56.2828 83.8092 56.3326 83.7845L56.8378 83.5618L57.4964 83.361C58.3012 83.1602 59.0113 83.0309 59.848 82.9687C60.5179 82.919 61.1869 82.8775 61.8834 82.8747C62.2402 82.8732 63.6204 82.8902 64.0317 82.943L65.0668 83.0451C65.2511 83.0553 65.6572 83.1308 65.7806 83.1368C65.9136 83.1435 66.3541 83.2285 66.5008 83.2591C66.6299 83.286 66.7158 83.2857 66.8576 83.3143C67.0397 83.3512 68.5532 83.6807 68.634 83.7406L69.4914 83.9837C71.2959 84.5492 72.6516 85.2051 74.2267 86.1352L74.5457 86.3397L75.0836 86.692C75.1784 86.7563 75.2601 86.8085 75.351 86.8758L76.1139 87.4532L77.2969 88.4762C77.891 89.0447 78.8655 90.0816 79.332 90.7365L79.6004 91.1001C79.6353 91.1529 79.6587 91.1677 79.6939 91.2187L79.87 91.4631C79.9846 91.6341 80.0884 91.7933 80.2024 91.965L81.061 93.4646C81.0864 93.5171 81.0767 93.477 81.0905 93.5404C81.1273 93.5798 81.1521 93.6407 81.1788 93.6928C81.5731 94.4614 81.7969 95.0527 82.1198 95.8333L82.2445 96.1751C82.3042 96.2605 82.6028 97.2142 82.6415 97.3487C82.6553 97.3965 82.6697 97.426 82.6835 97.4737C82.882 98.1633 82.9919 98.6996 83.1142 99.4247C83.255 100.262 83.2811 101.016 83.2786 101.872C83.2589 105.168 82.8683 106.78 82.2887 107.878H77.6995Z" fill="url(#paint2_linear_269_2215)"/>
<path fill-rule="evenodd" clip-rule="evenodd" d="M84.0359 104.162C84.097 104.175 84.2965 104.062 84.351 104.03L85.348 103.355C85.6724 103.089 85.9628 102.821 86.2416 102.503C86.4703 102.242 86.4948 102.193 86.6896 101.943C87.1278 101.38 87.5642 100.428 87.7061 99.7267C87.8956 98.7901 87.8908 98.1726 87.7264 97.2682C87.7139 97.199 87.6955 97.0782 87.664 97.0315C87.601 96.9384 87.5428 96.9668 87.4528 96.9995L86.9004 97.2349C86.3861 97.4926 86.2563 97.5868 85.8125 97.9195C85.6833 98.0163 85.5807 98.1162 85.4591 98.2245C85.3993 98.2778 85.3463 98.332 85.2907 98.3894C85.1047 98.5813 84.9751 98.7389 84.8172 98.953C84.1105 99.9108 83.7486 101.156 83.7652 102.383C83.7741 103.041 83.8185 103.389 83.9267 104.026C83.9378 104.092 83.96 104.147 84.0359 104.162Z" fill="url(#paint3_linear_269_2215)"/>
<path fill-rule="evenodd" clip-rule="evenodd" d="M76.4258 95.9911C76.1544 95.9663 75.578 96.0804 75.3288 96.1478C75.0332 96.2277 74.7443 96.3301 74.4679 96.4627C74.292 96.5471 74.4236 96.7397 74.5304 96.923C74.6346 97.1015 74.8141 97.422 74.9342 97.572C75.3635 98.1083 75.6826 98.5277 76.3033 98.9421C76.6812 99.1943 76.902 99.313 77.3351 99.4801C78.0075 99.7397 79.0198 99.8204 79.7346 99.6678C79.738 99.6671 79.7661 99.6597 79.7685 99.6589C79.8007 99.648 79.7814 99.6566 79.7964 99.6464C79.8747 99.6475 79.9652 99.6251 80.0409 99.6067L80.7078 99.4184C80.7869 99.3932 81.2821 99.2181 81.332 99.1645C81.4004 99.091 81.359 99.007 81.3203 98.9478C80.9377 98.3615 80.6742 98.081 80.168 97.5867L79.6427 97.1434C79.0439 96.7176 78.3269 96.2716 77.5937 96.1271C77.3019 96.0696 76.712 95.9482 76.4258 95.9911Z" fill="url(#paint4_linear_269_2215)"/>
<path fill-rule="evenodd" clip-rule="evenodd" d="M65.0159 81.4556C65.0153 81.3822 64.9171 81.2605 64.8754 81.1976C64.8166 81.1089 64.7737 81.0331 64.7026 80.9509C64.5354 80.7575 64.5564 80.7408 64.2993 80.4822C63.9389 80.1197 63.3716 79.735 62.8616 79.6161C62.3748 79.5027 62.1963 79.487 61.6955 79.5142C61.4032 79.53 60.7325 79.6763 60.4323 79.8089C60.2907 79.8714 60.3592 79.9832 60.4088 80.0764L60.9908 80.9683C61.8645 81.995 62.9533 82.7355 64.4648 82.5301C64.7016 82.4988 64.7484 82.4768 64.943 82.4408C65.0276 82.4251 65.0786 82.4003 65.1644 82.3766C65.2206 82.3611 65.3398 82.3298 65.3685 82.2839C65.4103 82.2174 65.3528 82.121 65.3291 82.0635C65.2971 81.986 65.2723 81.934 65.2402 81.8584L65.0889 81.5562C65.058 81.4947 65.0769 81.5002 65.0159 81.4556Z" fill="url(#paint5_linear_269_2215)"/>
<path fill-rule="evenodd" clip-rule="evenodd" d="M75.9833 103.819C76.1111 103.962 76.7435 104.247 76.9503 104.334C77.2283 104.45 77.331 104.45 77.5437 104.524C77.6368 104.556 77.7476 104.577 77.8667 104.601L78.4886 104.68C78.6013 104.688 78.6817 104.695 78.7923 104.698C79.5613 104.714 80.1999 104.592 80.9143 104.399C81.0808 104.354 81.2391 104.302 81.3972 104.247C81.7078 104.14 81.4621 103.938 81.2837 103.668C81.2079 103.552 80.9183 103.223 80.8136 103.104C80.7002 102.976 80.5889 102.872 80.4657 102.752C80.2232 102.515 79.9691 102.305 79.6895 102.097C79.6109 102.025 79.3195 101.834 79.2088 101.766L78.6745 101.457C78.5331 101.397 78.401 101.329 78.2514 101.262C78.1271 101.206 77.9161 101.12 77.7757 101.091C77.7499 101.067 77.7251 101.066 77.6833 101.055C77.3541 100.964 77.3365 100.94 76.9339 100.87C76.6798 100.827 76.3591 100.812 76.098 100.804C75.7483 100.794 75.3275 100.851 74.9885 100.912C74.9234 100.923 74.8847 100.933 74.8194 100.95C74.3792 101.063 74.4278 101.054 73.9996 101.201C73.7511 101.287 73.8762 101.424 74.0548 101.754L74.4189 102.304C74.4668 102.37 74.7549 102.779 74.8388 102.819C74.8622 102.88 75.1876 103.209 75.2648 103.261C75.3025 103.323 75.8754 103.787 75.9833 103.819Z" fill="url(#paint6_linear_269_2215)"/>
<path fill-rule="evenodd" clip-rule="evenodd" d="M58.1537 86.8651C58.3825 86.9114 58.7447 86.8609 58.9518 86.8326C59.3316 86.7808 59.7781 86.6442 60.1214 86.4806C60.175 86.455 60.2268 86.434 60.2796 86.4048C60.5221 86.2708 60.7015 86.1654 60.9183 85.9856C60.9436 85.9647 60.9578 85.9576 60.9832 85.9367L61.3572 85.579C61.7593 85.1556 62.1122 84.4771 62.2777 83.9093C62.2985 83.8377 62.3978 83.5373 62.3924 83.4696C62.3821 83.3397 62.2085 83.3445 62.0505 83.3364C61.9057 83.329 61.7647 83.3199 61.6395 83.3242C61.0592 83.344 60.593 83.4552 60.0793 83.7157C60.018 83.7468 59.9842 83.7737 59.9284 83.8024L59.7111 83.9357C59.6764 83.9621 59.675 83.97 59.6402 83.9962C58.7524 84.6637 58.307 85.6947 58.0897 86.7687C58.0821 86.8061 58.1163 86.8575 58.1537 86.8651Z" fill="url(#paint7_linear_269_2215)"/>
<path fill-rule="evenodd" clip-rule="evenodd" d="M76.8873 86.3257C77.0772 87.262 77.6512 88.1907 78.4063 88.7806C78.6279 88.9537 78.6211 88.978 78.7675 88.7039C78.9399 88.381 79.0832 87.9679 79.1968 87.6129C79.2296 87.5105 79.335 87.0617 79.3398 86.9665C79.3477 86.8043 79.3971 86.5736 79.4039 86.3543C79.4105 86.1436 79.4062 85.9774 79.3975 85.775C79.3807 85.3842 79.266 84.871 79.1292 84.5082C79.0751 84.3647 78.8882 83.9189 78.8057 83.8447C78.7897 83.7601 78.7313 83.6968 78.6826 83.6235C78.6326 83.5481 78.5918 83.4869 78.5419 83.4113C78.4438 83.263 78.3361 83.1463 78.2276 83.0042C78.1944 82.9722 78.17 82.9408 78.1361 82.9026C77.9378 82.6789 77.7133 82.4828 77.4929 82.2873C77.4404 82.2408 77.4249 82.229 77.3357 82.211C77.2936 82.2528 77.2993 82.2276 77.2629 82.2896C77.2417 82.3255 77.2278 82.3644 77.2131 82.4032L77.043 82.9006C76.9337 83.2461 76.9116 83.4049 76.8373 83.7642C76.8145 83.8744 76.8209 83.924 76.7981 84.0403C76.7843 84.111 76.7906 84.1238 76.7855 84.1738C76.7825 84.2023 76.7752 84.2262 76.7724 84.252C76.767 84.3014 76.7699 84.2386 76.7702 84.2803C76.7705 84.3238 76.7655 84.2926 76.7765 84.3146C76.7399 84.4952 76.7388 84.6912 76.7375 84.8585C76.7342 85.2865 76.754 85.6806 76.8351 86.0997C76.8476 86.1644 76.8651 86.2651 76.8873 86.3257Z" fill="url(#paint8_linear_269_2215)"/>
<path fill-rule="evenodd" clip-rule="evenodd" d="M82.5163 86.5737C82.5065 86.5099 82.4125 86.4048 82.3802 86.3384L81.973 85.7471C81.9333 85.701 81.908 85.6644 81.8439 85.6738C81.6891 85.6962 81.2225 86.6076 81.1656 86.7273C81.0706 86.9279 80.9766 87.1317 80.8951 87.3455C80.7689 87.6762 80.4882 88.4963 80.4755 88.7828C80.4697 88.9121 80.4161 89.0443 80.4077 89.1752C80.3928 89.4069 80.3547 89.6288 80.3509 89.8936C80.3463 90.2215 80.3579 90.5862 80.4078 90.8978C80.4854 91.3822 80.5507 91.6264 80.7207 92.0795C80.7559 92.1731 80.7874 92.2517 80.8291 92.341L81.0255 92.7248C81.0583 92.777 81.0645 92.8049 81.0987 92.8568C81.1847 92.9881 81.2118 93.0514 81.2965 93.1562C81.4216 93.3112 81.5823 93.6747 81.7418 93.5639C81.8002 93.5234 81.9741 93.2912 82.0396 93.2228C82.0852 93.1599 82.1237 93.1037 82.1716 93.0389C82.241 92.9449 82.5259 92.523 82.5485 92.4358L82.6906 92.1878C82.7379 92.0961 82.7782 92.0136 82.8206 91.9231C82.9013 91.7514 82.9885 91.536 83.0506 91.3485C83.3126 90.5581 83.3999 89.9118 83.3397 89.0917L83.2634 88.5311C83.2016 88.1933 83.1774 88.1627 83.0992 87.8758C83.0816 87.811 83.0775 87.795 83.0482 87.7428C83.0462 87.6789 83.0231 87.65 83.0021 87.5929C82.9794 87.5315 82.9652 87.4922 82.9428 87.4377C82.8307 87.1645 82.6754 86.8219 82.5163 86.5737Z" fill="url(#paint9_linear_269_2215)"/>
<path fill-rule="evenodd" clip-rule="evenodd" d="M73.1485 90.2499C73.4892 90.3189 73.881 90.3053 74.1534 90.2716C74.4892 90.2301 74.7043 90.1895 75.0312 90.0662C75.1937 90.0049 75.4454 89.89 75.6039 89.7987L75.9511 89.5681C76.002 89.5341 76.0935 89.5004 76.0849 89.4188C76.0766 89.34 75.8757 89.1433 75.8152 89.0822C75.2239 88.4856 74.2367 87.8308 73.3354 87.6986C73.1022 87.6644 72.4512 87.6151 72.3139 87.6757C72.2256 87.664 72.038 87.7037 71.9593 87.7183C71.8447 87.7395 71.7355 87.7675 71.6228 87.7976C71.5018 87.8298 71.084 87.9693 71.0121 88.0304C70.9176 88.0372 70.3699 88.3526 70.2708 88.419C70.2183 88.4543 70.1794 88.4808 70.126 88.5149C69.9839 88.6059 69.9759 88.6619 70.1193 88.7906C70.374 89.019 70.9791 89.4829 71.3113 89.6276C71.3711 89.6772 71.613 89.7815 71.7031 89.8237C71.8416 89.8886 71.981 89.9482 72.1406 90.0057C72.2922 90.0603 72.9858 90.2851 73.1485 90.2499Z" fill="url(#paint10_linear_269_2215)"/>
<path fill-rule="evenodd" clip-rule="evenodd" d="M50.47 88.5177C50.6002 88.5441 50.9168 88.495 51.0376 88.4729C51.2214 88.4393 51.3877 88.3898 51.5548 88.3312C52.0864 88.1446 52.6654 87.7574 52.9987 87.3037C53.3294 86.8535 53.5161 86.4238 53.6419 85.8021C53.6704 85.6608 53.6738 85.5728 53.6977 85.4455C53.7409 85.2163 53.5908 85.2236 53.2276 85.2405C52.4883 85.2748 51.7408 85.5367 51.2514 86.1148C50.7181 86.7445 50.5276 87.4292 50.4238 88.2566C50.4132 88.3411 50.3833 88.5002 50.47 88.5177Z" fill="url(#paint11_linear_269_2215)"/>
<path fill-rule="evenodd" clip-rule="evenodd" d="M74.857 82.9625C74.8623 82.891 74.6997 82.5921 74.6557 82.5165C74.3496 81.9918 73.9716 81.5144 73.4612 81.1696C73.393 81.1235 73.2314 80.9961 73.1564 80.989C73.0935 80.8951 72.5817 80.6824 72.4927 80.6451C72.2539 80.5455 71.9599 80.4593 71.6864 80.3876C71.4565 80.3274 71.5279 80.8266 71.5386 81.0419L71.6261 81.7831C71.646 81.8234 71.6542 81.9014 71.6646 81.9586C71.7076 82.196 71.8542 82.7546 71.9426 82.971C72.0426 83.2157 72.1078 83.4207 72.242 83.6733L72.5007 84.1269C72.5358 84.1797 72.5616 84.2186 72.5967 84.2716C72.6744 84.3889 72.6547 84.3975 72.7159 84.4051C72.7288 84.46 72.7172 84.4295 72.7463 84.4786C72.7877 84.5483 73.0388 84.8202 73.092 84.8738C73.1987 84.9811 73.4387 85.2036 73.5748 85.2781C73.6834 85.4002 74.1738 85.6354 74.3465 85.7086C74.5074 85.7766 74.6402 85.8156 74.8262 85.8627C74.9845 85.9028 75.1931 86.0142 75.2252 85.8179C75.2995 85.3623 75.2706 84.648 75.2017 84.1826C75.195 84.1373 75.1898 84.0161 75.1556 83.9869C75.1732 83.8584 74.9356 83.0358 74.857 82.9625Z" fill="url(#paint12_linear_269_2215)"/>
<path fill-rule="evenodd" clip-rule="evenodd" d="M56.8429 84.1778C56.5613 84.2506 56.6034 84.2128 56.2672 84.3356C55.2478 84.7078 54.6136 85.55 54.3911 86.6383C54.345 86.8635 54.2702 87.7359 54.3196 87.9501C54.3343 88.014 54.3627 88.0422 54.4305 88.0407C54.5212 88.0389 54.8696 87.9299 54.951 87.901L55.3515 87.7299C55.496 87.6618 55.6033 87.5863 55.7367 87.5146L55.9724 87.3464C56.0899 87.2575 56.3147 87.0511 56.4 86.9445L56.612 86.6981C56.6788 86.6127 56.7413 86.5132 56.7982 86.4133C57.1963 85.7159 57.3058 85.1049 57.3041 84.3167C57.3038 84.1949 57.3027 84.2329 57.2672 84.1467C57.1393 84.1208 56.9413 84.1535 56.8429 84.1778Z" fill="url(#paint13_linear_269_2215)"/>
<path fill-rule="evenodd" clip-rule="evenodd" d="M58.4073 82.6573C58.8274 82.7423 59.0917 82.7179 59.43 82.6744C59.7496 82.6333 59.9033 82.5677 60.173 82.4751C60.3272 82.4222 60.2885 82.3527 60.2338 82.2345C60.0918 81.9277 59.9372 81.6177 59.7173 81.3547L59.5446 81.1359C58.6051 80.0834 57.4626 79.8113 56.1383 80.2676C56.0728 80.2903 55.8195 80.3768 55.7841 80.405C55.6833 80.485 55.8019 80.6037 55.8714 80.7386C55.9223 80.8373 55.9977 80.973 56.0734 81.0492C56.4968 81.601 56.9408 82.0802 57.605 82.3948C57.9264 82.547 58.0506 82.5851 58.4073 82.6573Z" fill="url(#paint14_linear_269_2215)"/>
<path fill-rule="evenodd" clip-rule="evenodd" d="M68.9098 87.6548C69.303 87.6169 69.1961 87.6619 69.6677 87.572C70.0301 87.5029 70.2234 87.3823 70.36 87.347C70.4831 87.2589 70.7287 87.1904 71.0861 86.8831C71.2004 86.7849 71.3054 86.6982 71.405 86.5887C71.5055 86.4782 71.7725 86.186 71.8327 86.061C71.8707 85.9821 71.8105 85.923 71.7475 85.8765C71.6173 85.7808 71.5031 85.6927 71.3557 85.6085C71.1045 85.4649 70.7177 85.2478 70.4258 85.1888C70.3254 85.1236 69.8658 85.053 69.7418 85.0452C69.4216 85.0253 69.4468 85.0251 69.132 85.0474C68.2906 85.107 67.4367 85.6727 66.8845 86.2665C66.8189 86.337 66.772 86.3899 66.7092 86.4631C66.6509 86.5309 66.589 86.5874 66.5458 86.6671C66.4867 86.7283 66.3643 86.8549 66.4565 86.9416C66.5931 87.0698 67.1796 87.3147 67.3786 87.3858C67.6319 87.4765 67.8527 87.5243 68.1476 87.5841C68.5822 87.6723 68.6913 87.6261 68.9098 87.6548Z" fill="url(#paint15_linear_269_2215)"/>
<path fill-rule="evenodd" clip-rule="evenodd" d="M86.5653 94.5478C86.6621 94.4331 86.762 93.2469 86.7305 93.1533C86.7483 93.0552 86.7327 92.9135 86.7284 92.8172C86.7258 92.7601 86.7226 92.5459 86.6966 92.49C86.7275 92.2784 86.4965 91.2702 86.4407 91.063L86.3459 90.737C86.2888 90.5415 86.1698 90.6093 86.0755 90.6731C85.9082 90.7863 85.6789 90.9435 85.5422 91.0871C85.409 91.1507 84.8639 91.7533 84.7332 91.8955L84.4375 92.2666C84.3913 92.3317 84.3283 92.39 84.2896 92.4707C84.1479 92.6314 83.9007 93.0635 83.7967 93.2657C83.6968 93.4599 83.5739 93.6691 83.5046 93.882C83.48 93.9167 83.429 94.0708 83.4074 94.1272C83.3741 94.2145 83.3495 94.3017 83.3132 94.404C83.2442 94.5984 83.2063 94.8032 83.1616 95.0241C83.0169 95.7394 83.0075 96.4547 83.1333 97.1333C83.161 97.2827 83.3505 98.1557 83.4449 98.2334C83.5305 98.3039 83.6621 98.2171 83.7599 98.1556C83.9369 98.0442 84.0374 98.0031 84.2198 97.8645C84.3211 97.7875 84.4505 97.716 84.5767 97.6067C85.127 97.1306 85.5365 96.7534 85.9301 96.0868C86.0166 95.9403 86.0946 95.8059 86.171 95.6541C86.2255 95.5461 86.3466 95.2984 86.3716 95.1747C86.4368 95.0835 86.5343 94.7009 86.5653 94.5478Z" fill="url(#paint16_linear_269_2215)"/>
<path fill-rule="evenodd" clip-rule="evenodd" d="M68.3325 83.1451C68.3681 83.1919 68.5948 83.2823 68.6496 83.3055C68.8745 83.4004 69.247 83.5075 69.4822 83.5236L69.7874 83.5438C69.8853 83.5318 69.8446 83.4979 69.8656 83.4935C69.8913 83.4881 69.8932 83.3689 69.8931 83.3559C69.8883 82.1918 69.457 80.8691 68.5852 80.0695C68.4426 79.9388 68.023 79.6086 67.856 79.5576C67.7297 79.4744 67.2946 79.2938 67.1029 79.255C66.8121 79.1961 66.8876 79.1766 66.467 79.1253C66.3685 79.1134 66.2133 79.0684 66.0889 79.0999C66.0277 79.2337 66.0745 79.4332 66.0991 79.5793C66.2051 80.2092 66.5028 81.0915 66.8455 81.6543C66.9122 81.7637 67.2675 82.2983 67.3461 82.3442C67.4181 82.4583 67.6706 82.6933 67.7821 82.7834C67.8861 82.8674 68.1907 83.1055 68.3325 83.1451Z" fill="url(#paint17_linear_269_2215)"/>
<path fill-rule="evenodd" clip-rule="evenodd" d="M75.5761 94.1819C75.759 94.3298 76.3575 94.5438 76.6055 94.6289C76.6975 94.6605 76.899 94.7168 77.007 94.7386C77.3098 94.7999 77.7384 94.8362 78.0312 94.8181L78.3548 94.7942C78.3588 94.7927 78.9221 94.7082 79.2932 94.5634L79.7261 94.378C79.7794 94.3533 79.8149 94.3307 79.8152 94.2638C79.8156 94.1845 79.7148 94.0438 79.6822 93.977L79.4452 93.5924C79.3438 93.473 79.2597 93.3268 79.1258 93.1653C79.1049 93.14 79.0977 93.1258 79.0768 93.1005C79.0398 93.0555 79.011 93.0211 78.9708 92.9764C78.8987 92.8965 78.8443 92.829 78.768 92.7496C78.5594 92.5322 78.4121 92.4087 78.1898 92.2164C78.096 92.1352 77.5896 91.7861 77.4817 91.7612C77.369 91.6666 76.9785 91.5133 76.8014 91.4565C76.5025 91.3606 76.4739 91.3584 76.1818 91.2975C76.0855 91.2775 76.0416 91.2844 75.9684 91.2713C75.6392 91.2047 74.9765 91.245 74.6349 91.3108L74.5534 91.3394C74.3802 91.3031 73.4523 91.6393 73.2273 91.7442C73.1774 91.7675 73.137 91.7934 73.1339 91.8613C73.1302 91.9429 73.3948 92.2921 73.46 92.3674C73.864 92.8331 74.2316 93.2687 74.7597 93.6446C74.921 93.7595 75.4129 94.132 75.5761 94.1819Z" fill="url(#paint18_linear_269_2215)"/>
<path fill-rule="evenodd" clip-rule="evenodd" d="M56.2171 82.8322C56.143 82.7636 56.0582 82.7175 55.9695 82.6601C55.7305 82.5055 55.4759 82.4008 55.2091 82.3032C55.1401 82.278 55.0825 82.2741 55.0138 82.2522C54.5895 82.1168 54.0727 82.1517 53.6678 82.2607C53.2016 82.3862 52.887 82.5941 52.528 82.8671C52.4867 82.8984 52.4523 82.9326 52.4137 82.9671C52.2625 83.1018 51.8638 83.4442 51.8228 83.6468C51.8851 83.7097 52.1312 83.8832 52.2335 83.9137C52.3062 83.9822 52.7216 84.1476 52.8041 84.1767C53.4457 84.4037 54.082 84.4561 54.7421 84.2988C54.9193 84.2565 55.1011 84.1838 55.2559 84.11C55.4897 83.9987 55.7376 83.8533 55.9335 83.6865C56.1693 83.4858 56.2201 83.4332 56.426 83.2142C56.4747 83.1625 56.4805 83.1643 56.499 83.073C56.419 82.9923 56.3261 82.8853 56.2171 82.8322Z" fill="url(#paint19_linear_269_2215)"/>
<path fill-rule="evenodd" clip-rule="evenodd" d="M64.4747 86.6908C64.5375 86.6665 64.6207 86.6489 64.6939 86.6294C65.3082 86.4655 66.0116 86.0145 66.4131 85.5353C66.6454 85.258 67.1267 84.6221 67.2014 84.2525C67.1167 84.167 67.1654 84.1922 66.9932 84.1267C66.6719 84.0045 66.4983 83.9766 66.1414 83.9044C65.759 83.8271 65.1899 83.8635 64.9078 83.9389C64.6725 83.9486 64.252 84.1601 64.0314 84.2697C63.8797 84.3449 63.5468 84.5974 63.415 84.7226C63.1696 84.9555 63.102 85.0393 62.8815 85.3214C62.7434 85.4981 62.211 86.3793 62.2277 86.524C62.2459 86.6812 62.8643 86.7406 62.9553 86.752C63.2545 86.7891 63.4534 86.7955 63.7152 86.7876C63.9658 86.7805 64.251 86.7417 64.4747 86.6908Z" fill="url(#paint20_linear_269_2215)"/>
<path d="M139.544 101.681H132.137V123.057C132.111 123.088 132.093 123.13 132.09 123.179L131.984 125.867H131.01C130.388 125.867 129.883 125.362 129.883 124.74L129.861 99.0394C129.861 98.7094 130.118 98.6905 130.344 98.4845C130.544 98.3021 130.718 99.4271 131.01 99.4271H140.671C141.293 99.4271 141.798 99.9317 141.798 100.554V124.74C141.798 125.362 141.293 125.867 140.671 125.867H139.547L139.544 123.613V123.413V122.984V101.681Z" fill="#372011"/>
<path d="M129.948 100.978C129.893 100.851 129.861 100.705 129.861 100.538V96.5844C129.861 96.3746 129.893 96.2005 129.952 96.0698C130.004 95.9551 130.079 95.8563 130.182 95.7736C130.328 95.6625 130.474 95.5798 130.62 95.5281C130.763 95.4764 130.913 95.453 131.071 95.453C131.229 95.453 131.38 95.4764 131.518 95.5281C131.669 95.5798 131.811 95.6625 131.953 95.7696C132.044 95.8487 132.112 95.9393 132.155 96.0464C132.214 96.1885 132.242 96.3664 132.242 96.5844V98.4387V99.368H133.172L141.587 99.3212H142.517V98.3919V93.1431V92.2138H141.587H127.611H126.681V93.1431V97.5887C126.681 97.8182 126.654 98.0044 126.59 98.1427C126.547 98.2535 126.48 98.3402 126.388 98.4079L126.373 98.4116C126.234 98.522 126.092 98.6017 125.945 98.6527C125.803 98.7004 125.649 98.7241 125.487 98.7241C125.332 98.7241 125.186 98.7004 125.048 98.6527C124.905 98.6017 124.763 98.522 124.624 98.4116L124.609 98.4079C124.415 98.2612 124.316 97.9884 124.316 97.5887V91.0427C124.316 90.8649 124.344 90.7105 124.395 90.5761C124.45 90.4455 124.534 90.3149 124.648 90.1885V90.1924C124.779 90.0617 124.909 89.9712 125.04 89.9156C125.166 89.8603 125.317 89.8323 125.487 89.8323H143.688C143.857 89.8323 144.012 89.8603 144.146 89.9196C144.285 89.975 144.415 90.0661 144.534 90.1848C144.66 90.3109 144.752 90.4455 144.811 90.5921C144.87 90.7265 144.898 90.877 144.898 91.0427V100.492C144.898 100.666 144.87 100.812 144.815 100.943C144.759 101.074 144.668 101.204 144.538 101.331L144.542 101.335C144.411 101.461 144.277 101.556 144.134 101.615C144.004 101.671 143.854 101.702 143.688 101.702L131.032 101.749C130.893 101.749 130.759 101.722 130.636 101.666C130.498 101.607 130.363 101.508 130.233 101.377C130.102 101.247 130.007 101.112 129.948 100.978Z" fill="#372011"/>
<defs>
<linearGradient id="paint0_linear_269_2215" x1="14.96" y1="6.11999" x2="163.49" y2="191.662" gradientUnits="userSpaceOnUse">
<stop stop-color="#F0DB92"/>
<stop offset="1" stop-color="#BF9033"/>
</linearGradient>
<radialGradient id="paint1_radial_269_2215" cx="0" cy="0" r="1" gradientUnits="userSpaceOnUse" gradientTransform="translate(172.72 163.2) rotate(-143.271) scale(330.889 338.622)">
<stop stop-color="#F4EBCC"/>
<stop offset="1" stop-color="white"/>
</radialGradient>
<linearGradient id="paint2_linear_269_2215" x1="59.0062" y1="87.7581" x2="80.5261" y2="102.994" gradientUnits="userSpaceOnUse">
<stop stop-color="#F0DB92"/>
<stop offset="1" stop-color="#BF9033"/>
</linearGradient>
<linearGradient id="paint3_linear_269_2215" x1="84.1807" y1="98.3736" x2="88.4702" y2="99.9686" gradientUnits="userSpaceOnUse">
<stop stop-color="#F0DB92"/>
<stop offset="1" stop-color="#BF9033"/>
</linearGradient>
<linearGradient id="paint4_linear_269_2215" x1="75.0936" y1="96.717" x2="78.4622" y2="100.814" gradientUnits="userSpaceOnUse">
<stop stop-color="#F0DB92"/>
<stop offset="1" stop-color="#BF9033"/>
</linearGradient>
<linearGradient id="paint5_linear_269_2215" x1="59.3501" y1="77.0997" x2="61.5691" y2="83.5648" gradientUnits="userSpaceOnUse">
<stop stop-color="#F0DB92"/>
<stop offset="1" stop-color="#BF9033"/>
</linearGradient>
<linearGradient id="paint6_linear_269_2215" x1="72.3374" y1="97.7454" x2="74.7695" y2="106.245" gradientUnits="userSpaceOnUse">
<stop stop-color="#F0DB92"/>
<stop offset="1" stop-color="#BF9033"/>
</linearGradient>
<linearGradient id="paint7_linear_269_2215" x1="58.527" y1="84.0185" x2="61.6897" y2="86.5225" gradientUnits="userSpaceOnUse">
<stop stop-color="#F0DB92"/>
<stop offset="1" stop-color="#BF9033"/>
</linearGradient>
<linearGradient id="paint8_linear_269_2215" x1="77.0091" y1="83.5195" x2="79.9973" y2="84.2996" gradientUnits="userSpaceOnUse">
<stop stop-color="#F0DB92"/>
<stop offset="1" stop-color="#BF9033"/>
</linearGradient>
<linearGradient id="paint9_linear_269_2215" x1="80.6564" y1="87.2177" x2="84.0422" y2="88.0608" gradientUnits="userSpaceOnUse">
<stop stop-color="#F0DB92"/>
<stop offset="1" stop-color="#BF9033"/>
</linearGradient>
<linearGradient id="paint10_linear_269_2215" x1="68.8127" y1="85.5656" x2="70.2681" y2="91.4666" gradientUnits="userSpaceOnUse">
<stop stop-color="#F0DB92"/>
<stop offset="1" stop-color="#BF9033"/>
</linearGradient>
<linearGradient id="paint11_linear_269_2215" x1="50.7457" y1="85.8761" x2="53.5006" y2="87.682" gradientUnits="userSpaceOnUse">
<stop stop-color="#F0DB92"/>
<stop offset="1" stop-color="#BF9033"/>
</linearGradient>
<linearGradient id="paint12_linear_269_2215" x1="71.9016" y1="81.4662" x2="75.6492" y2="83.125" gradientUnits="userSpaceOnUse">
<stop stop-color="#F0DB92"/>
<stop offset="1" stop-color="#BF9033"/>
</linearGradient>
<linearGradient id="paint13_linear_269_2215" x1="54.609" y1="84.8996" x2="57.4707" y2="86.3406" gradientUnits="userSpaceOnUse">
<stop stop-color="#F0DB92"/>
<stop offset="1" stop-color="#BF9033"/>
</linearGradient>
<linearGradient id="paint14_linear_269_2215" x1="54.8461" y1="77.9678" x2="56.7179" y2="83.6251" gradientUnits="userSpaceOnUse">
<stop stop-color="#F0DB92"/>
<stop offset="1" stop-color="#BF9033"/>
</linearGradient>
<linearGradient id="paint15_linear_269_2215" x1="66.9754" y1="85.543" x2="69.2647" y2="88.6407" gradientUnits="userSpaceOnUse">
<stop stop-color="#F0DB92"/>
<stop offset="1" stop-color="#BF9033"/>
</linearGradient>
<linearGradient id="paint16_linear_269_2215" x1="83.4217" y1="92.1023" x2="87.4356" y2="93.3713" gradientUnits="userSpaceOnUse">
<stop stop-color="#F0DB92"/>
<stop offset="1" stop-color="#BF9033"/>
</linearGradient>
<linearGradient id="paint17_linear_269_2215" x1="66.4493" y1="79.959" x2="69.9275" y2="81.92" gradientUnits="userSpaceOnUse">
<stop stop-color="#F0DB92"/>
<stop offset="1" stop-color="#BF9033"/>
</linearGradient>
<linearGradient id="paint18_linear_269_2215" x1="71.81" y1="88.4231" x2="74.1582" y2="96.1748" gradientUnits="userSpaceOnUse">
<stop stop-color="#F0DB92"/>
<stop offset="1" stop-color="#BF9033"/>
</linearGradient>
<linearGradient id="paint19_linear_269_2215" x1="52.2991" y1="82.5987" x2="54.2301" y2="85.2569" gradientUnits="userSpaceOnUse">
<stop stop-color="#F0DB92"/>
<stop offset="1" stop-color="#BF9033"/>
</linearGradient>
<linearGradient id="paint20_linear_269_2215" x1="62.7339" y1="84.4335" x2="65.3918" y2="87.3899" gradientUnits="userSpaceOnUse">
<stop stop-color="#F0DB92"/>
<stop offset="1" stop-color="#BF9033"/>
</linearGradient>
</defs>
</svg>
