<svg width="19" height="18" viewBox="0 0 19 18" fill="none" xmlns="http://www.w3.org/2000/svg">
<path fill-rule="evenodd" clip-rule="evenodd" d="M0.714295 1.50382C0.714295 1.10498 0.872732 0.722481 1.15475 0.44046C1.43677 0.158439 1.81928 2.0048e-06 2.21811 2.0048e-06H17.2088C17.4065 -0.00032081 17.6023 0.0383444 17.785 0.113784C17.9676 0.189223 18.1337 0.299955 18.2735 0.439641C18.4133 0.579326 18.5242 0.745221 18.5999 0.927828C18.6755 1.11044 18.7144 1.30617 18.7143 1.50382V16.4945C18.7145 16.6922 18.6757 16.888 18.6002 17.0707C18.5247 17.2534 18.4139 17.4194 18.2741 17.5593C18.1344 17.6991 17.9684 17.81 17.7858 17.8856C17.6031 17.9612 17.4073 18.0001 17.2097 18H2.21811C2.02056 18 1.82494 17.9611 1.64244 17.8855C1.45993 17.8098 1.29412 17.699 1.15446 17.5593C1.01481 17.4195 0.904057 17.2536 0.828531 17.0711C0.753005 16.8886 0.714187 16.6929 0.714295 16.4954V1.50382ZM7.83902 6.86291H10.2764V8.08691C10.6282 7.38327 11.5282 6.75 12.8807 6.75C15.4735 6.75 16.0879 8.15155 16.0879 10.7231V15.4865H13.464V11.3089C13.464 9.84437 13.1122 9.018 12.2187 9.018C10.9792 9.018 10.4637 9.909 10.4637 11.3089V15.4865H7.83902V6.86291ZM3.33902 15.3745H5.96375V6.75H3.33902V15.3736V15.3745ZM6.33929 3.93709C6.34424 4.16182 6.30425 4.38528 6.22167 4.59435C6.13909 4.80342 6.01558 4.99389 5.85839 5.15457C5.7012 5.31526 5.5135 5.44293 5.3063 5.5301C5.0991 5.61726 4.87658 5.66216 4.65179 5.66216C4.42701 5.66216 4.20448 5.61726 3.99729 5.5301C3.79009 5.44293 3.60238 5.31526 3.4452 5.15457C3.28801 4.99389 3.1645 4.80342 3.08192 4.59435C2.99934 4.38528 2.95935 4.16182 2.96429 3.93709C2.97401 3.49597 3.15606 3.07619 3.47147 2.76765C3.78688 2.45911 4.21057 2.28634 4.65179 2.28634C5.09302 2.28634 5.51671 2.45911 5.83211 2.76765C6.14752 3.07619 6.32958 3.49597 6.33929 3.93709Z" fill="#E6A371"/>
</svg>
