<svg width="19" height="18" viewBox="0 0 19 18" fill="none" xmlns="http://www.w3.org/2000/svg">
<path fill-rule="evenodd" clip-rule="evenodd" d="M5.71813 0.054C6.67786 0.00981817 6.98386 0 9.42859 0C11.8733 0 12.1793 0.0106364 13.1382 0.054C14.0971 0.0973636 14.7517 0.250364 15.3244 0.472091C15.9241 0.698727 16.4682 1.053 16.9182 1.51118C17.3764 1.96036 17.7299 2.50364 17.9557 3.10418C18.1782 3.67691 18.3304 4.33145 18.3746 5.28873C18.4188 6.25009 18.4286 6.55609 18.4286 9C18.4286 11.4447 18.418 11.7507 18.3746 12.7105C18.3312 13.6677 18.1782 14.3223 17.9557 14.895C17.7299 15.4956 17.3758 16.0398 16.9182 16.4896C16.4682 16.9478 15.9241 17.3013 15.3244 17.5271C14.7517 17.7496 14.0971 17.9018 13.1399 17.946C12.1793 17.9902 11.8733 18 9.42859 18C6.98386 18 6.67786 17.9894 5.71813 17.946C4.76086 17.9026 4.10632 17.7496 3.53359 17.5271C2.93298 17.3012 2.38881 16.9472 1.93895 16.4896C1.48108 16.0402 1.12676 15.4963 0.90068 14.8958C0.678953 14.3231 0.526771 13.6685 0.482589 12.7113C0.438407 11.7499 0.428589 11.4439 0.428589 9C0.428589 6.55527 0.439225 6.24927 0.482589 5.29036C0.525952 4.33145 0.678953 3.67691 0.90068 3.10418C1.12709 2.5037 1.48169 1.9598 1.93977 1.51036C2.38899 1.05259 2.93261 0.698272 3.53277 0.472091C4.1055 0.250364 4.76004 0.0981818 5.71732 0.054H5.71813ZM13.0654 1.674C12.1163 1.63064 11.8316 1.62164 9.42859 1.62164C7.02559 1.62164 6.74086 1.63064 5.79177 1.674C4.91386 1.71409 4.43768 1.86055 4.12023 1.98409C3.7005 2.14773 3.40023 2.34164 3.08523 2.65664C2.78663 2.94713 2.55683 3.30078 2.41268 3.69164C2.28913 4.00909 2.14268 4.48527 2.10259 5.36318C2.05923 6.31227 2.05023 6.597 2.05023 9C2.05023 11.403 2.05923 11.6877 2.10259 12.6368C2.14268 13.5147 2.28913 13.9909 2.41268 14.3084C2.55668 14.6986 2.78659 15.0529 3.08523 15.3434C3.37568 15.642 3.72995 15.8719 4.12023 16.0159C4.43768 16.1395 4.91386 16.2859 5.79177 16.326C6.74086 16.3694 7.02477 16.3784 9.42859 16.3784C11.8324 16.3784 12.1163 16.3694 13.0654 16.326C13.9433 16.2859 14.4195 16.1395 14.737 16.0159C15.1567 15.8523 15.457 15.6584 15.772 15.3434C16.0706 15.0529 16.3005 14.6986 16.4445 14.3084C16.568 13.9909 16.7145 13.5147 16.7546 12.6368C16.798 11.6877 16.807 11.403 16.807 9C16.807 6.597 16.798 6.31227 16.7546 5.36318C16.7145 4.48527 16.568 4.00909 16.4445 3.69164C16.2809 3.27191 16.087 2.97164 15.772 2.65664C15.4814 2.35806 15.1278 2.12826 14.737 1.98409C14.4195 1.86055 13.9433 1.71409 13.0654 1.674ZM8.27904 11.7745C8.92104 12.0417 9.6359 12.0778 10.3015 11.8765C10.9672 11.6752 11.5423 11.2491 11.9286 10.6709C12.315 10.0927 12.4886 9.39835 12.4199 8.70636C12.3512 8.01437 12.0443 7.3677 11.5518 6.87682C11.2378 6.56303 10.8581 6.32276 10.4401 6.1733C10.0221 6.02385 9.57621 5.96893 9.13445 6.0125C8.69269 6.05608 8.26608 6.19705 7.88534 6.42529C7.5046 6.65352 7.1792 6.96334 6.93256 7.33242C6.68593 7.70151 6.5242 8.12069 6.45901 8.55979C6.39382 8.99888 6.4268 9.44697 6.55558 9.87179C6.68435 10.2966 6.90571 10.6876 7.20372 11.0166C7.50174 11.3456 7.86899 11.6044 8.27904 11.7745ZM6.1575 5.72891C6.58706 5.29934 7.09703 4.95859 7.65829 4.72611C8.21954 4.49363 8.82109 4.37398 9.42859 4.37398C10.0361 4.37398 10.6376 4.49363 11.1989 4.72611C11.7601 4.95859 12.2701 5.29934 12.6997 5.72891C13.1292 6.15847 13.47 6.66844 13.7025 7.2297C13.935 7.79095 14.0546 8.3925 14.0546 9C14.0546 9.6075 13.935 10.209 13.7025 10.7703C13.47 11.3316 13.1292 11.8415 12.6997 12.2711C11.8321 13.1386 10.6555 13.626 9.42859 13.626C8.20169 13.626 7.02504 13.1386 6.1575 12.2711C5.28995 11.4035 4.80257 10.2269 4.80257 9C4.80257 7.7731 5.28995 6.59646 6.1575 5.72891ZM15.0806 5.06291C15.187 4.96249 15.2723 4.84174 15.3312 4.7078C15.3901 4.57385 15.4216 4.42945 15.4237 4.28312C15.4259 4.1368 15.3986 3.99154 15.3436 3.85594C15.2886 3.72033 15.2069 3.59715 15.1035 3.49367C15 3.39019 14.8768 3.30853 14.7412 3.25351C14.6056 3.1985 14.4603 3.17125 14.314 3.17339C14.1677 3.17552 14.0233 3.20699 13.8893 3.26593C13.7554 3.32488 13.6346 3.4101 13.5342 3.51655C13.3389 3.72357 13.232 3.99855 13.2362 4.28312C13.2403 4.5677 13.3552 4.83945 13.5564 5.04069C13.7577 5.24193 14.0294 5.35682 14.314 5.36097C14.5986 5.36512 14.8736 5.2582 15.0806 5.06291Z" fill="#372011"/>
</svg>
