<svg width="36" height="36" viewBox="0 0 36 36" fill="none" xmlns="http://www.w3.org/2000/svg">
<path d="M25.875 4.125H10.125C8.23533 4.125 6.42306 4.87567 5.08686 6.21186C3.75067 7.54806 3 9.36033 3 11.25V24.75C3 25.6857 3.18429 26.6122 3.54236 27.4766C3.90042 28.3411 4.42525 29.1265 5.08686 29.7881C6.42306 31.1243 8.23533 31.875 10.125 31.875H25.875C27.7635 31.871 29.5734 31.1191 30.9088 29.7838C32.2441 28.4484 32.996 26.6385 33 24.75V11.25C32.996 9.36155 32.2441 7.55158 30.9088 6.21624C29.5734 4.8809 27.7635 4.12896 25.875 4.125ZM20.4 16.605C19.662 17.0259 18.8271 17.2472 17.9775 17.2472C17.1279 17.2472 16.293 17.0259 15.555 16.605L5.28 10.71C5.41286 9.51795 5.98051 8.41672 6.87438 7.61695C7.76824 6.81718 8.92557 6.375 10.125 6.375H25.875C27.0735 6.37829 28.229 6.8216 29.1222 7.62075C30.0154 8.41991 30.584 9.51924 30.72 10.71L20.4 16.605Z" fill="white"/>
</svg>
