<svg width="72" height="72" viewBox="0 0 72 72" fill="none" xmlns="http://www.w3.org/2000/svg">
<rect x="1.43246" y="1.43246" width="68.7579" height="68.7579" rx="34.3789" fill="#F6F7FB" stroke="url(#paint0_linear_269_3355)" stroke-width="2.86491"/>
<path d="M30.3612 46.1073C30.0176 46.1066 29.6802 46.0166 29.382 45.846C28.7105 45.4655 28.2931 44.7269 28.2931 43.925V27.698C28.2931 26.8939 28.7105 26.1575 29.382 25.777C29.6873 25.6016 30.0341 25.5114 30.3862 25.5158C30.7383 25.5202 31.0827 25.6191 31.3835 25.8022L45.252 34.1037C45.5411 34.285 45.7793 34.5366 45.9445 34.8352C46.1096 35.1337 46.1963 35.4692 46.1963 35.8104C46.1963 36.1515 46.1096 36.4871 45.9445 36.7856C45.7793 37.0841 45.5411 37.3358 45.252 37.517L31.3813 45.8208C31.0735 46.0069 30.7209 46.1059 30.3612 46.1073Z" fill="url(#paint1_linear_269_3355)"/>
<defs>
<linearGradient id="paint0_linear_269_3355" x1="7.2952" y1="13.989" x2="67.2093" y2="53.2339" gradientUnits="userSpaceOnUse">
<stop stop-color="#F0DB92"/>
<stop offset="1" stop-color="#BF9033"/>
</linearGradient>
<linearGradient id="paint1_linear_269_3355" x1="24.7456" y1="9.35493" x2="46.943" y2="43.546" gradientUnits="userSpaceOnUse">
<stop stop-color="#F0DB92"/>
<stop offset="1" stop-color="#BF9033"/>
</linearGradient>
</defs>
</svg>
