<svg width="518" height="517" viewBox="0 0 518 517" fill="none" xmlns="http://www.w3.org/2000/svg">
<path opacity="0.05" fill-rule="evenodd" clip-rule="evenodd" d="M397.842 133.111C438.821 175.289 482.672 226.632 466.252 287.984C450.209 347.927 382.803 378.483 325.001 405.275C276.547 427.735 224.745 437.908 178.218 421.494C131.288 404.939 97.1923 367.889 83.7754 320.179C69.6715 270.026 75.1696 213.918 106.536 166.596C140.415 115.483 192.618 73.8039 251.571 67.0274C310.725 60.2277 359.273 93.4146 397.842 133.111Z" fill="#E6A371"/>
<path d="M241.23 216.492V106.269H366.591V216.492H241.23Z" stroke="black" stroke-width="0.2"/>
<path d="M366.691 216.592C366.691 215.547 366.64 172.612 366.567 106.17L366.691 106.294H241.141L241.288 106.147C241.288 146.268 241.288 184.066 241.288 216.569L241.158 216.44L366.719 216.569L241.158 216.699H241V216.569C241 184.066 241 146.279 241 106.147V106H241.158H366.708H366.832V106.124C366.742 172.612 366.691 215.547 366.691 216.592Z" fill="black"/>
<path d="M367.053 117.499C367.053 117.55 339.177 117.595 304.798 117.595C270.418 117.595 242.531 117.55 242.531 117.499C242.531 117.449 270.407 117.398 304.798 117.398C339.189 117.398 367.053 117.443 367.053 117.499Z" fill="black"/>
<path d="M249.674 112.329C249.679 112.585 249.607 112.836 249.468 113.051C249.329 113.266 249.13 113.434 248.895 113.535C248.66 113.636 248.4 113.665 248.148 113.618C247.897 113.571 247.665 113.45 247.483 113.271C247.3 113.091 247.175 112.862 247.124 112.611C247.072 112.361 247.096 112.101 247.193 111.864C247.29 111.627 247.455 111.425 247.668 111.282C247.88 111.139 248.13 111.063 248.386 111.063C248.723 111.063 249.048 111.196 249.289 111.433C249.53 111.669 249.668 111.991 249.674 112.329Z" fill="#E6A371"/>
<path d="M253.906 112.329C253.911 112.585 253.839 112.836 253.7 113.051C253.562 113.266 253.362 113.434 253.127 113.535C252.892 113.636 252.632 113.665 252.381 113.618C252.129 113.571 251.898 113.45 251.715 113.271C251.533 113.091 251.408 112.862 251.356 112.611C251.305 112.361 251.329 112.101 251.426 111.864C251.523 111.627 251.688 111.425 251.9 111.282C252.112 111.139 252.362 111.063 252.618 111.063C252.956 111.063 253.28 111.196 253.521 111.433C253.762 111.669 253.901 111.991 253.906 112.329Z" fill="#E6A371"/>
<path d="M258.139 112.329C258.143 112.585 258.072 112.836 257.933 113.051C257.794 113.266 257.594 113.434 257.359 113.535C257.124 113.636 256.865 113.665 256.613 113.618C256.362 113.571 256.13 113.45 255.948 113.271C255.765 113.091 255.64 112.862 255.589 112.611C255.537 112.361 255.561 112.101 255.658 111.864C255.755 111.627 255.92 111.425 256.132 111.282C256.345 111.139 256.595 111.063 256.851 111.063C257.188 111.063 257.513 111.196 257.754 111.433C257.995 111.669 258.133 111.991 258.139 112.329Z" fill="#E6A371"/>
<path d="M360.848 127.242C360.919 127.234 360.989 127.22 361.057 127.202C361.156 127.169 361.247 127.115 361.323 127.044C361.399 126.973 361.459 126.886 361.498 126.789C361.548 126.644 361.565 126.49 361.549 126.337C361.549 126.162 361.549 125.976 361.549 125.772C361.549 125.365 361.549 124.891 361.549 124.365C361.549 123.84 361.549 123.235 361.549 122.597C361.549 122.433 361.549 122.263 361.549 122.105C361.534 121.941 361.459 121.789 361.34 121.677C361.22 121.564 361.063 121.499 360.899 121.495H360.334H355.209H325.519C325.363 121.493 325.211 121.55 325.095 121.654C324.979 121.759 324.906 121.904 324.892 122.06V126.315C324.872 126.474 324.9 126.635 324.971 126.778C325.047 126.909 325.167 127.009 325.31 127.061C325.383 127.083 325.46 127.095 325.536 127.095H335.227H348.575L357.571 127.129H360.018H360.656H360.871C360.799 127.133 360.728 127.133 360.656 127.129H360.018H357.571L348.575 127.162H335.227H327.345H325.536C325.438 127.162 325.341 127.146 325.248 127.117C325.06 127.049 324.902 126.917 324.802 126.744C324.712 126.57 324.674 126.374 324.694 126.179V122.094C324.713 121.887 324.807 121.695 324.96 121.555C325.113 121.415 325.312 121.337 325.519 121.336H355.209H360.334H360.899C361.089 121.341 361.27 121.416 361.407 121.547C361.545 121.677 361.63 121.854 361.645 122.043C361.645 122.224 361.645 122.382 361.645 122.546C361.645 123.19 361.645 123.778 361.645 124.314C361.645 124.851 361.645 125.315 361.645 125.721C361.645 125.931 361.645 126.117 361.645 126.287C361.658 126.446 361.636 126.605 361.583 126.756C361.54 126.855 361.476 126.943 361.395 127.015C361.314 127.086 361.218 127.138 361.114 127.168C361.034 127.217 360.942 127.242 360.848 127.242Z" fill="black"/>
<path d="M327.062 125.083L327.158 124.879C327.331 125.019 327.547 125.093 327.768 125.088C328.09 125.088 328.226 124.964 328.226 124.806C328.226 124.354 327.096 124.636 327.096 123.953C327.096 123.664 327.316 123.421 327.802 123.421C328.011 123.42 328.217 123.477 328.396 123.585L328.311 123.8C328.16 123.701 327.983 123.648 327.802 123.647C327.486 123.647 327.35 123.777 327.35 123.941C327.35 124.393 328.48 124.111 328.48 124.789C328.48 125.071 328.254 125.314 327.763 125.314C327.51 125.318 327.263 125.236 327.062 125.083Z" fill="#E0E0E0"/>
<path d="M330.096 124.676H328.966C328.981 124.797 329.042 124.909 329.137 124.986C329.232 125.063 329.353 125.1 329.475 125.088C329.55 125.091 329.625 125.078 329.694 125.048C329.764 125.019 329.826 124.975 329.876 124.919L330.017 125.083C329.946 125.16 329.858 125.22 329.76 125.259C329.662 125.298 329.557 125.315 329.452 125.309C329.358 125.315 329.263 125.302 329.174 125.271C329.085 125.239 329.003 125.19 328.933 125.126C328.864 125.062 328.808 124.985 328.769 124.899C328.73 124.813 328.708 124.72 328.706 124.625C328.702 124.531 328.718 124.438 328.751 124.35C328.785 124.262 328.836 124.182 328.902 124.115C328.968 124.048 329.046 123.995 329.133 123.959C329.22 123.923 329.313 123.906 329.407 123.907C329.501 123.905 329.594 123.922 329.681 123.957C329.768 123.993 329.847 124.046 329.912 124.114C329.978 124.181 330.028 124.261 330.061 124.349C330.094 124.437 330.108 124.531 330.102 124.625C330.102 124.625 330.096 124.653 330.096 124.676ZM328.966 124.495H329.865C329.855 124.383 329.802 124.279 329.718 124.205C329.634 124.13 329.525 124.091 329.413 124.094C329.3 124.088 329.189 124.126 329.104 124.202C329.019 124.277 328.968 124.382 328.961 124.495H328.966Z" fill="#E0E0E0"/>
<path d="M331.526 124.45V125.298H331.283V125.111C331.229 125.179 331.159 125.233 331.079 125.268C330.999 125.302 330.912 125.316 330.825 125.309C330.503 125.309 330.305 125.139 330.305 124.896C330.305 124.653 330.452 124.49 330.871 124.49H331.272V124.439C331.272 124.224 331.147 124.1 330.893 124.1C330.733 124.097 330.577 124.151 330.452 124.252L330.345 124.06C330.508 123.939 330.707 123.876 330.91 123.879C331.306 123.879 331.526 124.06 331.526 124.45ZM331.272 124.868V124.67H330.876C330.628 124.67 330.554 124.766 330.554 124.885C330.554 125.004 330.673 125.117 330.865 125.117C330.95 125.122 331.035 125.101 331.107 125.056C331.18 125.012 331.237 124.946 331.272 124.868Z" fill="#E0E0E0"/>
<path d="M332.747 123.879V124.128H332.69C332.628 124.124 332.566 124.134 332.509 124.157C332.451 124.18 332.399 124.215 332.357 124.261C332.315 124.306 332.283 124.36 332.265 124.419C332.246 124.479 332.241 124.541 332.249 124.603V125.303H331.978V123.89H332.221V124.128C332.278 124.043 332.357 123.975 332.449 123.931C332.542 123.887 332.645 123.869 332.747 123.879Z" fill="#E0E0E0"/>
<path d="M332.916 124.625C332.91 124.525 332.926 124.424 332.962 124.33C332.998 124.236 333.054 124.151 333.126 124.08C333.197 124.01 333.283 123.955 333.378 123.921C333.472 123.886 333.573 123.872 333.673 123.879C333.786 123.873 333.898 123.897 333.998 123.95C334.097 124.003 334.181 124.082 334.238 124.179L334.046 124.303C334.006 124.24 333.95 124.188 333.883 124.152C333.817 124.116 333.743 124.098 333.668 124.1C333.546 124.113 333.433 124.17 333.351 124.262C333.269 124.353 333.223 124.471 333.223 124.594C333.223 124.717 333.269 124.835 333.351 124.926C333.433 125.018 333.546 125.075 333.668 125.088C333.743 125.091 333.818 125.073 333.884 125.037C333.951 125.002 334.007 124.949 334.046 124.885L334.238 125.009C334.181 125.106 334.097 125.185 333.998 125.238C333.898 125.291 333.786 125.315 333.673 125.309C333.578 125.317 333.482 125.305 333.392 125.274C333.301 125.243 333.218 125.194 333.147 125.13C333.076 125.066 333.019 124.989 332.979 124.902C332.94 124.815 332.918 124.721 332.916 124.625Z" fill="#E0E0E0"/>
<path d="M335.872 124.489V125.298H335.617V124.518C335.617 124.241 335.476 124.105 335.239 124.105C335.177 124.101 335.115 124.11 335.057 124.132C334.999 124.154 334.947 124.189 334.904 124.234C334.862 124.279 334.829 124.333 334.81 124.391C334.791 124.45 334.785 124.513 334.792 124.574V125.298H334.538V123.331H334.804V124.094C334.865 124.023 334.941 123.966 335.027 123.929C335.113 123.892 335.207 123.875 335.301 123.879C335.379 123.878 335.457 123.894 335.53 123.924C335.602 123.955 335.667 124.001 335.721 124.058C335.775 124.116 335.816 124.184 335.842 124.258C335.868 124.332 335.878 124.411 335.872 124.489Z" fill="#E0E0E0"/>
<path d="M336.222 125.128C336.221 125.104 336.225 125.08 336.234 125.058C336.243 125.036 336.256 125.015 336.273 124.998C336.29 124.981 336.31 124.968 336.333 124.959C336.355 124.95 336.379 124.946 336.403 124.947C336.451 124.947 336.497 124.966 336.531 125C336.565 125.034 336.584 125.08 336.584 125.128C336.584 125.176 336.565 125.222 336.531 125.256C336.497 125.29 336.451 125.309 336.403 125.309C336.379 125.31 336.355 125.305 336.333 125.297C336.31 125.288 336.29 125.275 336.273 125.258C336.256 125.241 336.243 125.22 336.234 125.198C336.225 125.176 336.221 125.152 336.222 125.128Z" fill="#E0E0E0"/>
<path d="M336.821 125.128C336.821 125.08 336.84 125.034 336.874 125C336.908 124.966 336.954 124.947 337.002 124.947C337.05 124.947 337.096 124.966 337.13 125C337.163 125.034 337.183 125.08 337.183 125.128C337.183 125.176 337.163 125.222 337.13 125.256C337.096 125.29 337.05 125.309 337.002 125.309C336.954 125.309 336.908 125.29 336.874 125.256C336.84 125.222 336.821 125.176 336.821 125.128Z" fill="#E0E0E0"/>
<path d="M337.42 125.128C337.42 125.08 337.439 125.034 337.473 125C337.507 124.966 337.553 124.947 337.601 124.947C337.649 124.947 337.695 124.966 337.729 125C337.762 125.034 337.782 125.08 337.782 125.128C337.782 125.176 337.762 125.222 337.729 125.256C337.695 125.29 337.649 125.309 337.601 125.309C337.553 125.309 337.507 125.29 337.473 125.256C337.439 125.222 337.42 125.176 337.42 125.128Z" fill="#E0E0E0"/>
<path d="M318.913 136.667V156.445H342.986V136.667C342.986 136.217 342.807 135.786 342.489 135.468C342.171 135.15 341.74 134.972 341.291 134.972H320.626C320.402 134.97 320.179 135.012 319.972 135.096C319.764 135.18 319.575 135.305 319.416 135.462C319.257 135.62 319.13 135.808 319.044 136.014C318.958 136.221 318.913 136.443 318.913 136.667Z" fill="#E0E0E0"/>
<path d="M320.044 145.714L320.208 138.441H341.268V142.589" fill="#F5F5F5"/>
<path d="M339.98 136.475H321.575V138.441H339.98V136.475Z" fill="#F5F5F5"/>
<path d="M321.575 136.492H321.931H322.976L326.864 136.458L339.98 136.418H340.076V136.492C340.076 137.119 340.076 137.786 340.076 138.458C339.878 138.656 340.014 138.515 339.968 138.56H334.109H328.915L321.569 138.52H321.53V138.481C321.53 137.848 321.53 137.351 321.53 137.006C321.53 136.853 321.53 136.729 321.53 136.639C321.527 136.597 321.527 136.556 321.53 136.514C321.534 136.559 321.534 136.605 321.53 136.65C321.53 136.746 321.53 136.876 321.53 137.034C321.53 137.373 321.53 137.859 321.53 138.481L321.485 138.441L328.831 138.402H334.024H339.889C339.85 138.441 339.997 138.3 339.799 138.498V136.492L339.895 136.593L326.853 136.548H322.937H321.875H321.592L321.575 136.492Z" fill="#E0E0E0"/>
<path d="M342.15 161.423C342.15 161.48 337.55 161.525 331.876 161.525C326.203 161.525 321.603 161.48 321.603 161.423C321.603 161.367 326.203 161.327 331.876 161.327C337.55 161.327 342.15 161.355 342.15 161.423Z" fill="#E0E0E0"/>
<path d="M317.066 142.142L318.913 156.473H342.986V142.589H332.057L329.933 140.724H318.309C318.13 140.724 317.954 140.762 317.791 140.836C317.629 140.91 317.484 141.017 317.366 141.152C317.248 141.286 317.161 141.444 317.109 141.615C317.057 141.786 317.042 141.965 317.066 142.142Z" fill="#EBEBEB"/>
<path d="M336.363 148.2C336.363 148.257 333.724 148.302 330.475 148.302C327.226 148.302 324.587 148.257 324.587 148.2C324.587 148.144 327.226 148.104 330.475 148.104C333.724 148.104 336.363 148.149 336.363 148.2Z" fill="#E0E0E0"/>
<path d="M336.363 149.613C336.363 149.669 333.724 149.709 330.475 149.709C327.226 149.709 324.587 149.669 324.587 149.613C324.587 149.556 327.226 149.511 330.475 149.511C333.724 149.511 336.363 149.556 336.363 149.613Z" fill="#E0E0E0"/>
<path d="M337.064 164.102C337.064 164.158 334.182 164.203 330.622 164.203C327.062 164.203 324.18 164.158 324.18 164.102C324.18 164.045 327.068 164.006 330.622 164.006C334.176 164.006 337.064 164.051 337.064 164.102Z" fill="#E0E0E0"/>
<path d="M318.733 178.732V198.51H342.805V178.732C342.805 178.282 342.626 177.851 342.309 177.533C341.991 177.215 341.559 177.036 341.11 177.036H320.439C320.216 177.035 319.994 177.078 319.787 177.162C319.58 177.247 319.392 177.371 319.233 177.529C319.075 177.686 318.949 177.874 318.863 178.08C318.777 178.287 318.733 178.508 318.733 178.732Z" fill="#E0E0E0"/>
<path d="M319.863 187.778L320.021 180.506H341.087V184.654" fill="#F5F5F5"/>
<path d="M339.799 178.54H321.394V180.506H339.799V178.54Z" fill="#F5F5F5"/>
<path d="M321.394 178.545C321.394 178.545 321.422 178.545 321.479 178.545H321.745H322.79L326.683 178.517L339.799 178.472H339.889V180.534L339.788 180.636H333.928H328.735L321.389 180.596H321.343V180.551C321.343 179.918 321.343 179.421 321.372 179.076C321.372 178.924 321.372 178.805 321.372 178.709C321.372 178.613 321.372 178.585 321.372 178.59C321.374 178.634 321.374 178.677 321.372 178.72C321.372 178.822 321.372 178.946 321.372 179.105C321.372 179.444 321.372 179.93 321.372 180.551L321.332 180.512L328.678 180.472H333.871H339.737C339.692 180.517 339.838 180.376 339.641 180.568V178.607L339.742 178.703L326.695 178.658H322.784H321.716H321.338L321.394 178.545Z" fill="#E0E0E0"/>
<path d="M341.941 203.488C341.941 203.544 337.341 203.59 331.667 203.59C325.994 203.59 321.394 203.544 321.394 203.488C321.394 203.431 325.994 203.392 331.667 203.392C337.341 203.392 341.941 203.437 341.941 203.488Z" fill="#E0E0E0"/>
<path d="M316.879 184.202L318.733 198.532H342.805V184.654H331.871L329.752 182.789H318.122C317.944 182.789 317.768 182.827 317.606 182.9C317.444 182.974 317.299 183.081 317.182 183.215C317.064 183.348 316.976 183.505 316.924 183.675C316.872 183.846 316.857 184.025 316.879 184.202Z" fill="#EBEBEB"/>
<path d="M336.177 190.271C336.177 190.321 333.543 190.367 330.294 190.367C327.045 190.367 324.406 190.321 324.406 190.271C324.406 190.22 327.039 190.175 330.283 190.175C333.526 190.175 336.177 190.214 336.177 190.271Z" fill="#E0E0E0"/>
<path d="M336.177 191.678C336.177 191.734 333.543 191.774 330.294 191.774C327.045 191.774 324.406 191.734 324.406 191.678C324.406 191.621 327.039 191.582 330.294 191.582C333.549 191.582 336.177 191.621 336.177 191.678Z" fill="#E0E0E0"/>
<path d="M336.894 206.166C336.894 206.223 334.007 206.268 330.452 206.268C326.898 206.268 324.011 206.223 324.011 206.166C324.011 206.11 326.892 206.07 330.452 206.07C334.012 206.07 336.894 206.116 336.894 206.166Z" fill="#E0E0E0"/>
<path d="M164.976 178.986H152.392C152.184 178.985 151.978 178.944 151.787 178.863C151.595 178.782 151.421 178.665 151.275 178.516C151.129 178.368 151.014 178.193 150.936 178C150.858 177.807 150.819 177.601 150.821 177.393V159.999C150.821 159.582 150.986 159.182 151.281 158.887C151.575 158.591 151.975 158.424 152.392 158.423H160.371L166.547 164.791V177.393C166.55 177.601 166.511 177.807 166.433 178C166.355 178.193 166.24 178.368 166.094 178.516C165.948 178.665 165.774 178.782 165.582 178.863C165.39 178.944 165.184 178.985 164.976 178.986Z" fill="#EBEBEB"/>
<path d="M160.371 158.423V163.328C160.371 163.52 160.409 163.71 160.482 163.888C160.556 164.065 160.664 164.227 160.8 164.363C160.936 164.499 161.097 164.606 161.275 164.68C161.452 164.753 161.642 164.791 161.835 164.791H166.547L160.371 158.423Z" fill="#F5F5F5"/>
<path d="M160.439 163.757C160.441 164.127 160.57 164.486 160.805 164.773C161.039 165.06 161.365 165.258 161.727 165.334C161.777 165.35 161.828 165.362 161.88 165.368C162.496 165.481 166.547 166.198 166.547 166.108V164.791H161.835C161.835 164.791 160.659 164.752 160.439 163.757Z" fill="#E0E0E0"/>
<path d="M164.976 178.986C164.976 178.986 165.067 178.986 165.248 178.952C165.509 178.902 165.754 178.788 165.96 178.619C166.128 178.48 166.265 178.308 166.362 178.113C166.459 177.919 166.515 177.706 166.525 177.489C166.525 176.98 166.525 176.392 166.525 175.731C166.525 173.098 166.525 169.323 166.525 164.769L160.332 158.462H160.371H152.748C152.547 158.448 152.345 158.448 152.143 158.462C151.949 158.503 151.764 158.582 151.601 158.695C151.437 158.807 151.297 158.951 151.188 159.118C151.018 159.337 150.912 159.599 150.883 159.875C150.883 160.152 150.883 160.44 150.883 160.728V162.424C150.883 163.554 150.883 164.656 150.883 165.746V172.041C150.883 173.041 150.883 174.013 150.883 174.963V177.048C150.863 177.268 150.863 177.489 150.883 177.709C150.945 178.021 151.103 178.306 151.335 178.524C151.568 178.742 151.862 178.882 152.177 178.924C152.382 178.938 152.588 178.938 152.793 178.924C152.584 178.935 152.375 178.935 152.166 178.924C151.947 178.896 151.737 178.821 151.55 178.704C151.356 178.588 151.189 178.434 151.059 178.25C150.928 178.066 150.838 177.857 150.793 177.636C150.77 177.41 150.77 177.183 150.793 176.957V172.041C150.793 170.041 150.793 167.939 150.793 165.763V160.745C150.793 160.457 150.793 160.18 150.793 159.881C150.813 159.581 150.916 159.293 151.092 159.05C151.346 158.702 151.725 158.467 152.149 158.395C152.356 158.375 152.564 158.375 152.771 158.395H160.394L166.581 164.757C166.581 169.312 166.581 173.087 166.581 175.72C166.581 176.381 166.581 176.963 166.581 177.477C166.569 177.694 166.513 177.906 166.416 178.101C166.318 178.295 166.182 178.468 166.016 178.607C165.804 178.775 165.554 178.888 165.287 178.935H165.084L164.976 178.986Z" fill="#E0E0E0"/>
<path d="M166.547 164.791H166.429H166.078H164.801H162.908H161.778C161.57 164.784 161.366 164.735 161.177 164.647C160.989 164.558 160.82 164.433 160.682 164.277C160.543 164.111 160.439 163.919 160.377 163.712C160.318 163.518 160.296 163.315 160.309 163.113V161.983C160.309 161.277 160.309 160.632 160.309 160.09C160.309 159.547 160.309 159.129 160.309 158.813C160.309 158.671 160.309 158.558 160.309 158.468C160.309 158.378 160.309 158.344 160.309 158.344C160.317 158.385 160.317 158.427 160.309 158.468C160.309 158.558 160.309 158.671 160.309 158.813C160.309 159.129 160.309 159.564 160.309 160.09C160.309 160.615 160.309 161.277 160.309 161.983C160.309 162.339 160.309 162.712 160.309 163.113C160.292 163.306 160.315 163.501 160.375 163.685C160.435 163.87 160.532 164.04 160.659 164.187C160.787 164.332 160.944 164.449 161.118 164.532C161.293 164.614 161.483 164.66 161.676 164.667H162.807H164.7H165.977H166.327C166.508 164.78 166.547 164.786 166.547 164.791Z" fill="#E0E0E0"/>
<path d="M160.134 162.796C160.134 162.83 158.648 162.853 156.817 162.853C154.986 162.853 153.5 162.853 153.5 162.796C153.5 162.74 154.98 162.74 156.817 162.74C158.653 162.74 160.134 162.768 160.134 162.796Z" fill="#E0E0E0"/>
<path d="M163.281 165.243C163.281 165.243 161.094 165.3 158.393 165.3C155.692 165.3 153.5 165.3 153.5 165.243C153.5 165.187 155.687 165.187 158.393 165.187C161.1 165.187 163.281 165.209 163.281 165.243Z" fill="#E0E0E0"/>
<path d="M163.281 167.685C163.281 167.718 161.094 167.741 158.393 167.741C155.692 167.741 153.5 167.741 153.5 167.685C153.5 167.628 155.687 167.634 158.393 167.634C161.1 167.634 163.281 167.656 163.281 167.685Z" fill="#E0E0E0"/>
<path d="M163.281 170.131C163.281 170.131 161.094 170.188 158.393 170.188C155.692 170.188 153.5 170.188 153.5 170.131C153.5 170.075 155.687 170.075 158.393 170.075C161.1 170.075 163.281 170.103 163.281 170.131Z" fill="#E0E0E0"/>
<path d="M163.281 172.578C163.281 172.578 161.094 172.629 158.393 172.629C155.692 172.629 153.5 172.629 153.5 172.578C153.5 172.527 155.687 172.522 158.393 172.522C161.1 172.522 163.281 172.544 163.281 172.578Z" fill="#E0E0E0"/>
<path d="M163.281 175.59C163.281 175.624 161.094 175.646 158.393 175.646C155.692 175.646 153.5 175.646 153.5 175.59C153.5 175.533 155.687 175.533 158.393 175.533C161.1 175.533 163.281 175.562 163.281 175.59Z" fill="#E0E0E0"/>
<path d="M166.474 184.202C166.474 184.287 162.982 184.349 158.681 184.349C154.381 184.349 150.883 184.287 150.883 184.202C150.883 184.117 154.376 184.055 158.681 184.055C162.987 184.055 166.474 184.123 166.474 184.202Z" fill="black"/>
<path d="M163.694 186.242C162.027 186.391 160.354 186.44 158.681 186.389C157.007 186.44 155.332 186.391 153.664 186.242C155.332 186.096 157.007 186.047 158.681 186.095C160.354 186.047 162.027 186.096 163.694 186.242Z" fill="black"/>
<path d="M164.976 223.498H152.392C151.975 223.496 151.575 223.329 151.281 223.034C150.986 222.738 150.821 222.338 150.821 221.921V204.517C150.821 204.099 150.986 203.699 151.281 203.404C151.575 203.108 151.975 202.941 152.392 202.94H160.371L166.547 209.308V221.921C166.547 222.338 166.382 222.738 166.088 223.034C165.793 223.329 165.394 223.496 164.976 223.498Z" fill="#EBEBEB"/>
<path d="M160.371 202.934V207.839C160.371 208.227 160.525 208.599 160.8 208.874C161.074 209.148 161.446 209.303 161.835 209.303H166.547L160.371 202.934Z" fill="#F5F5F5"/>
<path d="M160.439 208.269C160.441 208.639 160.57 208.997 160.805 209.284C161.039 209.571 161.365 209.769 161.727 209.845L161.88 209.879C162.496 209.992 166.547 210.71 166.547 210.619V209.303H161.835C161.835 209.303 160.659 209.263 160.439 208.269Z" fill="#E0E0E0"/>
<path d="M164.976 223.498C164.976 223.498 165.067 223.498 165.248 223.464C165.509 223.414 165.754 223.299 165.96 223.13C166.128 222.992 166.265 222.82 166.362 222.625C166.459 222.43 166.515 222.217 166.525 222C166.525 221.492 166.525 220.904 166.525 220.243C166.525 217.609 166.525 213.835 166.525 209.28V209.308L160.332 202.974H160.371H152.748C152.547 202.959 152.345 202.959 152.143 202.974C151.949 203.015 151.764 203.094 151.601 203.206C151.437 203.319 151.297 203.463 151.188 203.629C151.025 203.856 150.929 204.124 150.912 204.403C150.912 204.68 150.912 204.969 150.912 205.257V206.952C150.912 208.082 150.912 209.184 150.912 210.275V216.553C150.912 217.553 150.912 218.525 150.912 219.474V221.559C150.892 221.779 150.892 222.001 150.912 222.22C150.974 222.533 151.132 222.818 151.364 223.035C151.596 223.253 151.89 223.393 152.206 223.435C152.411 223.45 152.616 223.45 152.822 223.435C152.613 223.447 152.403 223.447 152.194 223.435C151.975 223.407 151.765 223.332 151.578 223.215C151.385 223.1 151.217 222.945 151.087 222.761C150.956 222.577 150.866 222.368 150.821 222.147C150.799 221.922 150.799 221.694 150.821 221.469V216.553C150.821 214.552 150.821 212.45 150.821 210.275V205.257C150.821 204.969 150.821 204.692 150.821 204.392C150.841 204.093 150.945 203.805 151.121 203.561C151.374 203.214 151.753 202.978 152.177 202.906C152.384 202.886 152.592 202.886 152.799 202.906H160.394L166.564 209.274C166.564 213.829 166.564 217.604 166.564 220.237C166.564 220.898 166.564 221.48 166.564 221.994C166.552 222.211 166.496 222.424 166.399 222.618C166.301 222.812 166.166 222.985 165.999 223.125C165.787 223.292 165.537 223.405 165.27 223.452H165.067L164.976 223.498Z" fill="#E0E0E0"/>
<path d="M166.547 209.303H166.429H166.078H164.801H162.908H161.778C161.57 209.296 161.366 209.247 161.177 209.158C160.989 209.07 160.82 208.944 160.682 208.789C160.543 208.623 160.439 208.431 160.377 208.223C160.318 208.029 160.296 207.827 160.309 207.625V206.494C160.309 205.788 160.309 205.144 160.309 204.601C160.309 204.059 160.309 203.641 160.309 203.324C160.309 203.183 160.309 203.07 160.309 202.98C160.309 202.889 160.309 202.855 160.309 202.855C160.317 202.896 160.317 202.938 160.309 202.98C160.309 203.07 160.309 203.183 160.309 203.324C160.309 203.641 160.309 204.076 160.309 204.601C160.309 205.127 160.309 205.788 160.309 206.494C160.309 206.85 160.309 207.223 160.309 207.625C160.292 207.818 160.315 208.012 160.375 208.197C160.435 208.381 160.532 208.552 160.659 208.698C160.787 208.843 160.944 208.96 161.118 209.043C161.293 209.126 161.483 209.172 161.676 209.178H162.807H164.7H165.977H166.327C166.508 209.292 166.547 209.297 166.547 209.303Z" fill="#E0E0E0"/>
<path d="M160.134 207.308C160.134 207.342 158.648 207.364 156.817 207.364C154.986 207.364 153.5 207.364 153.5 207.308C153.5 207.251 154.98 207.251 156.817 207.251C158.653 207.251 160.134 207.28 160.134 207.308Z" fill="#E0E0E0"/>
<path d="M163.281 209.755C163.281 209.755 161.094 209.811 158.393 209.811C155.692 209.811 153.5 209.783 153.5 209.755C153.5 209.726 155.687 209.698 158.393 209.698C161.1 209.698 163.281 209.721 163.281 209.755Z" fill="#E0E0E0"/>
<path d="M163.281 212.196C163.281 212.23 161.094 212.253 158.393 212.253C155.692 212.253 153.5 212.253 153.5 212.196C153.5 212.14 155.687 212.145 158.393 212.145C161.1 212.145 163.281 212.168 163.281 212.196Z" fill="#E0E0E0"/>
<path d="M163.281 214.643C163.281 214.671 161.094 214.699 158.393 214.699C155.692 214.699 153.5 214.671 153.5 214.643C153.5 214.614 155.687 214.586 158.393 214.586C161.1 214.586 163.281 214.614 163.281 214.643Z" fill="#E0E0E0"/>
<path d="M163.281 217.089C163.281 217.118 161.094 217.14 158.393 217.14C155.692 217.14 153.5 217.14 153.5 217.089C153.5 217.039 155.687 217.033 158.393 217.033C161.1 217.033 163.281 217.056 163.281 217.089Z" fill="#E0E0E0"/>
<path d="M163.281 220.101C163.281 220.135 161.094 220.158 158.393 220.158C155.692 220.158 153.5 220.158 153.5 220.101C153.5 220.045 155.687 220.045 158.393 220.045C161.1 220.045 163.281 220.073 163.281 220.101Z" fill="#E0E0E0"/>
<path d="M166.474 228.713C166.474 228.798 162.982 228.86 158.681 228.86C154.381 228.86 150.883 228.798 150.883 228.713C150.883 228.629 154.376 228.566 158.681 228.566C162.987 228.566 166.474 228.634 166.474 228.713Z" fill="black"/>
<path d="M163.694 230.753C162.027 230.902 160.354 230.951 158.681 230.9C157.007 230.951 155.332 230.902 153.664 230.753C155.332 230.608 157.007 230.559 158.681 230.606C160.354 230.559 162.027 230.608 163.694 230.753Z" fill="black"/>
<path d="M164.112 278.101H151.528C151.11 278.1 150.711 277.933 150.416 277.638C150.122 277.342 149.957 276.942 149.957 276.525V259.115C149.957 258.698 150.122 258.297 150.416 258.002C150.711 257.706 151.11 257.54 151.528 257.538H159.506L165.683 263.907V276.525C165.683 276.942 165.517 277.342 165.223 277.638C164.929 277.933 164.529 278.1 164.112 278.101Z" fill="#EBEBEB"/>
<path d="M159.506 257.538V262.437C159.506 262.826 159.661 263.198 159.935 263.472C160.21 263.747 160.582 263.901 160.97 263.901H165.683L159.506 257.538Z" fill="#F5F5F5"/>
<path d="M159.574 262.867C159.576 263.238 159.705 263.597 159.94 263.885C160.174 264.173 160.5 264.372 160.863 264.449C160.915 264.464 160.968 264.475 161.021 264.483C161.631 264.596 165.683 265.314 165.683 265.223V263.906H160.97C160.97 263.906 159.795 263.85 159.574 262.867Z" fill="#E0E0E0"/>
<path d="M164.112 278.101C164.112 278.101 164.202 278.101 164.383 278.067C164.645 278.018 164.889 277.903 165.095 277.734C165.263 277.596 165.4 277.423 165.497 277.229C165.595 277.034 165.65 276.821 165.66 276.604C165.66 276.095 165.66 275.502 165.66 274.847C165.66 272.213 165.66 268.439 165.66 263.884L159.467 257.578H159.506H151.884C151.682 257.561 151.48 257.561 151.279 257.578C151.082 257.61 150.894 257.682 150.726 257.787C150.557 257.893 150.411 258.031 150.296 258.194C150.132 258.42 150.036 258.689 150.019 258.968C150.019 259.245 150.019 259.533 150.019 259.821V261.516C150.019 262.646 150.019 263.748 150.019 264.839V271.117C150.019 272.117 150.019 273.089 150.019 274.038V276.124C150.011 276.365 150.024 276.607 150.058 276.847C150.12 277.159 150.278 277.444 150.51 277.662C150.743 277.88 151.037 278.02 151.352 278.062C151.558 278.073 151.763 278.073 151.968 278.062H154.347H161.513H163.456H161.484H154.319H151.94C151.731 278.076 151.522 278.076 151.313 278.062C150.988 278.021 150.683 277.884 150.438 277.667C150.193 277.45 150.019 277.164 149.94 276.847C149.917 276.621 149.917 276.394 149.94 276.169C149.94 275.943 149.94 275.711 149.94 275.485V271.162C149.94 269.162 149.94 267.06 149.94 264.884V259.866C149.94 259.578 149.94 259.301 149.94 259.002C149.965 258.637 150.113 258.293 150.359 258.023C150.606 257.753 150.935 257.574 151.296 257.515C151.502 257.489 151.71 257.48 151.917 257.487H159.529L165.717 263.85C165.717 268.405 165.717 272.179 165.717 274.813C165.717 275.474 165.717 276.056 165.717 276.57C165.705 276.787 165.648 276.999 165.551 277.194C165.454 277.388 165.318 277.56 165.152 277.7C164.941 277.87 164.69 277.981 164.423 278.022C164.355 278.028 164.287 278.028 164.219 278.022L164.112 278.101Z" fill="#E0E0E0"/>
<path d="M165.683 263.907H165.564H165.214H163.937H162.044H160.914C160.706 263.9 160.502 263.851 160.315 263.763C160.127 263.674 159.96 263.548 159.823 263.392C159.681 263.228 159.575 263.035 159.512 262.827C159.454 262.633 159.431 262.43 159.444 262.228V261.098C159.444 260.386 159.444 259.748 159.444 259.205C159.444 258.663 159.444 258.244 159.444 257.928C159.444 257.787 159.444 257.674 159.444 257.583C159.444 257.493 159.444 257.459 159.444 257.459C159.452 257.5 159.452 257.542 159.444 257.583V257.928C159.444 258.244 159.444 258.68 159.444 259.205C159.444 259.731 159.444 260.386 159.444 261.098C159.444 261.454 159.444 261.827 159.444 262.228C159.428 262.422 159.451 262.616 159.511 262.8C159.571 262.985 159.668 263.155 159.795 263.302C159.922 263.447 160.078 263.564 160.253 263.646C160.429 263.728 160.619 263.772 160.812 263.777H161.942H163.835H165.112H165.462C165.643 263.895 165.683 263.901 165.683 263.907Z" fill="#E0E0E0"/>
<path d="M159.269 261.912C159.269 261.94 157.783 261.968 155.952 261.968C154.121 261.968 152.635 261.968 152.635 261.912C152.635 261.855 154.121 261.855 155.952 261.855C157.783 261.855 159.269 261.883 159.269 261.912Z" fill="#E0E0E0"/>
<path d="M162.417 264.359C162.417 264.387 160.23 264.409 157.529 264.409C154.828 264.409 152.635 264.409 152.635 264.359C152.635 264.308 154.822 264.302 157.529 264.302C160.235 264.302 162.417 264.325 162.417 264.359Z" fill="#E0E0E0"/>
<path d="M162.417 266.8C162.417 266.834 160.23 266.856 157.529 266.856C154.828 266.856 152.635 266.856 152.635 266.8C152.635 266.743 154.822 266.743 157.529 266.743C160.235 266.743 162.417 266.771 162.417 266.8Z" fill="#E0E0E0"/>
<path d="M162.417 269.246C162.417 269.275 160.23 269.303 157.529 269.303C154.828 269.303 152.635 269.303 152.635 269.246C152.635 269.19 154.822 269.19 157.529 269.19C160.235 269.19 162.417 269.213 162.417 269.246Z" fill="#E0E0E0"/>
<path d="M162.417 271.688C162.417 271.722 160.23 271.744 157.529 271.744C154.828 271.744 152.635 271.744 152.635 271.688C152.635 271.631 154.822 271.637 157.529 271.637C160.235 271.637 162.417 271.659 162.417 271.688Z" fill="#E0E0E0"/>
<path d="M162.417 274.705C162.417 274.733 160.23 274.762 157.529 274.762C154.828 274.762 152.635 274.733 152.635 274.705C152.635 274.677 154.822 274.649 157.529 274.649C160.235 274.649 162.417 274.677 162.417 274.705Z" fill="#E0E0E0"/>
<path d="M165.609 283.317C165.609 283.396 162.117 283.464 157.817 283.464C153.517 283.464 150.024 283.396 150.024 283.317C150.024 283.238 153.511 283.17 157.817 283.17C162.123 283.17 165.609 283.238 165.609 283.317Z" fill="black"/>
<path d="M162.835 285.357C161.166 285.502 159.491 285.551 157.817 285.504C156.143 285.552 154.467 285.503 152.799 285.357C154.467 285.211 156.143 285.162 157.817 285.21C159.491 285.162 161.166 285.212 162.835 285.357Z" fill="black"/>
<path d="M151.177 117.46L151.742 128.717C151.743 128.895 151.811 129.067 151.932 129.198C152.053 129.329 152.22 129.409 152.397 129.423H169.757C169.939 129.403 170.106 129.314 170.224 129.174C170.341 129.034 170.401 128.854 170.39 128.672V119.907C170.404 119.719 170.343 119.533 170.22 119.39C170.097 119.247 169.922 119.159 169.734 119.144L159.088 119.252C159 119.251 158.912 119.23 158.832 119.192C158.752 119.154 158.682 119.099 158.625 119.031L156.771 116.895C156.715 116.829 156.645 116.775 156.566 116.738C156.487 116.701 156.401 116.681 156.314 116.681H151.793C151.609 116.706 151.443 116.801 151.328 116.947C151.213 117.092 151.159 117.276 151.177 117.46Z" fill="#EBEBEB"/>
<path d="M170.407 117.817H151.437V131.045H170.407V117.817Z" fill="#F5F5F5"/>
<path d="M149.928 119.003L151.375 132.814C151.381 132.924 151.427 133.028 151.504 133.106C151.58 133.185 151.683 133.234 151.793 133.243H170.282C170.396 133.235 170.503 133.183 170.58 133.099C170.658 133.015 170.701 132.905 170.7 132.791L171.633 118.992C171.641 118.93 171.636 118.867 171.619 118.806C171.602 118.746 171.574 118.69 171.535 118.641C171.496 118.592 171.447 118.551 171.392 118.521C171.337 118.491 171.277 118.473 171.215 118.466H150.346C150.283 118.472 150.221 118.492 150.166 118.522C150.11 118.553 150.061 118.595 150.022 118.645C149.983 118.695 149.954 118.753 149.938 118.814C149.922 118.876 149.919 118.94 149.928 119.003Z" fill="#EBEBEB"/>
<path d="M168.57 140.233C168.57 140.318 165.084 140.38 160.778 140.38C156.472 140.38 152.985 140.318 152.985 140.233C152.985 140.149 156.472 140.086 160.778 140.086C165.084 140.086 168.57 140.16 168.57 140.233Z" fill="black"/>
<path d="M165.796 142.273C164.129 142.422 162.455 142.471 160.783 142.42C159.109 142.471 157.434 142.422 155.765 142.273C157.434 142.128 159.109 142.079 160.783 142.126C162.455 142.079 164.129 142.128 165.796 142.273Z" fill="black"/>
<path d="M200.545 117.489L201.138 128.745C201.136 128.925 201.203 129.099 201.325 129.231C201.447 129.363 201.614 129.444 201.794 129.457H219.193C219.379 129.443 219.552 129.355 219.674 129.213C219.796 129.071 219.857 128.886 219.843 128.7V119.93C219.849 119.837 219.838 119.744 219.809 119.655C219.779 119.567 219.733 119.485 219.672 119.415C219.611 119.345 219.537 119.287 219.454 119.245C219.371 119.204 219.28 119.179 219.187 119.173L208.513 119.252C208.424 119.251 208.337 119.23 208.257 119.192C208.177 119.154 208.106 119.099 208.049 119.031L206.196 116.901C206.14 116.834 206.07 116.779 205.991 116.741C205.912 116.703 205.826 116.682 205.738 116.681H201.217C201.119 116.687 201.023 116.713 200.936 116.758C200.848 116.802 200.77 116.864 200.707 116.94C200.644 117.015 200.597 117.103 200.569 117.198C200.542 117.292 200.533 117.391 200.545 117.489Z" fill="#EBEBEB"/>
<path d="M219.82 117.839H200.85V131.068H219.82V117.839Z" fill="#F5F5F5"/>
<path d="M199.341 119.032L200.794 132.825C200.796 132.935 200.84 133.041 200.916 133.12C200.993 133.2 201.096 133.248 201.206 133.255H219.696C219.809 133.247 219.915 133.197 219.993 133.114C220.071 133.031 220.114 132.922 220.114 132.808L221.046 119.009C221.054 118.947 221.049 118.884 221.032 118.824C221.016 118.763 220.987 118.707 220.948 118.658C220.909 118.609 220.861 118.568 220.806 118.538C220.751 118.508 220.69 118.49 220.628 118.483H199.76C199.695 118.489 199.633 118.509 199.576 118.54C199.519 118.572 199.47 118.614 199.43 118.666C199.391 118.717 199.363 118.776 199.348 118.839C199.332 118.902 199.33 118.968 199.341 119.032Z" fill="#EBEBEB"/>
<path d="M217.983 140.262C217.983 140.341 214.497 140.409 210.191 140.409C205.885 140.409 202.398 140.341 202.398 140.262C202.398 140.183 205.885 140.115 210.191 140.115C214.497 140.115 217.983 140.177 217.983 140.262Z" fill="black"/>
<path d="M215.237 142.302C213.569 142.447 211.893 142.496 210.219 142.448C208.545 142.496 206.87 142.447 205.201 142.302C206.869 142.153 208.545 142.104 210.219 142.155C211.893 142.103 213.569 142.153 215.237 142.302Z" fill="black"/>
<path d="M189.47 263.86L190.069 275.116C190.065 275.296 190.131 275.469 190.252 275.602C190.373 275.734 190.54 275.815 190.718 275.828H208.078C208.265 275.814 208.438 275.726 208.561 275.584C208.684 275.443 208.746 275.258 208.733 275.071V266.301C208.74 266.208 208.729 266.115 208.699 266.027C208.67 265.938 208.624 265.856 208.563 265.786C208.502 265.716 208.428 265.658 208.344 265.617C208.261 265.575 208.171 265.55 208.078 265.544L197.398 265.623C197.309 265.622 197.222 265.601 197.142 265.563C197.062 265.525 196.991 265.47 196.934 265.402L195.081 263.272C195.025 263.205 194.955 263.15 194.876 263.112C194.797 263.074 194.711 263.053 194.623 263.052H190.103C190.008 263.063 189.916 263.093 189.833 263.139C189.75 263.186 189.677 263.249 189.618 263.324C189.559 263.399 189.516 263.485 189.49 263.577C189.465 263.669 189.458 263.765 189.47 263.86Z" fill="#EBEBEB"/>
<path d="M208.728 264.21H189.758V277.439H208.728V264.21Z" fill="#F5F5F5"/>
<path d="M188.249 265.397L189.701 279.196C189.704 279.306 189.748 279.411 189.824 279.491C189.9 279.57 190.004 279.618 190.114 279.626H208.603C208.717 279.617 208.824 279.566 208.901 279.482C208.979 279.398 209.022 279.288 209.021 279.173L209.931 265.38C209.94 265.317 209.936 265.254 209.919 265.193C209.903 265.132 209.874 265.075 209.835 265.025C209.796 264.976 209.747 264.934 209.692 264.904C209.637 264.874 209.576 264.855 209.513 264.849H188.667C188.603 264.855 188.54 264.874 188.484 264.905C188.427 264.937 188.377 264.98 188.338 265.031C188.299 265.083 188.271 265.142 188.255 265.205C188.24 265.268 188.238 265.333 188.249 265.397Z" fill="#EBEBEB"/>
<path d="M206.891 286.633C206.891 286.712 203.405 286.779 199.099 286.779C194.793 286.779 191.306 286.712 191.306 286.633C191.306 286.553 194.798 286.486 199.099 286.486C203.399 286.486 206.891 286.548 206.891 286.633Z" fill="black"/>
<path d="M204.116 288.673C202.448 288.818 200.773 288.867 199.099 288.82C197.424 288.867 195.749 288.818 194.081 288.673C195.749 288.524 197.424 288.475 199.099 288.526C200.773 288.475 202.448 288.524 204.116 288.673Z" fill="black"/>
<path d="M385.958 395.277C385.958 395.362 330.444 395.424 261.985 395.424C193.525 395.424 138 395.362 138 395.277C138 395.193 193.502 395.13 261.985 395.13C330.467 395.13 385.958 395.198 385.958 395.277Z" fill="#263238"/>
<path d="M289.554 247.172H245.625L237.233 259.604L229.045 247.172H185.896C185.24 247.172 184.59 247.043 183.984 246.792C183.378 246.541 182.827 246.173 182.363 245.709C181.9 245.246 181.532 244.695 181.281 244.089C181.029 243.483 180.9 242.833 180.9 242.177V156.618C180.9 155.962 181.028 155.312 181.279 154.705C181.53 154.098 181.897 153.547 182.361 153.082C182.825 152.618 183.376 152.249 183.983 151.998C184.589 151.747 185.239 151.617 185.896 151.617H289.554C290.211 151.617 290.861 151.747 291.467 151.998C292.074 152.249 292.624 152.618 293.088 153.082C293.552 153.547 293.92 154.098 294.171 154.705C294.422 155.312 294.55 155.962 294.549 156.618V242.2C294.544 243.521 294.015 244.785 293.078 245.717C292.142 246.649 290.875 247.172 289.554 247.172Z" fill="#F6F7FB"/>
<path d="M289.554 247.173H289.825C290.097 247.155 290.368 247.115 290.633 247.054C291.54 246.849 292.37 246.395 293.03 245.741C293.691 245.088 294.154 244.262 294.369 243.358C294.421 243.144 294.46 242.927 294.487 242.708C294.487 242.482 294.516 242.251 294.487 242.013C294.487 241.539 294.487 241.041 294.487 240.527C294.487 238.463 294.487 236.091 294.487 233.413C294.487 222.676 294.459 207.204 294.442 188.065C294.442 178.487 294.442 168.005 294.442 156.748C294.466 155.694 294.149 154.66 293.538 153.801C292.927 152.942 292.055 152.303 291.052 151.979C290.369 151.772 289.655 151.691 288.944 151.742H261.594H221.874H186.059C185.828 151.742 185.613 151.742 185.393 151.742C185.174 151.768 184.957 151.807 184.743 151.86C183.879 152.068 183.089 152.511 182.462 153.141C181.834 153.77 181.394 154.561 181.188 155.426C181.044 156.225 180.997 157.039 181.047 157.85V194.015C181.047 206.532 181.047 218.659 181.047 230.282V241.019C181.014 241.713 181.045 242.409 181.138 243.098C181.269 243.764 181.537 244.395 181.927 244.951C182.316 245.506 182.817 245.975 183.398 246.325C183.975 246.674 184.621 246.896 185.291 246.975C185.952 247.043 186.658 247.003 187.337 247.014H199.435H229.045H229.107L229.141 247.065L237.318 259.497H237.148L245.551 247.065L245.579 247.026H245.625L278.038 247.173L245.653 247.212L245.726 247.173C243.127 251.045 240.334 255.199 237.346 259.633L237.261 259.763L237.177 259.633L228.983 247.201L229.073 247.252H199.463H187.353C186.664 247.252 185.992 247.28 185.28 247.212C184.216 247.091 183.218 246.64 182.423 245.924C181.627 245.208 181.076 244.262 180.844 243.217C180.743 242.512 180.709 241.798 180.742 241.087V230.35C180.742 218.726 180.742 206.617 180.742 194.083V156.664C180.729 155.504 181.109 154.373 181.822 153.458C182.534 152.542 183.536 151.895 184.664 151.623C184.891 151.567 185.121 151.526 185.353 151.499C185.585 151.499 185.822 151.499 186.048 151.499H288.949C289.688 151.451 290.429 151.537 291.136 151.753C291.839 151.99 292.483 152.376 293.024 152.883C293.563 153.378 293.989 153.983 294.273 154.657C294.548 155.329 294.685 156.05 294.674 156.777C294.674 168.033 294.674 178.515 294.674 188.093C294.674 207.233 294.64 222.727 294.629 233.441C294.629 236.12 294.629 238.491 294.629 240.556C294.629 241.07 294.629 241.567 294.629 242.042C294.629 242.279 294.629 242.516 294.6 242.742C294.576 242.965 294.536 243.186 294.482 243.404C294.26 244.317 293.786 245.15 293.113 245.806C292.441 246.463 291.597 246.917 290.679 247.116C290.413 247.172 290.142 247.204 289.871 247.212L289.554 247.173Z" fill="black"/>
<path d="M236.829 229.452C253.955 229.452 267.837 215.569 267.837 198.444C267.837 181.318 253.955 167.435 236.829 167.435C219.704 167.435 205.821 181.318 205.821 198.444C205.821 215.569 219.704 229.452 236.829 229.452Z" fill="#E6A371"/>
<path d="M231.552 193.149H231.037V190.142C231.001 189.293 231.131 188.445 231.418 187.649C231.706 186.853 232.145 186.127 232.71 185.512C233.275 184.898 233.953 184.41 234.705 184.076C235.456 183.742 236.264 183.57 237.081 183.57C237.898 183.57 238.707 183.742 239.458 184.076C240.209 184.41 240.888 184.898 241.453 185.512C242.017 186.127 242.457 186.853 242.744 187.649C243.032 188.445 243.162 189.293 243.126 190.142V192.577H242.611V190.142C242.645 189.364 242.528 188.587 242.265 187.858C242.003 187.128 241.601 186.462 241.084 185.899C240.568 185.336 239.946 184.888 239.258 184.582C238.57 184.275 237.83 184.117 237.081 184.117C236.333 184.117 235.592 184.275 234.904 184.582C234.216 184.888 233.595 185.336 233.078 185.899C232.561 186.462 232.16 187.128 231.897 187.858C231.635 188.587 231.517 189.364 231.552 190.142V193.149Z" fill="white"/>
<path d="M244.589 213.317H229.07C228.731 213.319 228.395 213.253 228.082 213.124C227.769 212.995 227.484 212.806 227.244 212.566C227.005 212.327 226.815 212.042 226.686 211.729C226.557 211.415 226.492 211.08 226.493 210.741V195.222C226.493 194.539 226.765 193.883 227.248 193.4C227.731 192.917 228.386 192.645 229.07 192.645H244.589C245.271 192.648 245.925 192.921 246.407 193.403C246.89 193.886 247.162 194.539 247.165 195.222V210.741C247.165 211.424 246.894 212.08 246.411 212.563C245.927 213.046 245.272 213.317 244.589 213.317ZM229.07 193.165C228.524 193.165 228.001 193.382 227.616 193.768C227.23 194.153 227.013 194.676 227.013 195.222V210.741C227.013 211.011 227.066 211.278 227.17 211.528C227.273 211.777 227.425 212.004 227.616 212.195C227.807 212.386 228.033 212.537 228.283 212.641C228.532 212.744 228.8 212.797 229.07 212.797H244.589C244.859 212.797 245.126 212.744 245.376 212.641C245.625 212.537 245.852 212.386 246.043 212.195C246.234 212.004 246.385 211.777 246.489 211.528C246.592 211.278 246.645 211.011 246.645 210.741V195.222C246.645 194.676 246.429 194.153 246.043 193.768C245.657 193.382 245.134 193.165 244.589 193.165H229.07Z" fill="white"/>
<path d="M237.093 203.233C236.594 203.235 236.105 203.104 235.688 202.856C235.272 202.607 234.947 202.253 234.755 201.838C234.562 201.423 234.511 200.966 234.608 200.524C234.705 200.083 234.945 199.678 235.299 199.36C235.652 199.042 236.102 198.826 236.592 198.739C237.083 198.651 237.591 198.697 238.052 198.87C238.513 199.043 238.906 199.336 239.183 199.711C239.459 200.086 239.605 200.526 239.602 200.975C239.599 201.573 239.334 202.146 238.864 202.569C238.394 202.992 237.758 203.23 237.093 203.233ZM237.093 199.2C236.703 199.2 236.322 199.304 235.997 199.499C235.673 199.694 235.42 199.971 235.271 200.296C235.121 200.62 235.082 200.977 235.158 201.322C235.235 201.666 235.422 201.983 235.698 202.231C235.974 202.479 236.326 202.648 236.709 202.717C237.091 202.785 237.488 202.75 237.848 202.616C238.209 202.481 238.517 202.254 238.734 201.962C238.951 201.67 239.066 201.327 239.066 200.975C239.068 200.742 239.018 200.51 238.92 200.294C238.821 200.078 238.676 199.882 238.492 199.717C238.309 199.551 238.091 199.421 237.85 199.332C237.61 199.243 237.353 199.198 237.093 199.2Z" fill="white"/>
<path d="M237.081 203.233H236.577V207.267H237.081V203.233Z" fill="white"/>
<path d="M289.017 161.098C289.566 158.605 287.99 156.139 285.496 155.59C283.003 155.042 280.537 156.618 279.989 159.111C279.44 161.604 281.016 164.07 283.51 164.619C286.003 165.167 288.469 163.591 289.017 161.098Z" fill="#E0E0E0"/>
<path d="M283.016 161.749C282.997 161.749 282.978 161.745 282.961 161.737C282.943 161.729 282.927 161.718 282.914 161.704C282.901 161.691 282.89 161.676 282.883 161.659C282.875 161.642 282.872 161.624 282.872 161.605C282.872 161.587 282.875 161.568 282.883 161.551C282.89 161.534 282.901 161.519 282.914 161.506L285.909 158.511C285.922 158.498 285.937 158.487 285.954 158.48C285.971 158.472 285.99 158.469 286.008 158.469C286.027 158.469 286.045 158.472 286.062 158.48C286.079 158.487 286.094 158.498 286.107 158.511C286.121 158.524 286.132 158.54 286.139 158.558C286.147 158.575 286.15 158.594 286.15 158.613C286.15 158.632 286.147 158.651 286.139 158.668C286.132 158.686 286.121 158.702 286.107 158.715L283.112 161.704C283.087 161.731 283.053 161.747 283.016 161.749Z" fill="white"/>
<path d="M286.005 161.749C285.969 161.747 285.934 161.731 285.909 161.704L282.914 158.715C282.901 158.702 282.89 158.686 282.882 158.668C282.875 158.651 282.871 158.632 282.871 158.613C282.871 158.594 282.875 158.575 282.882 158.558C282.89 158.54 282.901 158.524 282.914 158.511C282.927 158.498 282.942 158.487 282.959 158.48C282.976 158.472 282.995 158.469 283.013 158.469C283.032 158.469 283.05 158.472 283.067 158.48C283.084 158.487 283.1 158.498 283.112 158.511L286.107 161.506C286.121 161.519 286.131 161.534 286.139 161.551C286.146 161.568 286.15 161.587 286.15 161.605C286.15 161.624 286.146 161.642 286.139 161.659C286.131 161.676 286.121 161.691 286.107 161.704C286.094 161.718 286.078 161.729 286.061 161.737C286.043 161.745 286.025 161.749 286.005 161.749Z" fill="white"/>
<path d="M168.209 366.944C168.209 366.944 153.28 349.76 147.646 332.576C142.012 315.392 144.685 317.364 144.685 317.364C144.685 317.364 152.291 334.056 158.066 342.12C163.841 350.184 174.126 362.011 174.126 362.011L168.209 366.944Z" fill="url(#paint0_linear_2001_270)"/>
<path d="M171.182 320.037C171.081 319.86 170.921 319.724 170.731 319.652C170.54 319.581 170.33 319.578 170.138 319.645C169.946 319.713 169.783 319.845 169.679 320.02C169.574 320.195 169.534 320.401 169.565 320.602C170.475 326.642 172.442 340.803 172.391 349.986C172.295 361.92 172.391 366.532 172.391 366.532H178.607C178.607 366.532 177.477 341.86 176.098 334.322C175.092 329.061 173.001 323.207 171.182 320.037Z" fill="url(#paint1_linear_2001_270)"/>
<path d="M174.572 364.52C177.177 358.62 178.9 352.369 179.686 345.968C180.195 341.578 179.285 335.639 177.929 327.716C177.402 324.819 177.139 321.88 177.143 318.935C177.146 318.607 177.258 318.29 177.461 318.032C177.664 317.775 177.947 317.592 178.265 317.512C178.583 317.433 178.918 317.461 179.218 317.593C179.518 317.725 179.766 317.952 179.923 318.24C180.675 319.579 182.845 324.151 183.399 327.016C184.902 334.836 186.603 338.747 185.303 346.172C184.003 353.597 179.183 365.023 179.183 365.023L174.572 364.52Z" fill="url(#paint2_linear_2001_270)"/>
<path d="M180.166 365.023C180.166 365.023 196.554 329.796 197.684 324.569C198.814 319.342 202.685 307.3 203.137 307.984C203.589 308.667 204.267 315.024 201.323 322.297C198.379 329.57 185.755 366.096 185.755 366.096H180.166" fill="url(#paint3_linear_2001_270)"/>
<path d="M172.775 363.446C172.613 363.356 172.46 363.25 172.317 363.13C172.024 362.91 171.583 362.599 171.046 362.164C169.955 361.305 168.424 359.999 166.638 358.276C162.033 353.731 158.043 348.601 154.772 343.019C151.503 337.433 148.783 331.544 146.651 325.433C145.826 323.094 145.227 321.178 144.838 319.85C144.634 319.184 144.498 318.664 144.402 318.313C144.343 318.129 144.299 317.94 144.272 317.748C144.353 317.916 144.419 318.09 144.47 318.268C144.595 318.647 144.758 319.155 144.967 319.788C145.397 321.105 146.035 323.004 146.883 325.332C149.079 331.397 151.819 337.25 155.071 342.821C158.342 348.377 162.294 353.502 166.836 358.078C168.594 359.824 170.091 361.152 171.153 362.034C171.679 362.486 172.108 362.814 172.38 363.051C172.522 363.172 172.654 363.304 172.775 363.446Z" fill="url(#paint4_linear_2001_270)"/>
<path d="M174.572 346.545C174.487 346.206 174.438 345.86 174.425 345.511C174.346 344.782 174.244 343.815 174.12 342.685C173.86 340.301 173.453 337.034 172.877 333.401C172.3 329.768 171.651 326.541 171.148 324.201C170.905 323.071 170.707 322.139 170.549 321.421C170.457 321.085 170.397 320.74 170.368 320.393C170.502 320.715 170.608 321.047 170.684 321.387C170.865 322.037 171.108 322.975 171.391 324.145C171.956 326.479 172.64 329.728 173.222 333.35C173.804 336.972 174.171 340.267 174.352 342.663C174.448 343.855 174.516 344.827 174.544 345.488C174.583 345.839 174.592 346.192 174.572 346.545Z" fill="url(#paint5_linear_2001_270)"/>
<path d="M178.409 317.963C178.489 318.104 178.554 318.254 178.601 318.409L179.093 319.72C179.313 320.285 179.562 320.986 179.799 321.817C180.036 322.647 180.364 323.574 180.596 324.642L181.003 326.298C181.138 326.863 181.234 327.485 181.359 328.112C181.63 329.361 181.794 330.717 181.992 332.141C182.345 335.239 182.477 338.359 182.387 341.476C182.254 344.594 181.899 347.698 181.325 350.766C181.025 352.167 180.76 353.512 180.409 354.721C180.234 355.337 180.093 355.942 179.918 356.507L179.392 358.157C179.081 359.197 178.697 360.107 178.398 360.915C178.098 361.723 177.833 362.407 177.544 362.955L176.979 364.226C176.92 364.377 176.844 364.521 176.753 364.656C176.792 364.498 176.845 364.345 176.912 364.198C177.047 363.87 177.222 363.441 177.437 362.904C177.652 362.367 177.951 361.661 178.228 360.841C178.505 360.022 178.878 359.146 179.178 358.078C179.336 357.564 179.5 357.021 179.675 356.456C179.85 355.891 179.98 355.292 180.144 354.676C180.483 353.45 180.709 352.116 181.025 350.721C181.576 347.668 181.92 344.581 182.054 341.482C182.143 338.382 182.022 335.28 181.692 332.197C181.5 330.779 181.347 329.428 181.093 328.18C180.974 327.558 180.884 326.948 180.754 326.371C180.624 325.795 180.494 325.241 180.37 324.716C180.149 323.659 179.85 322.727 179.63 321.89C179.409 321.054 179.178 320.353 178.98 319.777L178.556 318.449C178.491 318.292 178.442 318.129 178.409 317.963Z" fill="url(#paint6_linear_2001_270)"/>
<path d="M202.962 308.69C202.968 308.742 202.968 308.796 202.962 308.848C202.962 308.972 202.917 309.119 202.888 309.306C202.815 309.707 202.724 310.3 202.566 311.058C202.25 312.572 201.719 314.753 200.871 317.398C200.023 320.042 198.938 323.15 197.61 326.558C196.283 329.965 194.751 333.684 193.293 337.639C191.835 341.595 190.677 345.443 189.609 348.941C188.541 352.439 187.541 355.58 186.569 358.174C185.825 360.23 184.967 362.243 183.998 364.204C183.664 364.899 183.359 365.418 183.167 365.78L182.935 366.181C182.884 366.272 182.856 366.317 182.851 366.311C182.861 366.26 182.88 366.21 182.907 366.164L183.105 365.746C183.28 365.379 183.563 364.848 183.879 364.141C184.534 362.746 185.427 360.694 186.354 358.089C187.281 355.484 188.275 352.354 189.315 348.85C190.355 345.347 191.502 341.504 192.982 337.549C194.463 333.593 195.989 329.869 197.328 326.467C198.667 323.066 199.809 319.986 200.656 317.353C201.504 314.719 202.063 312.561 202.419 311.058C202.6 310.306 202.713 309.718 202.809 309.317C202.849 309.136 202.888 308.989 202.917 308.871C202.921 308.808 202.936 308.747 202.962 308.69Z" fill="url(#paint7_linear_2001_270)"/>
<path d="M152.415 300.909C152.19 300.69 151.899 300.552 151.587 300.518C151.275 300.484 150.961 300.555 150.694 300.72C150.427 300.885 150.222 301.134 150.114 301.428C150.005 301.723 149.997 302.045 150.093 302.344C150.652 304.157 151.34 305.929 152.15 307.645C154.41 312.431 161.021 329.615 164.124 339.052C167.226 348.489 171.566 366.097 171.566 366.097L178.183 365.023C178.183 365.023 172.131 336.119 166.237 325.671C161.485 317.296 156.727 305.192 152.415 300.909Z" fill="url(#paint8_linear_2001_270)"/>
<path d="M165.915 344.957C166.06 345.206 166.176 345.472 166.26 345.748C166.452 346.268 166.723 347.025 167.023 347.969C167.633 349.856 168.379 352.489 169.125 355.422C169.871 358.355 170.503 361.022 170.939 362.955C171.136 363.864 171.3 364.65 171.436 365.243C171.509 365.522 171.555 365.808 171.572 366.096C171.453 365.833 171.363 365.559 171.3 365.277C171.142 364.672 170.939 363.915 170.696 363.017C170.187 361.028 169.526 358.411 168.786 355.518C168.045 352.625 167.333 349.946 166.785 348.048C166.525 347.149 166.305 346.398 166.13 345.787C166.031 345.518 165.959 345.24 165.915 344.957Z" fill="url(#paint9_linear_2001_270)"/>
<path d="M174.911 365.56C174.892 365.503 174.881 365.444 174.877 365.385C174.877 365.243 174.832 365.074 174.798 364.865C174.73 364.407 174.668 363.735 174.527 362.859C174.284 361.118 173.854 358.615 173.142 355.558C172.295 351.984 171.261 348.457 170.046 344.991C168.684 341.069 166.983 336.831 165.056 332.446C161.163 323.693 157.275 315.923 154.715 310.182C153.427 307.311 152.455 304.978 151.765 303.344C151.432 302.531 151.2 301.892 151.025 301.463C150.946 301.265 150.89 301.101 150.839 300.971C150.813 300.915 150.796 300.856 150.788 300.796C150.822 300.845 150.851 300.898 150.873 300.954L151.087 301.434C151.285 301.887 151.551 302.508 151.895 303.294C152.59 304.904 153.625 307.249 154.941 310.075C157.552 315.776 161.479 323.535 165.378 332.305C167.305 336.696 169.006 340.945 170.351 344.884C171.557 348.366 172.57 351.913 173.385 355.507C173.935 357.933 174.361 360.384 174.663 362.853C174.781 363.723 174.821 364.407 174.872 364.865L174.911 365.39C174.918 365.447 174.918 365.504 174.911 365.56Z" fill="url(#paint10_linear_2001_270)"/>
<path d="M178.206 365.023C178.1 364.653 178.025 364.275 177.98 363.893C177.85 363.119 177.674 362.09 177.465 360.853C177.013 358.287 176.335 354.755 175.312 350.913C174.29 347.07 173.205 343.663 172.346 341.205C171.928 340.018 171.577 339.04 171.312 338.3C171.166 337.951 171.049 337.59 170.961 337.221C171.15 337.55 171.31 337.894 171.442 338.249C171.724 338.922 172.125 339.899 172.572 341.12C173.768 344.305 174.794 347.551 175.646 350.845C176.501 354.136 177.19 357.469 177.708 360.83C177.895 362.118 178.036 363.164 178.11 363.893C178.17 364.267 178.202 364.644 178.206 365.023Z" fill="url(#paint11_linear_2001_270)"/>
<path d="M191.79 364.073H165.96V395.543H191.79V364.073Z" fill="#E6A371"/>
<g opacity="0.3">
<path d="M191.79 364.073H165.96V395.543H191.79V364.073Z" fill="black"/>
</g>
<path d="M183.546 364.073H160.632V395.543H183.546V364.073Z" fill="#E6A371"/>
<path d="M342.735 294.06L329.156 292.094L301.992 296.111L294.369 298.807L295.72 315.477L321.838 320.285L339.457 315.064L346.12 305.26L342.735 294.06Z" fill="#FFBE9D"/>
<path d="M351.296 295.654L339.926 292.975C339.926 292.975 331.896 317.839 312.068 316.748C295.906 315.872 295.72 297.835 295.72 297.835L284.074 301.564C284.074 301.564 279.615 331.44 284.548 352.608C285.678 357.553 287.244 364.215 287.244 364.215L285.667 395.142L371.808 395.277L351.296 295.654Z" fill="#E6A371"/>
<g opacity="0.3">
<path d="M317.526 389.141C321.719 389.033 325.585 389.389 329.777 389.288C334.807 389.163 339.875 389.039 344.842 389.853C348.561 390.469 352.189 391.599 355.907 392.186C360.993 392.989 366.412 392.706 370.932 390.259L370.203 386.038L353.036 381.891L317.526 389.141Z" fill="black"/>
</g>
<path d="M274.349 308.526C278.304 303.44 284.836 301.321 284.836 301.321L289.244 339.685L280.898 395.549L253.559 395.419C253.559 395.419 268.636 315.9 274.349 308.526Z" fill="#E6A371"/>
<path d="M349.968 295.371C349.968 295.371 368.367 296.846 374.967 327.015C377.951 340.651 381.748 356.626 382.816 367.368C383.601 375.155 379.369 387.349 371.605 388.349L361.84 389.66C359.926 389.936 357.977 389.865 356.088 389.451C349.923 388.033 349.307 383.8 348.176 379.28L345.351 370.284C343.791 361.728 351.765 360.112 356.167 360.231L352.884 321.178L349.968 295.371Z" fill="#E6A371"/>
<path d="M282.559 322.653C282.516 322.789 282.488 322.929 282.474 323.071C282.429 323.376 282.367 323.783 282.288 324.286C282.254 324.552 282.209 324.851 282.164 325.168C282.118 325.484 282.096 325.84 282.056 326.219C281.977 326.97 281.887 327.829 281.847 328.784C281.716 331.018 281.701 333.257 281.802 335.492C281.937 338.225 282.208 340.951 282.616 343.657C283.039 346.545 283.571 349.268 284.113 351.732C284.656 354.196 285.181 356.405 285.645 358.259C286.108 360.112 286.498 361.598 286.775 362.627C286.91 363.119 287.018 363.514 287.102 363.808C287.133 363.948 287.178 364.084 287.238 364.215C287.226 364.073 287.199 363.933 287.159 363.797C287.091 363.492 287.001 363.096 286.888 362.599C286.633 361.531 286.277 360.039 285.837 358.208C285.396 356.377 284.887 354.139 284.373 351.676C283.859 349.212 283.322 346.494 282.904 343.618C282.486 340.741 282.192 337.967 282.068 335.475C281.943 332.983 281.938 330.694 282.068 328.796C282.096 327.841 282.169 326.987 282.231 326.23C282.258 325.853 282.286 325.503 282.316 325.179C282.35 324.863 282.384 324.569 282.412 324.297C282.469 323.795 282.514 323.388 282.542 323.077C282.562 322.937 282.567 322.795 282.559 322.653Z" fill="black"/>
<path d="M370.605 370.798C370.592 370.536 370.548 370.276 370.475 370.024C370.294 369.344 370.056 368.68 369.763 368.04C368.797 365.908 367.294 364.062 365.401 362.684C363.508 361.306 361.29 360.443 358.964 360.18C358.265 360.095 357.559 360.072 356.856 360.112C356.597 360.115 356.339 360.148 356.088 360.208C357.032 360.214 357.975 360.272 358.913 360.384C361.187 360.699 363.347 361.571 365.203 362.921C367.059 364.272 368.554 366.059 369.553 368.125C369.95 368.997 370.301 369.889 370.605 370.798Z" fill="black"/>
<path d="M366.355 355.778C366.209 355.741 366.059 355.728 365.909 355.739C365.503 355.731 365.097 355.75 364.694 355.795C363.36 355.931 362.052 356.258 360.812 356.767C359.572 357.282 358.412 357.968 357.365 358.807C357.049 359.059 356.749 359.331 356.466 359.621C356.268 359.83 356.167 359.948 356.178 359.965C356.189 359.982 356.675 359.57 357.495 358.971C359.626 357.406 362.107 356.386 364.722 355.999C365.722 355.852 366.355 355.829 366.355 355.778Z" fill="black"/>
<path d="M347.306 316.748C347.347 316.481 347.363 316.21 347.351 315.94C347.351 315.42 347.385 314.674 347.447 313.753C347.777 308.936 349.097 304.238 351.324 299.954C351.748 299.134 352.115 298.479 352.381 298.038C352.53 297.814 352.656 297.575 352.759 297.326C352.579 297.527 352.418 297.745 352.279 297.976C351.985 298.405 351.59 299.044 351.149 299.858C348.803 304.128 347.469 308.88 347.25 313.747C347.216 314.674 347.216 315.443 347.25 315.946C347.241 316.214 347.26 316.483 347.306 316.748Z" fill="black"/>
<path d="M312.068 344.115C312.08 344.223 312.107 344.33 312.147 344.431C312.215 344.635 312.299 344.946 312.452 345.319C312.864 346.398 313.377 347.437 313.983 348.421C315.989 351.701 318.9 354.332 322.365 355.996C325.831 357.66 329.704 358.287 333.518 357.801C334.669 357.658 335.803 357.41 336.909 357.061C337.299 356.942 337.592 356.812 337.79 356.739C337.894 356.705 337.994 356.662 338.09 356.609C338.09 356.581 337.655 356.728 336.875 356.948C335.765 357.259 334.631 357.475 333.484 357.592C329.714 358.036 325.895 357.399 322.473 355.756C319.051 354.114 316.165 351.532 314.153 348.314C313.538 347.347 313.001 346.332 312.548 345.279C312.271 344.533 312.09 344.104 312.068 344.115Z" fill="black"/>
<path d="M350.844 386.524C350.872 386.496 351.16 386.908 351.849 387.474C352.858 388.235 354.012 388.781 355.24 389.078C357.049 389.531 358.917 389.697 360.778 389.57C362.88 389.417 365.202 389.169 367.61 388.813C369.877 388.519 372.11 388.004 374.278 387.276C375.182 386.878 376.01 386.325 376.724 385.643C377.354 385.052 377.922 384.399 378.42 383.693C379.156 382.673 379.787 381.581 380.301 380.433C380.477 380.02 380.612 379.704 380.697 379.483C380.73 379.368 380.78 379.257 380.844 379.156C380.823 379.273 380.792 379.388 380.753 379.5C380.686 379.732 380.567 380.065 380.403 380.478C379.929 381.657 379.32 382.778 378.589 383.817C378.095 384.541 377.527 385.212 376.894 385.818C376.165 386.528 375.316 387.102 374.385 387.513C372.204 388.271 369.951 388.799 367.66 389.09C365.236 389.451 362.919 389.689 360.8 389.83C358.912 389.941 357.018 389.75 355.189 389.265C353.952 388.946 352.796 388.368 351.799 387.57C351.536 387.343 351.296 387.091 351.081 386.818C350.99 386.731 350.91 386.632 350.844 386.524Z" fill="black"/>
<path d="M347.809 326.354C347.883 326.354 349.826 333.864 352.138 343.177C354.449 352.49 356.263 360.05 356.184 360.073C356.105 360.096 354.166 352.557 351.855 343.245C349.544 333.932 347.73 326.371 347.809 326.354Z" fill="black"/>
<path d="M345.464 368.894C345.404 368.692 345.371 368.483 345.368 368.272C345.311 367.709 345.298 367.142 345.328 366.577C345.393 365.715 345.679 364.883 346.159 364.164C346.431 363.736 346.747 363.338 347.103 362.977C347.496 362.601 347.935 362.275 348.408 362.005C350.082 361.127 351.894 360.542 353.765 360.276C354.327 360.195 354.893 360.146 355.46 360.129C355.668 360.098 355.88 360.098 356.088 360.129C356.088 360.175 355.2 360.208 353.793 360.463C351.964 360.778 350.194 361.376 348.549 362.237C348.096 362.495 347.675 362.806 347.295 363.164C346.952 363.508 346.645 363.887 346.379 364.294C345.912 364.964 345.62 365.742 345.532 366.554C345.482 367.118 345.465 367.684 345.481 368.25C345.5 368.464 345.495 368.68 345.464 368.894Z" fill="black"/>
<g opacity="0.3">
<path d="M283.407 347.986C278.711 340.035 278.609 329.705 282.706 321.427C281.394 330.247 281.677 339.232 283.542 347.952" fill="black"/>
</g>
<path d="M290.894 383.648C292.375 380.856 303.919 373.476 303.919 373.476L300.794 372.753L297.342 374.211C297.081 375.381 296.574 376.483 295.856 377.443C294.59 379.252 292.437 377.381 292.437 377.381L293.895 370.391L300.721 366.283C300.721 366.283 307.14 367.266 308.18 367.763L310.915 370.267C312.119 371.21 315.588 374.923 316.538 375.036C317.487 375.149 347.306 368.453 347.306 368.453C351.392 371.691 353.522 378.116 354.189 382.755C354.189 382.755 354.918 385.015 354.127 386.27L317.549 389.14L309.796 391.282C307.72 392.141 305.593 392.871 303.428 393.469C300.851 394.034 299.116 393.181 299.043 391.774C298.969 390.367 300.975 390.192 300.975 390.192C302.686 389.578 304.351 388.845 305.959 387.999C307.137 387.214 308.106 386.156 308.785 384.914L306.021 385.241C306.021 385.241 300.145 389.321 297.935 390.519C295.726 391.717 295.29 389.519 295.11 388.824C294.929 388.129 301.71 381.529 301.71 381.529C301.71 381.529 295.262 385.484 294.104 386.502C292.945 387.519 291.228 387.807 290.86 387.134C290.493 386.462 289.419 386.439 290.894 383.648Z" fill="#FFBE9D"/>
<path d="M322.686 384.292C322.718 384.144 322.73 383.992 322.72 383.84C322.726 383.662 322.715 383.484 322.686 383.309C322.663 383.074 322.619 382.841 322.556 382.614C322.188 381.294 321.551 380.065 320.685 379.003C319.841 377.938 318.895 376.957 317.86 376.076C317.454 375.688 317.009 375.343 316.532 375.047C316.908 375.46 317.308 375.851 317.73 376.217C318.714 377.133 319.628 378.12 320.465 379.172C321.312 380.207 321.956 381.392 322.364 382.665C322.657 383.648 322.629 384.298 322.686 384.292Z" fill="#EB996E"/>
<path d="M304.185 373.267C304.846 373.365 305.521 373.305 306.154 373.091C306.788 372.878 307.362 372.518 307.83 372.041C307.784 371.979 307.078 372.505 306.067 372.832C305.055 373.16 304.185 373.188 304.185 373.267Z" fill="#EB996E"/>
<path d="M302.264 380.919C304.253 380.295 306.185 379.501 308.039 378.545C307.03 378.812 306.046 379.167 305.1 379.608C304.119 379.964 303.17 380.402 302.264 380.919Z" fill="#EB996E"/>
<path d="M308.457 384.829C308.977 384.71 309.482 384.53 309.96 384.292C310.473 384.143 310.966 383.932 311.429 383.665C310.351 383.775 309.323 384.177 308.457 384.829Z" fill="#EB996E"/>
<path d="M303.23 381.427C303.644 381.713 304.024 382.047 304.36 382.422C304.633 382.849 304.853 383.308 305.016 383.789C305.049 383.789 305.083 383.603 305.016 383.309C304.947 382.927 304.788 382.566 304.552 382.258C304.319 381.949 304.014 381.701 303.665 381.534C303.411 381.41 303.23 381.399 303.23 381.427Z" fill="#EB996E"/>
<path d="M300.506 377.161C300.467 377.229 300.975 377.506 301.309 378.088C301.478 378.462 301.616 378.849 301.721 379.246C301.803 379.03 301.829 378.796 301.796 378.567C301.764 378.337 301.674 378.12 301.535 377.935C301.156 377.28 300.517 377.088 300.506 377.161Z" fill="#EB996E"/>
<path d="M301.422 369.532C301.456 369.532 301.557 369.419 301.642 369.165C301.729 368.832 301.729 368.481 301.642 368.148C301.561 367.813 301.393 367.505 301.156 367.255C300.97 367.069 300.817 367.001 300.794 367.029C301.031 367.4 301.221 367.798 301.359 368.216C301.44 368.65 301.461 369.093 301.422 369.532Z" fill="#EB996E"/>
<path d="M354.426 387.315C354.389 387.036 354.374 386.755 354.381 386.473C354.381 386.202 354.381 385.874 354.341 385.49C354.302 385.106 354.308 384.671 354.251 384.196C354.039 381.688 353.502 379.219 352.652 376.85C352.175 375.556 351.597 374.301 350.923 373.098C350.584 372.533 350.29 372.03 349.951 371.572C349.793 371.34 349.634 371.12 349.482 370.905C349.329 370.691 349.165 370.498 349.013 370.34C347.798 368.843 346.865 368.08 346.911 368.035C347.148 368.185 347.367 368.362 347.566 368.56C347.821 368.774 348.062 369.002 348.289 369.244C348.555 369.521 348.855 369.809 349.177 370.205C349.329 370.397 349.493 370.589 349.663 370.77C349.832 370.95 349.985 371.205 350.154 371.436C350.505 371.894 350.81 372.425 351.154 372.968C351.853 374.177 352.446 375.444 352.929 376.754C353.786 379.141 354.302 381.637 354.46 384.168C354.5 384.648 354.494 385.089 354.505 385.473C354.517 385.857 354.505 386.191 354.505 386.462C354.508 386.748 354.482 387.034 354.426 387.315Z" fill="black"/>
<g opacity="0.3">
<path d="M366.977 361.18C363.547 359.764 359.768 359.419 356.138 360.191C359.259 360.048 362.346 360.882 364.969 362.578C367.591 364.274 369.619 366.747 370.768 369.651C371.028 370.352 371.548 371.182 372.294 371.075C373.04 370.967 373.243 370.103 373.243 369.408C373.249 365.752 370.35 362.587 366.977 361.18Z" fill="black"/>
</g>
<path d="M282.322 320.065C282.153 320.034 281.989 319.979 281.836 319.901C281.525 319.783 281.09 319.585 280.559 319.336C279.173 318.644 277.849 317.833 276.603 316.912C275.362 315.995 274.201 314.974 273.134 313.86C272.727 313.431 272.405 313.069 272.201 312.815C271.998 312.561 271.885 312.408 271.902 312.391C271.919 312.374 272.433 312.9 273.281 313.714C274.382 314.776 275.55 315.767 276.778 316.68C278.01 317.586 279.299 318.411 280.638 319.15C281.7 319.732 282.356 320.026 282.322 320.065Z" fill="white"/>
<path d="M347.572 322.195C347.529 322.234 347.482 322.266 347.431 322.291L346.995 322.551C346.617 322.783 346.04 323.117 345.3 323.489C343.179 324.578 340.978 325.506 338.717 326.264C335.358 327.375 331.912 328.203 328.416 328.739C324.134 329.377 319.815 329.735 315.486 329.813C310.881 329.92 306.496 329.813 302.49 329.745C298.954 329.695 295.425 329.429 291.923 328.948C289.559 328.613 287.23 328.072 284.961 327.332C284.164 327.061 283.548 326.835 283.141 326.66L282.678 326.462C282.623 326.443 282.57 326.418 282.52 326.388L282.689 326.434L283.164 326.603C283.576 326.761 284.198 326.97 285 327.225C287.273 327.915 289.597 328.423 291.951 328.745C295.449 329.192 298.969 329.435 302.495 329.474C306.451 329.547 310.858 329.626 315.453 329.519C319.769 329.443 324.076 329.092 328.348 328.468C331.834 327.95 335.272 327.146 338.627 326.066C340.886 325.328 343.092 324.433 345.227 323.388C345.978 323.015 346.56 322.715 346.922 322.501L347.368 322.269C347.515 322.212 347.566 322.19 347.572 322.195Z" fill="white"/>
<path d="M282.537 342.335C282.298 342.313 282.063 342.264 281.836 342.188L279.954 341.674C278.372 341.227 276.191 340.589 273.783 339.871C271.376 339.153 269.206 338.481 267.635 337.984L265.782 337.385C265.552 337.319 265.329 337.232 265.115 337.125C265.354 337.147 265.589 337.196 265.816 337.272L267.698 337.786C269.28 338.232 271.461 338.871 273.868 339.589C276.275 340.306 278.445 340.973 280.016 341.47L281.87 342.075C282.101 342.138 282.324 342.225 282.537 342.335Z" fill="white"/>
<path d="M284.181 373.567C284.181 373.64 278.53 372.024 271.58 369.95C264.629 367.877 259.04 366.13 259.063 366.051C259.086 365.972 264.714 367.588 271.664 369.668C278.615 371.747 284.204 373.488 284.181 373.567Z" fill="white"/>
<path d="M365.852 305.994C365.662 306.179 365.454 306.344 365.231 306.486C364.824 306.785 364.213 307.204 363.451 307.701C359.46 310.282 355.179 312.386 350.697 313.968C349.838 314.267 349.137 314.493 348.645 314.634C348.397 314.725 348.139 314.789 347.877 314.827C348.112 314.705 348.358 314.604 348.612 314.527L350.629 313.776C352.324 313.126 354.647 312.165 357.133 310.95C359.619 309.735 361.801 308.481 363.349 307.531L365.18 306.401C365.39 306.244 365.615 306.108 365.852 305.994Z" fill="white"/>
<path d="M377.109 338.103C376.814 338.27 376.508 338.415 376.193 338.538C375.6 338.803 374.718 339.154 373.622 339.555C367.892 341.642 361.875 342.839 355.782 343.103C354.613 343.154 353.669 343.166 353.014 343.143C352.676 343.151 352.338 343.135 352.002 343.098C352.337 343.047 352.675 343.024 353.014 343.03C353.663 343.03 354.607 342.974 355.771 342.894C358.798 342.702 361.809 342.311 364.784 341.725C367.757 341.127 370.689 340.338 373.56 339.363C374.662 338.984 375.549 338.662 376.159 338.43C376.466 338.294 376.783 338.184 377.109 338.103Z" fill="white"/>
<path d="M360.868 389.457C360.864 389.351 360.873 389.244 360.896 389.141C360.93 388.909 360.981 388.615 361.038 388.254C361.094 387.892 361.179 387.395 361.235 386.841C361.292 386.287 361.388 385.665 361.411 384.965C361.411 384.62 361.456 384.253 361.478 383.874C361.501 383.496 361.478 383.094 361.478 382.687C361.478 381.868 361.445 380.992 361.399 380.071C361.251 378.076 360.947 376.096 360.49 374.149C360.01 372.207 359.381 370.304 358.608 368.459C358.224 367.622 357.879 366.814 357.478 366.097C357.286 365.735 357.11 365.379 356.913 365.046L356.348 364.108C356.003 363.497 355.63 362.977 355.33 362.52C355.031 362.062 354.765 361.666 354.511 361.356L353.98 360.627C353.912 360.546 353.855 360.457 353.81 360.361C353.889 360.43 353.961 360.505 354.025 360.587L354.59 361.288C354.898 361.649 355.186 362.026 355.455 362.418C355.771 362.876 356.155 363.384 356.511 363.989L357.076 364.927C357.274 365.255 357.455 365.616 357.642 365.978C358.048 366.696 358.41 367.504 358.772 368.346C360.4 372.048 361.356 376.011 361.597 380.049C361.631 380.975 361.682 381.857 361.648 382.682C361.648 383.094 361.648 383.496 361.614 383.88C361.58 384.264 361.558 384.626 361.529 384.976C361.49 385.682 361.377 386.304 361.303 386.858C361.23 387.412 361.145 387.886 361.06 388.265C360.976 388.643 360.913 388.915 360.863 389.152C360.875 389.253 360.877 389.356 360.868 389.457Z" fill="white"/>
<path d="M382.669 372.137C382.641 372.137 382.624 371.674 382.494 370.86C382.294 369.711 381.913 368.601 381.364 367.571C380.559 366.043 379.477 364.679 378.171 363.548C376.58 362.153 374.737 361.075 372.741 360.372C370.733 359.702 368.635 359.336 366.519 359.287C364.787 359.239 363.054 359.305 361.332 359.485C359.857 359.621 358.664 359.773 357.839 359.864L356.89 359.965C356.779 359.981 356.667 359.981 356.557 359.965C356.66 359.927 356.769 359.902 356.879 359.892L357.822 359.734C358.642 359.604 359.834 359.429 361.309 359.259C363.041 359.053 364.786 358.966 366.53 358.999C368.675 359.042 370.802 359.409 372.837 360.09C374.868 360.809 376.74 361.914 378.352 363.345C379.672 364.504 380.758 365.907 381.55 367.475C382.086 368.538 382.436 369.685 382.584 370.866C382.629 371.184 382.651 371.505 382.652 371.827C382.669 371.929 382.675 372.033 382.669 372.137Z" fill="white"/>
<path d="M321.878 355.778C321.773 355.81 321.665 355.829 321.555 355.835L320.634 355.931L317.244 356.213C314.379 356.434 310.418 356.705 306.044 356.931C301.67 357.157 297.698 357.298 294.821 357.332C293.386 357.332 292.222 357.332 291.431 357.332H290.51C290.401 357.336 290.293 357.324 290.188 357.298C290.294 357.276 290.402 357.267 290.51 357.27H291.431L294.821 357.185C297.686 357.1 301.653 356.931 306.027 356.699L317.227 356.066L320.617 355.874L321.544 355.835C321.652 355.801 321.764 355.782 321.878 355.778Z" fill="white"/>
<g opacity="0.3">
<path d="M325.161 356.954C328.721 357.999 333.637 358.253 337.123 356.954C334.411 360.813 329.173 362.209 324.624 360.954C320.075 359.7 315.888 355.151 315.537 350.444C317.741 353.411 321.601 355.897 325.161 356.954Z" fill="black"/>
</g>
<path d="M354.031 353.23C353.937 353.264 353.841 353.29 353.742 353.309L352.923 353.484C352.205 353.631 351.171 353.823 349.883 354.049C347.312 354.501 343.746 355.055 339.796 355.541C335.846 356.027 332.247 356.343 329.625 356.524C328.325 356.614 327.268 356.677 326.539 356.705L325.703 356.733C325.606 356.749 325.507 356.749 325.409 356.733C325.504 356.709 325.6 356.694 325.697 356.688L326.534 356.603L329.608 356.326C332.207 356.095 335.79 355.761 339.745 355.258C343.701 354.755 347.255 354.252 349.832 353.857L352.884 353.382L353.72 353.263C353.821 353.234 353.926 353.222 354.031 353.23Z" fill="white"/>
<g opacity="0.3">
<path d="M348.109 328.072C347.216 338.3 350.002 348.449 352.765 358.338C352.888 358.952 353.147 359.532 353.522 360.033C353.716 360.284 353.986 360.465 354.292 360.549C354.597 360.634 354.922 360.617 355.217 360.502C356.082 360.062 355.963 358.807 355.72 357.88L348.041 328.496" fill="black"/>
</g>
<path d="M205.03 338.261L216.642 395.277H317.453C317.987 395.277 318.498 395.065 318.875 394.688C319.253 394.311 319.465 393.799 319.465 393.266C319.465 392.732 319.253 392.221 318.875 391.843C318.498 391.466 317.987 391.254 317.453 391.254H297.155L286.39 338.227C286.29 337.733 286.023 337.289 285.634 336.968C285.245 336.647 284.758 336.469 284.254 336.464L207.211 335.622C206.883 335.618 206.558 335.687 206.26 335.825C205.962 335.963 205.698 336.166 205.489 336.419C205.28 336.672 205.13 336.969 205.051 337.288C204.971 337.607 204.964 337.939 205.03 338.261Z" fill="#E0E0E0"/>
<path d="M205.03 338.261C205.015 338.205 205.004 338.148 204.996 338.091C204.974 337.919 204.974 337.744 204.996 337.571C205.036 337.231 205.153 336.903 205.338 336.615C205.523 336.326 205.771 336.083 206.064 335.904C206.271 335.782 206.496 335.694 206.731 335.644C206.992 335.596 207.257 335.579 207.522 335.594H209.336L213.857 335.633L242.987 335.91L263.296 336.113L274.676 336.232L280.644 336.294L283.689 336.322C283.949 336.322 284.192 336.322 284.469 336.322C284.741 336.349 285.005 336.426 285.249 336.549C285.753 336.785 286.155 337.197 286.379 337.707C286.478 337.956 286.548 338.216 286.588 338.481L286.746 339.25C286.848 339.758 286.956 340.272 287.057 340.787C287.272 341.821 287.481 342.86 287.696 343.9L288.984 350.246C289.854 354.522 290.743 358.897 291.651 363.373C293.471 372.313 295.364 381.608 297.302 391.192L297.167 391.079H317.125C317.388 391.066 317.651 391.082 317.911 391.124C318.451 391.258 318.92 391.594 319.222 392.062C319.393 392.311 319.51 392.594 319.566 392.891C319.621 393.188 319.613 393.494 319.543 393.788C319.472 394.082 319.341 394.358 319.157 394.598C318.974 394.838 318.741 395.037 318.476 395.181C318.184 395.339 317.858 395.426 317.526 395.436H291.267H263.974H216.642H216.558V395.351C213.003 377.833 210.116 363.571 208.115 353.693C207.126 348.754 206.352 344.912 205.827 342.301C205.567 340.996 205.369 340.001 205.262 339.329C205.154 338.656 205.075 338.312 205.075 338.312C205.075 338.312 205.154 338.656 205.296 339.323L205.917 342.284C206.454 344.895 207.245 348.737 208.262 353.665L216.795 395.311L216.688 395.221H264.019H317.566C317.854 395.21 318.136 395.135 318.391 395.001C318.622 394.874 318.824 394.7 318.983 394.491C319.143 394.281 319.256 394.041 319.317 393.785C319.378 393.528 319.384 393.262 319.336 393.004C319.287 392.745 319.185 392.499 319.035 392.283C318.77 391.893 318.365 391.62 317.905 391.52C317.664 391.481 317.42 391.466 317.176 391.474H297.042V391.367C295.098 381.761 293.217 372.482 291.391 363.542C290.484 359.075 289.596 354.699 288.73 350.416L287.408 343.985C287.199 342.94 286.989 341.905 286.78 340.871C286.673 340.357 286.571 339.843 286.464 339.329L286.311 338.566C286.274 338.316 286.208 338.071 286.114 337.837C285.925 337.387 285.582 337.019 285.147 336.797C284.929 336.69 284.694 336.621 284.452 336.594C284.215 336.594 283.944 336.594 283.695 336.594L280.644 336.56L274.676 336.492L263.301 336.356L242.992 336.119L213.862 335.763L209.342 335.701L207.528 335.673C207.267 335.657 207.006 335.67 206.748 335.712C206.52 335.763 206.3 335.849 206.098 335.966C205.807 336.138 205.559 336.373 205.374 336.656C205.189 336.938 205.071 337.259 205.03 337.594C205.002 337.815 205.002 338.039 205.03 338.261Z" fill="black"/>
<path d="M251.48 364.373C251.48 365.031 251.285 365.675 250.919 366.222C250.553 366.769 250.033 367.196 249.425 367.448C248.817 367.7 248.148 367.766 247.502 367.637C246.856 367.509 246.263 367.192 245.798 366.726C245.332 366.261 245.015 365.668 244.887 365.022C244.759 364.377 244.824 363.707 245.076 363.099C245.328 362.491 245.755 361.971 246.302 361.606C246.85 361.24 247.493 361.045 248.151 361.045C249.034 361.045 249.881 361.395 250.505 362.02C251.129 362.644 251.48 363.49 251.48 364.373Z" fill="white"/>
<path d="M205.12 338.724C205.12 338.724 205.239 338.724 205.471 338.724H210.41L224.825 338.792L272.376 339.125L279.253 339.182H280.949C281.238 339.168 281.528 339.185 281.813 339.233C282.103 339.289 282.379 339.401 282.627 339.56C283.131 339.879 283.496 340.375 283.65 340.951C283.78 341.516 283.87 342.036 283.983 342.578C284.836 346.873 285.678 351.015 286.441 354.959C288.001 362.87 289.408 369.962 290.583 375.935L293.358 390.062C293.674 391.729 293.923 393.023 294.098 393.91C294.177 394.345 294.239 394.678 294.285 394.916C294.33 395.153 294.335 395.255 294.335 395.255C294.335 395.255 294.302 395.142 294.256 394.921C294.211 394.701 294.132 394.356 294.042 393.921C293.861 393.034 293.595 391.746 293.251 390.084C292.572 386.739 291.6 381.913 290.391 375.957L286.187 354.993C285.402 351.037 284.571 346.907 283.718 342.612C283.605 342.081 283.503 341.527 283.39 341.007C283.25 340.499 282.925 340.062 282.48 339.781C282.258 339.646 282.013 339.554 281.757 339.51C281.49 339.466 281.219 339.45 280.949 339.464H279.253L272.376 339.414L224.819 338.995L210.41 338.837L206.488 338.781H205.471L205.12 338.724Z" fill="black"/>
<path d="M339.751 252.131C339.867 257.403 338.866 262.64 336.813 267.497C334.76 272.354 331.701 276.721 327.839 280.312C326.057 275.169 324.281 270.027 322.51 264.885" fill="black"/>
<path d="M299.608 221.447C304.179 218.949 309.7 218.588 314.808 219.611C319.917 220.633 324.675 222.944 329.184 225.555C331.716 227.019 334.236 228.629 336.055 230.912C339.372 235.088 342.656 241.948 342.972 247.299C343.232 251.605 341.582 262.382 339.762 266.292C338.095 269.88 330.28 272.615 326.421 273.502L291.024 232.308C291.664 230.019 292.752 227.88 294.226 226.016C295.699 224.151 297.529 222.598 299.608 221.447Z" fill="black"/>
<path d="M293.505 226.996L301.981 225.482C297.342 236.529 296.082 261.788 293.431 273.474C290.301 268.953 283.04 255.109 283.429 249.611C283.819 244.112 283.452 226.064 293.505 226.996Z" fill="black"/>
<path d="M333.744 245.384C333.287 238.931 329.105 233.641 322.838 232.042L303.292 227.058C294.85 226.149 289.21 236.535 288.656 245.011C288.04 254.431 287.662 264.365 288.764 271.395C290.973 285.522 301.8 287.352 301.8 287.352C301.8 287.352 301.8 294.077 301.8 298.202L308.338 325.275L329.41 296.162L333.773 245.565C333.789 245.316 333.744 245.706 333.744 245.384Z" fill="#FFBE9D"/>
<path d="M292.9 255.685C292.895 256.158 293.075 256.613 293.401 256.955C293.727 257.297 294.174 257.498 294.646 257.516C294.877 257.535 295.109 257.507 295.329 257.434C295.548 257.362 295.751 257.246 295.926 257.094C296.1 256.941 296.242 256.756 296.343 256.548C296.445 256.34 296.504 256.114 296.517 255.883C296.521 255.411 296.342 254.957 296.018 254.615C295.693 254.273 295.247 254.071 294.776 254.052C294.545 254.033 294.313 254.06 294.092 254.132C293.872 254.205 293.668 254.32 293.493 254.472C293.318 254.625 293.176 254.81 293.074 255.019C292.972 255.227 292.913 255.454 292.9 255.685Z" fill="black"/>
<path d="M290.798 250.543C291.024 250.78 292.397 249.769 294.347 249.775C296.296 249.78 297.737 250.763 297.935 250.526C298.042 250.419 297.811 249.995 297.189 249.537C296.347 248.951 295.344 248.639 294.319 248.644C293.305 248.641 292.316 248.957 291.493 249.548C290.872 250.012 290.668 250.436 290.798 250.543Z" fill="black"/>
<path d="M309.898 255.685C309.893 256.158 310.073 256.613 310.399 256.955C310.725 257.297 311.172 257.498 311.644 257.516C311.875 257.535 312.108 257.508 312.328 257.435C312.549 257.363 312.752 257.246 312.927 257.093C313.101 256.941 313.243 256.754 313.344 256.545C313.445 256.336 313.503 256.109 313.514 255.877C313.519 255.406 313.34 254.951 313.015 254.609C312.69 254.267 312.245 254.066 311.774 254.046C311.542 254.027 311.309 254.055 311.089 254.127C310.868 254.2 310.664 254.316 310.489 254.469C310.314 254.622 310.172 254.808 310.07 255.017C309.968 255.226 309.91 255.453 309.898 255.685Z" fill="black"/>
<path d="M309.293 250.543C309.519 250.781 310.898 249.769 312.848 249.775C314.797 249.78 316.238 250.764 316.436 250.526C316.538 250.419 316.312 249.995 315.69 249.537C314.852 248.957 313.856 248.645 312.836 248.645C311.823 248.643 310.835 248.959 310.011 249.549C309.389 250.012 309.186 250.436 309.293 250.543Z" fill="black"/>
<path d="M303.23 265.857C303.23 265.75 302.026 265.535 300.06 265.292C299.563 265.241 299.093 265.139 299.009 264.8C298.968 264.285 299.086 263.77 299.348 263.325C299.819 262.124 300.312 260.86 300.828 259.534C302.885 254.143 304.371 249.707 304.157 249.628C303.942 249.549 302.094 253.849 300.037 259.234C299.54 260.56 299.067 261.83 298.619 263.043C298.304 263.643 298.21 264.335 298.353 264.998C298.425 265.174 298.536 265.331 298.678 265.458C298.82 265.584 298.989 265.676 299.173 265.727C299.446 265.806 299.73 265.846 300.015 265.846C301.964 265.959 303.19 265.97 303.23 265.857Z" fill="black"/>
<path d="M320.544 282.318C320.544 282.318 315.944 292.043 301.806 290.67V287.347C308.397 287.438 314.884 285.697 320.544 282.318Z" fill="#EB996E"/>
<path d="M309.909 243.497C310.101 244.028 312.045 243.779 314.334 244.062C316.622 244.344 318.47 244.971 318.775 244.497C318.911 244.265 318.589 243.768 317.843 243.254C316.853 242.619 315.725 242.231 314.554 242.123C313.384 241.98 312.198 242.116 311.09 242.519C310.248 242.83 309.824 243.242 309.909 243.497Z" fill="black"/>
<path d="M291.414 244.576C291.753 245.022 293.109 244.576 294.714 244.548C296.319 244.519 297.698 244.853 298.014 244.389C298.15 244.163 297.935 243.723 297.342 243.299C296.539 242.796 295.606 242.542 294.66 242.569C293.714 242.597 292.796 242.903 292.024 243.451C291.448 243.903 291.261 244.361 291.414 244.576Z" fill="black"/>
<path d="M292.493 232.099C293.358 229.974 295.692 228.708 297.98 228.584C300.269 228.46 302.501 229.335 304.501 230.483C312.915 235.348 317.244 247.096 325.556 252.131C327.602 253.368 330.263 252.233 332.004 253.871C333.744 255.51 334.869 258.132 333.908 260.319C335.099 258.84 336.072 257.198 336.796 255.442C337.429 253.651 337.508 251.577 336.558 249.933C335.841 248.684 334.569 247.735 334.225 246.339C333.914 245.107 334.4 243.824 334.349 242.558C334.205 241.272 333.762 240.037 333.055 238.953C329.794 233.195 325.313 227.985 319.544 224.741C315.777 222.567 311.489 221.459 307.14 221.537C302.766 221.635 298.572 223.297 295.319 226.222C293.46 227.957 291.504 229.748 292.493 232.099Z" fill="black"/>
<path d="M331.8 255.623C331.947 255.216 339.322 252.561 339.418 260.393C339.514 268.004 331.834 266.507 331.817 266.286C331.8 266.066 331.8 255.623 331.8 255.623Z" fill="#FFBE9D"/>
<path d="M334.14 263.382C334.174 263.382 334.27 263.472 334.496 263.574C334.815 263.701 335.171 263.701 335.49 263.574C336.287 263.275 336.954 261.986 336.977 260.619C336.992 259.965 336.861 259.316 336.592 258.72C336.517 258.483 336.386 258.268 336.21 258.093C336.034 257.918 335.818 257.788 335.581 257.714C335.429 257.675 335.268 257.69 335.127 257.757C334.985 257.824 334.872 257.939 334.807 258.081C334.705 258.296 334.756 258.449 334.711 258.46C334.665 258.471 334.547 258.336 334.609 258.019C334.65 257.832 334.754 257.665 334.903 257.545C335.005 257.464 335.122 257.405 335.247 257.37C335.372 257.335 335.503 257.325 335.632 257.341C335.945 257.4 336.239 257.538 336.483 257.743C336.728 257.948 336.915 258.212 337.027 258.511C337.36 259.165 337.525 259.891 337.508 260.624C337.474 262.161 336.705 263.602 335.603 263.93C335.401 263.992 335.187 264.007 334.978 263.974C334.768 263.942 334.569 263.863 334.394 263.744C334.151 263.568 334.112 263.399 334.14 263.382Z" fill="#EB996E"/>
<path d="M334.829 251.713C334.67 251.641 334.516 251.556 334.371 251.459C334.078 251.272 333.626 251.023 333.094 250.645C331.594 249.548 330.214 248.294 328.981 246.904C327.186 244.824 325.509 242.645 323.957 240.377C322.088 237.599 319.988 234.982 317.679 232.557C316.447 231.345 315.086 230.27 313.622 229.353C312.249 228.516 310.781 227.848 309.248 227.363C306.646 226.529 303.91 226.193 301.184 226.375C299.345 226.487 297.528 226.842 295.782 227.431C295.155 227.623 294.691 227.832 294.369 227.957C294.209 228.03 294.043 228.089 293.872 228.132C294.023 228.042 294.179 227.962 294.341 227.895C294.794 227.678 295.26 227.489 295.737 227.33C297.482 226.68 299.31 226.284 301.167 226.154C303.926 225.928 306.702 226.235 309.344 227.058C310.907 227.54 312.404 228.212 313.803 229.059C315.289 229.99 316.67 231.079 317.922 232.308C320.245 234.758 322.352 237.405 324.217 240.219C325.752 242.487 327.404 244.673 329.167 246.768C330.376 248.161 331.718 249.433 333.174 250.566C333.693 250.956 334.129 251.221 334.405 251.425C334.554 251.509 334.696 251.605 334.829 251.713Z" fill="#455A64"/>
<path d="M335.004 264.726C335.379 264.657 335.766 264.734 336.086 264.94C336.407 265.146 336.636 265.466 336.729 265.836C336.821 266.206 336.769 266.597 336.583 266.929C336.398 267.262 336.092 267.511 335.729 267.626C335.366 267.742 334.973 267.714 334.629 267.55C334.285 267.385 334.018 267.096 333.88 266.741C333.742 266.385 333.745 265.991 333.888 265.638C334.03 265.285 334.303 264.999 334.648 264.84" fill="white"/>
<path d="M334.648 264.84C334.322 265.103 334.083 265.46 333.965 265.862C333.911 266.07 333.909 266.288 333.96 266.496C334.012 266.704 334.114 266.896 334.259 267.055C334.428 267.255 334.654 267.401 334.906 267.473C335.158 267.546 335.427 267.543 335.677 267.464C335.928 267.385 336.149 267.234 336.314 267.029C336.479 266.825 336.58 266.576 336.604 266.314C336.627 266.103 336.598 265.89 336.519 265.693C336.44 265.496 336.314 265.321 336.152 265.184C335.829 264.925 335.434 264.772 335.021 264.743C335.021 264.743 335.134 264.664 335.377 264.659C335.722 264.661 336.056 264.779 336.327 264.992C336.538 265.149 336.706 265.358 336.813 265.598C336.92 265.839 336.962 266.103 336.937 266.365C336.916 266.693 336.796 267.007 336.593 267.265C336.391 267.524 336.115 267.716 335.802 267.815C335.489 267.915 335.153 267.917 334.838 267.823C334.524 267.729 334.245 267.542 334.038 267.286C333.867 267.087 333.75 266.848 333.698 266.59C333.647 266.333 333.663 266.067 333.744 265.817C333.834 265.488 334.033 265.199 334.309 264.998C334.507 264.845 334.643 264.823 334.648 264.84Z" fill="black"/>
<path d="M332.914 253.866C333.032 255.945 333.128 258.138 332.168 259.986C331.207 261.834 328.777 263.094 326.98 262.06C325.505 261.218 325.065 259.325 324.81 257.646C324.093 252.798 323.759 247.899 322.996 243.056L332.914 253.866Z" fill="black"/>
<path d="M294.369 228.482C294.369 228.522 295.042 228.352 296.257 228.313C297.981 228.286 299.694 228.599 301.297 229.234C302.403 229.662 303.46 230.208 304.45 230.861C305.585 231.623 306.672 232.453 307.705 233.348C310.099 235.372 312.24 237.68 314.079 240.219C315.046 241.575 315.905 242.971 316.831 244.265C317.712 245.523 318.736 246.674 319.883 247.695C321.856 249.368 324.014 250.81 326.313 251.995C328.263 253.024 329.89 253.747 331.015 254.256L332.315 254.821C332.464 254.894 332.622 254.951 332.784 254.99C332.65 254.893 332.506 254.812 332.354 254.747L331.083 254.12C329.953 253.555 328.376 252.809 326.46 251.752C324.202 250.536 322.084 249.077 320.143 247.401C319.023 246.391 318.025 245.253 317.17 244.011C316.261 242.734 315.407 241.338 314.43 239.965C312.57 237.398 310.399 235.073 307.965 233.042C306.91 232.146 305.801 231.315 304.643 230.556C303.625 229.903 302.539 229.363 301.405 228.946C299.761 228.323 298.006 228.05 296.251 228.143C295.777 228.171 295.307 228.237 294.844 228.341C294.68 228.366 294.52 228.414 294.369 228.482Z" fill="#455A64"/>
<path d="M333.123 249.164C333.328 249.341 333.554 249.493 333.795 249.616L335.728 250.747L336.372 251.114C336.626 251.268 336.912 251.362 337.208 251.391C337.388 251.41 337.569 251.368 337.722 251.272C337.804 251.215 337.872 251.14 337.921 251.053C337.97 250.966 337.999 250.869 338.005 250.769C337.988 250.42 337.864 250.084 337.649 249.808L335.389 246.226L335.084 246.503C336.576 247.602 338.404 248.147 340.254 248.045C340.491 248.044 340.725 248.004 340.949 247.927C341.074 247.886 341.189 247.819 341.287 247.73C341.384 247.642 341.462 247.533 341.514 247.413C341.557 247.284 341.568 247.146 341.546 247.012C341.523 246.878 341.467 246.752 341.384 246.644C341.258 246.471 341.115 246.312 340.955 246.169C339.95 245.198 339.078 244.098 338.361 242.898C337.729 241.77 337.178 240.599 336.711 239.394C336.746 239.744 336.828 240.088 336.954 240.417C337.238 241.331 337.617 242.214 338.084 243.05C338.779 244.296 339.646 245.438 340.661 246.441C340.943 246.712 341.226 247.006 341.119 247.26C341.011 247.514 340.593 247.622 340.192 247.622C339.322 247.665 338.45 247.56 337.615 247.311C336.783 247.067 335.998 246.685 335.293 246.181L334.388 245.514L334.993 246.458L337.253 250.012C337.43 250.225 337.542 250.484 337.576 250.758C337.576 250.973 337.383 251.097 337.14 251.08C336.652 250.984 336.187 250.792 335.773 250.515L333.784 249.498C333.576 249.364 333.354 249.252 333.123 249.164Z" fill="#455A64"/>
<path d="M310.615 269.439C310.474 268.86 310.133 268.35 309.652 267.996C309.172 267.643 308.583 267.47 307.988 267.507C307.553 267.56 307.139 267.721 306.781 267.974C306.424 268.228 306.136 268.566 305.942 268.959C305.753 269.354 305.645 269.784 305.624 270.221C305.604 270.659 305.672 271.097 305.824 271.508L305.869 271.688C306.275 272.126 306.806 272.427 307.389 272.552C307.973 272.676 308.58 272.617 309.129 272.384C309.667 272.125 310.104 271.696 310.373 271.164C310.641 270.632 310.727 270.025 310.615 269.439Z" fill="#EB996E"/>
<path d="M304.45 271.745C304.45 271.451 306.423 271.541 307.909 269.925C309.395 268.309 309.276 266.196 309.553 266.196C309.677 266.196 309.915 266.682 309.892 267.575C309.852 268.728 309.405 269.831 308.632 270.688C307.886 271.513 306.848 272.015 305.739 272.09C304.925 272.124 304.433 271.881 304.45 271.745Z" fill="black"/>
<path d="M370.881 391.497C370.838 391.503 370.795 391.503 370.751 391.497L370.356 391.537L368.847 391.661C367.536 391.768 365.637 391.893 363.287 392.034C358.591 392.311 352.098 392.599 344.922 392.718C337.745 392.836 331.235 392.769 326.534 392.644C324.183 392.588 322.279 392.52 320.968 392.463L319.453 392.384H320.968L326.539 392.48C331.241 392.548 337.739 392.582 344.916 392.48C352.092 392.379 358.58 392.107 363.275 391.881L368.841 391.604L370.356 391.537H370.746L370.881 391.497Z" fill="white"/>
<defs>
<linearGradient id="paint0_linear_2001_270" x1="147.115" y1="326.992" x2="178.176" y2="339.317" gradientUnits="userSpaceOnUse">
<stop stop-color="#F0DB92"/>
<stop offset="1" stop-color="#BF9033"/>
</linearGradient>
<linearGradient id="paint1_linear_2001_270" x1="170.477" y1="328.764" x2="181.128" y2="330.109" gradientUnits="userSpaceOnUse">
<stop stop-color="#F0DB92"/>
<stop offset="1" stop-color="#BF9033"/>
</linearGradient>
<linearGradient id="paint2_linear_2001_270" x1="175.712" y1="326.756" x2="188.782" y2="328.771" gradientUnits="userSpaceOnUse">
<stop stop-color="#F0DB92"/>
<stop offset="1" stop-color="#BF9033"/>
</linearGradient>
<linearGradient id="paint3_linear_2001_270" x1="182.547" y1="319.311" x2="208.679" y2="326.193" gradientUnits="userSpaceOnUse">
<stop stop-color="#F0DB92"/>
<stop offset="1" stop-color="#BF9033"/>
</linearGradient>
<linearGradient id="paint4_linear_2001_270" x1="138.625" y1="281.884" x2="192.287" y2="341.18" gradientUnits="userSpaceOnUse">
<stop stop-color="#F0DB92"/>
<stop offset="1" stop-color="#BF9033"/>
</linearGradient>
<linearGradient id="paint5_linear_2001_270" x1="169.533" y1="299.868" x2="185.827" y2="304.52" gradientUnits="userSpaceOnUse">
<stop stop-color="#F0DB92"/>
<stop offset="1" stop-color="#BF9033"/>
</linearGradient>
<linearGradient id="paint6_linear_2001_270" x1="175.632" y1="281.318" x2="198.26" y2="286.178" gradientUnits="userSpaceOnUse">
<stop stop-color="#F0DB92"/>
<stop offset="1" stop-color="#BF9033"/>
</linearGradient>
<linearGradient id="paint7_linear_2001_270" x1="178.865" y1="263.467" x2="239.707" y2="301.097" gradientUnits="userSpaceOnUse">
<stop stop-color="#F0DB92"/>
<stop offset="1" stop-color="#BF9033"/>
</linearGradient>
<linearGradient id="paint8_linear_2001_270" x1="152.894" y1="313.32" x2="184.087" y2="322.091" gradientUnits="userSpaceOnUse">
<stop stop-color="#F0DB92"/>
<stop offset="1" stop-color="#BF9033"/>
</linearGradient>
<linearGradient id="paint9_linear_2001_270" x1="164.794" y1="328.366" x2="184.107" y2="337.521" gradientUnits="userSpaceOnUse">
<stop stop-color="#F0DB92"/>
<stop offset="1" stop-color="#BF9033"/>
</linearGradient>
<linearGradient id="paint10_linear_2001_270" x1="146.007" y1="249.968" x2="216.284" y2="296.353" gradientUnits="userSpaceOnUse">
<stop stop-color="#F0DB92"/>
<stop offset="1" stop-color="#BF9033"/>
</linearGradient>
<linearGradient id="paint11_linear_2001_270" x1="169.526" y1="315.401" x2="194.497" y2="326.929" gradientUnits="userSpaceOnUse">
<stop stop-color="#F0DB92"/>
<stop offset="1" stop-color="#BF9033"/>
</linearGradient>
</defs>
</svg>
