<svg width="71" height="68" viewBox="0 0 71 68" fill="none" xmlns="http://www.w3.org/2000/svg">
<path d="M30.299 18.2158C34.3841 20.9968 35.0962 22.9873 35.351 24.3202C35.6045 25.6548 35.667 27.7671 32.8861 31.8521C32.7799 32.0081 32.5037 32.4602 32.9876 32.7896C33.4752 33.1215 33.7873 32.6938 33.8934 32.5379C36.6744 28.4528 38.6643 27.7376 39.9989 27.4842C41.3318 27.2295 43.4435 27.164 47.5304 29.9461C47.6864 30.0523 48.1354 30.337 48.4673 29.8494C48.7968 29.3654 48.3722 29.045 48.2162 28.9388C44.1293 26.1566 43.4148 24.1696 43.1618 22.838C42.9096 21.5015 42.8427 19.3917 45.6237 15.3065C45.7299 15.1506 46.0145 14.7017 45.5269 14.3698C45.0429 14.0403 44.7225 14.4648 44.6163 14.6209C41.8354 18.7059 39.8496 19.4186 38.5138 19.6741C37.1804 19.9258 35.0699 19.9896 30.9847 17.2086C30.8288 17.1025 30.3761 16.8232 30.0455 17.3089C29.7161 17.7928 30.143 18.1096 30.299 18.2158Z" fill="url(#paint0_linear_269_3024)"/>
<path d="M21.4385 30.8769C21.6593 30.5524 21.3739 30.3397 21.27 30.2689C18.5364 28.408 18.0573 27.0772 17.8879 26.1855C17.7198 25.2919 17.6745 23.8787 19.5353 21.1451C19.6061 21.0412 19.7955 20.7398 19.4692 20.5177C19.1465 20.298 18.932 20.5823 18.8612 20.6862C17.0004 23.4198 15.6708 23.8972 14.7778 24.0683C13.8842 24.2364 12.4704 24.2786 9.73869 22.419C9.63295 22.3472 9.33224 22.1608 9.11139 22.4852C8.89053 22.8096 9.17413 23.0212 9.27991 23.0932C12.0118 24.9529 12.4896 26.2855 12.6607 27.1784C12.8301 28.0702 12.8723 29.484 11.0102 32.2194C10.9394 32.3233 10.7549 32.6253 11.0776 32.845C11.4038 33.0671 11.6135 32.7822 11.6843 32.6783C13.5464 29.9429 14.879 29.465 15.7708 29.2956C16.6638 29.1244 18.0776 29.0822 20.8112 30.9431C20.9151 31.0138 21.2164 31.2031 21.4385 30.8769Z" fill="url(#paint1_linear_269_3024)"/>
<path d="M50.9651 60.2206C47.9931 58.1975 47.4737 56.7526 47.2876 55.7813C47.1063 54.8105 47.0581 53.2746 49.0813 50.3027C49.1581 50.1898 49.3657 49.8616 49.0108 49.62C48.6577 49.3796 48.4266 49.6919 48.3498 49.8048C46.3266 52.7767 44.8799 53.2949 43.9086 53.481C42.9367 53.664 41.4001 53.7093 38.4317 51.6885C38.317 51.6104 37.9895 51.4058 37.7478 51.7607C37.5075 52.1138 37.8179 52.3436 37.9326 52.4217C40.901 54.4424 41.4211 55.8904 41.6072 56.8617C41.7914 57.8318 41.8385 59.3696 39.8153 62.3416C39.7373 62.4563 39.5337 62.7821 39.887 63.0226C40.2419 63.2642 40.4687 62.9542 40.5468 62.8395C42.57 59.8675 44.0179 59.3475 44.9862 59.162C45.9593 58.9771 47.494 58.9306 50.466 60.9538C50.5807 61.0319 50.9071 61.2383 51.1499 60.8816C51.3891 60.5302 51.0798 60.2987 50.9651 60.2206Z" fill="url(#paint2_linear_269_3024)"/>
<defs>
<linearGradient id="paint0_linear_269_3024" x1="42.506" y1="-8.84225" x2="38.6695" y2="36.799" gradientUnits="userSpaceOnUse">
<stop stop-color="#F0DB92"/>
<stop offset="1" stop-color="#BF9033"/>
</linearGradient>
<linearGradient id="paint1_linear_269_3024" x1="17.45" y1="4.98508" x2="14.8841" y2="35.5291" gradientUnits="userSpaceOnUse">
<stop stop-color="#F0DB92"/>
<stop offset="1" stop-color="#BF9033"/>
</linearGradient>
<linearGradient id="paint2_linear_269_3024" x1="46.8155" y1="32.7323" x2="44.0274" y2="65.9402" gradientUnits="userSpaceOnUse">
<stop stop-color="#F0DB92"/>
<stop offset="1" stop-color="#BF9033"/>
</linearGradient>
</defs>
</svg>
