<svg width="271" height="16" viewBox="0 0 271 16" fill="none" xmlns="http://www.w3.org/2000/svg">
<path fill-rule="evenodd" clip-rule="evenodd" d="M0 2.26199C0.961631 2.35775 1.91894 2.45335 2.87183 2.54851C4.31889 2.69302 5.75574 2.83651 7.18204 2.97802C53.4358 7.5729 93.3586 11.5168 163.532 7.45698C233.858 3.39032 258.458 0.919621 265.507 0.211646C266.859 0.0759373 267.565 0.0049963 267.825 0L264.102 3.89186L271 6.82126C270.963 6.82053 270.751 6.84412 270.324 6.89164C266.328 7.33617 243.508 9.87468 169.045 14.1826C92.5914 18.5995 47.7346 14.1579 0.249504 9.45604L0.197632 9.4509C0.131774 9.44457 0.0658969 9.43823 0 9.43188L5 6.28571L0 2.26199Z" fill="url(#paint0_linear_269_2363)"/>
<defs>
<linearGradient id="paint0_linear_269_2363" x1="-53.6988" y1="28.5571" x2="-52.4417" y2="-9.16551" gradientUnits="userSpaceOnUse">
<stop stop-color="#F0DB92"/>
<stop offset="1" stop-color="#BF9033"/>
</linearGradient>
</defs>
</svg>
