<svg width="22" height="18" viewBox="0 0 22 18" fill="none" xmlns="http://www.w3.org/2000/svg">
<path fill-rule="evenodd" clip-rule="evenodd" d="M1.67943 7.74701C7.52029 5.1855 11.4246 3.52989 13.3611 2.7177C18.9209 0.406094 20.0766 0 20.8262 0C20.9824 0 21.3572 0.0312382 21.607 0.218666C21.7945 0.374856 21.8569 0.59352 21.8882 0.74971C21.9194 0.9059 21.9506 1.24952 21.9194 1.53066C21.607 4.68569 20.3264 12.4015 19.6393 15.9314C19.3582 17.4308 18.7959 17.9306 18.265 17.9931C17.1093 18.0868 16.2035 17.2121 15.079 16.4936C13.3299 15.3378 12.3304 14.6194 10.6125 13.4948C8.64473 12.1828 9.92534 11.4643 11.0498 10.3085C11.3309 9.99615 16.4846 5.34169 16.5783 4.90436C16.5783 4.84188 16.6095 4.65446 16.4846 4.56074C16.3596 4.46703 16.2035 4.49827 16.0785 4.5295C15.8911 4.56074 13.08 6.43502 7.61399 10.1211C6.80189 10.6834 6.0835 10.9333 5.42757 10.9333C4.70918 10.9333 3.33486 10.5272 2.30412 10.1836C1.05474 9.77748 0.0552412 9.55881 0.148945 8.87158C0.242648 8.49672 0.7424 8.12187 1.67943 7.74701Z" fill="#372011"/>
</svg>
