<svg width="23" height="18" viewBox="0 0 23 18" fill="none" xmlns="http://www.w3.org/2000/svg">
<path d="M22.8563 2.13513C22.042 2.49594 21.1673 2.73973 20.2477 2.84992C21.1965 2.28218 21.9064 1.38861 22.2448 0.33596C21.3534 0.865461 20.3777 1.23817 19.3603 1.43789C18.6761 0.707364 17.7699 0.22316 16.7823 0.0604525C15.7947 -0.102255 14.7811 0.0656378 13.8987 0.538065C13.0163 1.01049 12.3146 1.76102 11.9024 2.67313C11.4903 3.58523 11.3909 4.60789 11.6195 5.58232C9.8132 5.49162 8.04615 5.02214 6.43304 4.20432C4.81993 3.38651 3.3968 2.23865 2.25602 0.835242C1.86596 1.5081 1.64167 2.28823 1.64167 3.11906C1.64124 3.86701 1.82542 4.60349 2.17789 5.26318C2.53036 5.92286 3.04021 6.48535 3.6622 6.90073C2.94085 6.87778 2.23542 6.68287 1.60461 6.33221V6.39072C1.60454 7.43974 1.96741 8.45648 2.63164 9.26841C3.29587 10.0803 4.22055 10.6375 5.24878 10.8453C4.57961 11.0264 3.87804 11.053 3.19705 10.9233C3.48716 11.8259 4.05226 12.6152 4.81325 13.1807C5.57423 13.7462 6.49301 14.0595 7.44094 14.0769C5.83177 15.3402 3.84445 16.0254 1.79867 16.0224C1.43628 16.0225 1.0742 16.0013 0.714294 15.959C2.79087 17.2941 5.20816 18.0027 7.67693 18C16.034 18 20.6027 11.0783 20.6027 5.07523C20.6027 4.8802 20.5978 4.68322 20.589 4.48819C21.4777 3.84553 22.2447 3.04973 22.8543 2.13805L22.8563 2.13513Z" fill="#372011"/>
</svg>
