<svg width="18" height="18" viewBox="0 0 18 18" fill="none" xmlns="http://www.w3.org/2000/svg">
<g filter="url(#filter0_i_8_12641)">
<path fill-rule="evenodd" clip-rule="evenodd" d="M12.8988 10.7865C12.6781 10.6748 11.5959 10.1363 11.3945 10.0613C11.193 9.98701 11.0464 9.95026 10.899 10.1738C10.7523 10.3958 10.3309 10.8983 10.2027 11.0468C10.0739 11.196 9.94573 11.214 9.72575 11.103C9.50577 10.9905 8.79621 10.7558 7.95554 9.99676C7.30153 9.40577 6.85935 8.67602 6.73122 8.45252C6.60308 8.22977 6.71714 8.10902 6.8275 7.99802C6.92675 7.89827 7.04748 7.73777 7.15784 7.60802C7.2682 7.47752 7.3045 7.38452 7.37782 7.23527C7.45189 7.08677 7.41485 6.95702 7.3593 6.84527C7.30449 6.73352 6.86454 5.63627 6.68085 5.19002C6.50235 4.75577 6.32088 4.81502 6.18608 4.80752C6.05721 4.80152 5.91055 4.80002 5.7639 4.80002C5.61725 4.80002 5.37875 4.85552 5.17729 5.07902C4.97509 5.30177 4.40699 5.84102 4.40699 6.93827C4.40699 8.03477 5.19506 9.09452 5.30542 9.24376C5.41578 9.39227 6.85713 11.6438 9.06507 12.609C9.59095 12.8385 10.0005 12.9758 10.3198 13.0778C10.8471 13.248 11.3271 13.224 11.7063 13.1663C12.1285 13.1025 13.0084 12.627 13.1921 12.1065C13.375 11.586 13.375 11.1398 13.3202 11.0468C13.2654 10.9538 13.1188 10.8983 12.898 10.7865H12.8988ZM8.88286 16.3388H8.8799C7.56849 16.339 6.28116 15.982 5.15285 15.3053L4.88621 15.1448L2.11461 15.8813L2.85455 13.1453L2.68049 12.8648C1.94733 11.683 1.55933 10.3153 1.56133 8.91977C1.56282 4.83227 4.84695 1.50678 8.88583 1.50678C10.8412 1.50678 12.6795 2.27928 14.0616 3.68027C14.7433 4.36771 15.2836 5.1852 15.6513 6.08544C16.019 6.98569 16.2067 7.95083 16.2037 8.92502C16.2022 13.0125 12.918 16.3388 8.88286 16.3388ZM15.1134 2.61603C14.2973 1.78422 13.3263 1.12468 12.2567 0.67563C11.187 0.226578 10.04 -0.00305718 8.88212 3.07331e-05C4.02777 3.07331e-05 0.0755484 4.00127 0.0740671 8.91902C0.0733264 10.491 0.478473 12.0255 1.24951 13.3778L0 18L4.66919 16.7595C5.96082 17.4721 7.40826 17.8455 8.87916 17.8455H8.88286C13.7372 17.8455 17.6894 13.8443 17.6909 8.92577C17.6945 7.75372 17.4685 6.59259 17.0261 5.50955C16.5837 4.4265 15.9336 3.44303 15.1134 2.61603Z" fill="#372011"/>
</g>
<defs>
<filter id="filter0_i_8_12641" x="0" y="0" width="17.691" height="18.4488" filterUnits="userSpaceOnUse" color-interpolation-filters="sRGB">
<feFlood flood-opacity="0" result="BackgroundImageFix"/>
<feBlend mode="normal" in="SourceGraphic" in2="BackgroundImageFix" result="shape"/>
<feColorMatrix in="SourceAlpha" type="matrix" values="0 0 0 0 0 0 0 0 0 0 0 0 0 0 0 0 0 0 127 0" result="hardAlpha"/>
<feOffset dy="0.44881"/>
<feGaussianBlur stdDeviation="0.841519"/>
<feComposite in2="hardAlpha" operator="arithmetic" k2="-1" k3="1"/>
<feColorMatrix type="matrix" values="0 0 0 0 0 0 0 0 0 0 0 0 0 0 0 0 0 0 0.2 0"/>
<feBlend mode="normal" in2="shape" result="effect1_innerShadow_8_12641"/>
</filter>
</defs>
</svg>
